<svg id="Books" xmlns="http://www.w3.org/2000/svg" viewBox="0 0 600 600"><title>Artboard 1</title><path d="M172.25,189.67a44.51,44.51,0,0,0-11.74,8,42.92,42.92,0,0,0-9.18,13c-.41,1-1.07,2.25-1.79,4.17-.35,1-.8,2.06-1.23,3.37s-.93,2.82-1.35,4.59a67.67,67.67,0,0,0-2.12,13.58c-.18,2.4-.07,4.59-.06,6.19,0,.79.1,1.44.12,1.88l.06.7.17,2.18.33,2.39c.12.9.26,1.89.5,2.93a64.52,64.52,0,0,0,3.74,12.5c.89,2.27,1.89,4.22,2.76,6s1.8,3.28,2.64,4.59,1.55,2.45,2.24,3.38l1.72,2.33a43,43,0,0,0,11.77,10.71,44.3,44.3,0,0,0,13.2,5.29,108,108,0,0,1-9.56-9.71c-2.86-3.22-5.8-6.53-9.21-11l-1.53-2.09c-.6-.83-1.21-1.86-2-3s-1.47-2.54-2.33-4.08-1.66-3.31-2.44-5.32a58.64,58.64,0,0,1-3.33-11,26,26,0,0,1-.45-2.58l-.31-2.09-.16-1.93,0-.61c0-.39-.09-1-.1-1.66,0-1.41-.1-3.34.08-5.46a62.74,62.74,0,0,1,1.88-12c.37-1.57.86-2.9,1.19-4.08s.79-2.15,1.1-3c.62-1.72,1.21-2.84,1.57-3.72,2.36-5.13,4.51-9,6.6-12.76A111.18,111.18,0,0,1,172.25,189.67Z"/><path d="M178.45,292.37c9.31,4.45,15.7,7.13,27.44,9.59l12,2.46,25.56,5.2,23.39,4.81L284.23,318c11.76,2.34,18.69,2.38,29,1.94-9.31-4.44-15.71-7.12-27.44-9.58l-17.43-3.59L245,302l-25.55-5.24-12-2.42C195.69,292,188.76,291.94,178.45,292.37Z"/><path d="M306.52,315.05c-2-4.73-3.36-8.73-4.73-12.84s-2.79-8.34-4.33-13.82A76.1,76.1,0,0,1,295.22,277c-.26-1.87-.46-5-.52-7.74,0-1.35,0-2.58,0-3.47s.08-1.45.08-1.45l.09-1.23c0-.76.17-1.81.31-3,.27-2.36.82-5.21,1.27-7.23A72.71,72.71,0,0,1,302.09,237c2.49-5.13,4.68-9,6.73-12.84s4.09-7.49,6.95-11.78a48.8,48.8,0,0,0-11.5,8.31,47.13,47.13,0,0,0-9.18,12.87,78.33,78.33,0,0,0-6.27,17.58,75.7,75.7,0,0,0-1.39,8c-.14,1.32-.29,2.49-.32,3.34l-.08,1.36s-.06.62-.11,1.61-.06,2.37-.06,3.87a74.2,74.2,0,0,0,.57,8.58c.19,1.79.46,3.34.7,4.69s.51,2.5.72,3.49c.41,2,.85,3.33,1.11,4.37a47.37,47.37,0,0,0,6.73,14.3A49,49,0,0,0,306.52,315.05Z"/><path d="M321.3,212.66c10.05,2.37,16.86,3.63,28.85,3.53l12.2-.13,22.18-.31,20.3-.24,17.8-.25c12-.22,18.76-1.65,28.74-4.27-10-2.37-16.86-3.63-28.84-3.53l-17.8.2-20.3.29-22.18.26-12.2.18C338.06,208.61,331.28,210,321.3,212.66Z"/><path d="M306.17,318.38c10.12,2,17,3,28.95,2.54l12.18-.55,27.12-1.29,24.81-1.14,17.78-.86c12-.62,18.7-2.28,28.59-5.24-10.12-2-17-3-29-2.55l-17.78.81-24.81,1.19-27.11,1.25-12.19.59C322.78,313.75,316.05,315.42,306.17,318.38Z"/><path d="M436.53,214.67c-1.57,2-3.1,3.89-4.38,5.82-.62,1-1.22,1.94-1.81,2.92a29.45,29.45,0,0,0-1.63,3c-.5,1-1,2.11-1.45,3.22-.23.55-.48,1.11-.69,1.7s-.38,1.19-.58,1.8c-.39,1.22-.77,2.51-1.14,3.86s-.59,2.81-.88,4.34c-.2,1-.46,2.39-.67,4.39-.12,1-.26,2.15-.42,3.5s-.2,2.9-.33,4.67-.13,6.25-.13,6.25l0,2.1c0,1.17.11,2.6.16,3.62.07,1.18.14,2.31.2,3.39s.24,2.08.35,3c.22,1.92.41,3.64.71,5.13s.5,2.8.69,3.91.47,2,.63,2.78c.37,1.51.72,2.94,1.12,4.28s.9,2.59,1.35,3.79l.68,1.77c.24.57.52,1.12.78,1.66.54,1.08,1.07,2.12,1.62,3.14a30.88,30.88,0,0,0,1.8,2.92c.64.95,1.3,1.89,2,2.83,1.38,1.86,3,3.64,4.69,5.57-.59-2.54-1.21-4.78-1.7-7-.22-1.11-.46-2.19-.7-3.25s-.53-2.1-.72-3.18-.47-2.15-.74-3.24c-.12-.55-.29-1.1-.41-1.67l-.37-1.73c-.26-1.17-.55-2.38-.88-3.64l-.88-4c-.15-.7-.39-1.54-.57-2.58s-.38-2.24-.63-3.64-.44-3-.64-4.76c-.1-.89-.21-1.84-.33-2.83s-.11-2.05-.17-3.15c0-.95-.16-2.27-.17-3.36s0-1.95,0-1.95,0-1,0-2.26.11-2.68.14-3.54c.11-1.65.14-3.09.29-4.34l.38-3.25c.18-1.86.43-3.12.6-4.08.23-1.43.45-2.77.66-4.06s.48-2.5.68-3.68c.09-.59.18-1.18.27-1.75s.22-1.13.32-1.68c.21-1.11.39-2.2.56-3.28s.35-2.15.54-3.22.36-2.16.53-3.28C435.58,219.5,436.08,217.23,436.53,214.67Z"/><path d="M230.14,303.18a31.17,31.17,0,0,0-3.19.61,18.5,18.5,0,0,0-2.77,1.08,14.06,14.06,0,0,0-2.49,1.72,15.44,15.44,0,0,0-2.29,2.58,46,46,0,0,0-3.81,6.44,47.83,47.83,0,0,0-3.6,10.48,44.82,44.82,0,0,0-1,10c0,1.34.08,2.44.14,3.21l.1,1.2.16,1.19c.1.76.25,1.86.55,3.17a45.49,45.49,0,0,0,3.17,9.57,47.52,47.52,0,0,0,5.78,9.45,45.91,45.91,0,0,0,5.1,5.47,15.62,15.62,0,0,0,2.8,2,14.33,14.33,0,0,0,2.8,1.14,18,18,0,0,0,2.94.45,29.89,29.89,0,0,0,3.24-.09l-1.54-2.75a25.17,25.17,0,0,0-1.39-2.33,15.77,15.77,0,0,0-1.56-2.09,25.46,25.46,0,0,0-2-2.1,43.82,43.82,0,0,1-4.22-4.59,40.28,40.28,0,0,1-4.82-7.88,37.74,37.74,0,0,1-2.65-7.91,26.15,26.15,0,0,1-.46-2.6l-.15-1-.07-1c0-.63-.12-1.54-.11-2.64a37.65,37.65,0,0,1,.88-8.3,41,41,0,0,1,3-8.74,43.43,43.43,0,0,1,3.13-5.39,26.88,26.88,0,0,0,1.5-2.48,15.34,15.34,0,0,0,1.07-2.38,22.77,22.77,0,0,0,.85-2.57C229.51,305.26,229.81,304.27,230.14,303.18Z"/><path d="M234.14,369.62c9.32,4.45,15.71,7.13,27.44,9.59l11.95,2.46a4.82,4.82,0,0,0,.71.12l.37.1.14,0,.27.06,17.31,3.51c11.76,2.34,18.69,2.38,29,1.94-9.31-4.45-15.7-7.13-27.44-9.59l-17.3-3.56-.27,0-.14,0-.38-.05a5.06,5.06,0,0,0-.7-.17l-12-2.42C251.39,369.22,244.45,369.18,234.14,369.62Z"/><path d="M317,384.29c-.07-4.25,0-6.68-1.66-10.09a54.57,54.57,0,0,1-2.11-5.17,47.64,47.64,0,0,1-2-8,45.05,45.05,0,0,1-.52-7.47c0-1,0-1.81.09-2.37l.06-.89.1-.88c.06-.56.15-1.37.33-2.35a45.83,45.83,0,0,1,1.85-7.26,48.58,48.58,0,0,1,3.38-7.55,50.26,50.26,0,0,1,3-4.7c2.21-3.07,2.61-5.46,3.43-9.64-4.19.5-7,1.51-9.73,5a51.09,51.09,0,0,0-3.56,5.48,54.33,54.33,0,0,0-3.94,8.83,52.69,52.69,0,0,0-2.14,8.53c-.2,1.15-.31,2.11-.38,2.77l-.11,1-.07,1c-.06.67-.12,1.63-.13,2.8a51.57,51.57,0,0,0,.58,8.77,54.32,54.32,0,0,0,2.3,9.4,50.74,50.74,0,0,0,2.52,6C310.33,381.55,313,383.05,317,384.29Z"/><path d="M329.55,318.06c4,2.44,6.67,3.75,11.39,3.75,5.12,0,30.73-.39,30.73-.39s25.61-.27,30.73-.4c4.72-.12,7.38-1.5,11.29-4-4-2.44-6.67-3.75-11.39-3.75-5.12,0-30.73.4-30.73.4s-25.61.26-30.73.39C336.12,314.13,333.46,315.52,329.55,318.06Z"/><path d="M316.76,386.44c10.12,2,17,3.05,28.95,2.55l12.19-.55c.42,0,1.4-.09,1.4-.09H360l18.34-.88c12-.63,18.7-2.29,28.58-5.25-10.12-2-17-3-28.95-2.55l-18.34.84-.72.06s-1,0-1.41,0l-12.18.6C333.38,381.82,326.65,383.48,316.76,386.44Z"/><path d="M401.09,319.36a18.06,18.06,0,0,0-4.33,2.65,10.27,10.27,0,0,0-2.62,4.13c-.29,1-1,2.93-1.56,5.4-.15.61-.3,1.25-.46,1.91s-.25,1.35-.38,2l-.38,2.11c-.11.7-.17,1.42-.26,2.12s-.17,1.4-.25,2.08-.08,1.35-.13,2c-.06,1.28-.17,2.45-.14,3.45v3.29l.18,3.28c0,1,.2,2.17.33,3.44.08.64.14,1.31.24,2l.36,2.07c.13.69.23,1.41.38,2.11s.33,1.39.49,2.08.31,1.37.49,2l.57,1.88c.67,2.43,1.51,4.33,1.85,5.3a10.23,10.23,0,0,0,2.85,4,18.17,18.17,0,0,0,4.46,2.42,25.92,25.92,0,0,0,.7-4.88,10.06,10.06,0,0,0-.75-4.37c-.26-.88-1-2.56-1.59-4.72l-.5-1.67c-.16-.58-.29-1.19-.44-1.8l-.44-1.85c-.14-.63-.23-1.26-.34-1.88s-.22-1.24-.33-1.84-.15-1.2-.22-1.76c-.12-1.14-.29-2.18-.31-3.07-.11-1.78-.18-2.93-.18-2.93l0-2.94c0-.89.08-1.94.14-3.08,0-.57.06-1.16.12-1.77s.15-1.23.23-1.85.13-1.27.24-1.9.22-1.25.34-1.87.2-1.23.33-1.82l.41-1.7c.47-2.19,1.12-3.91,1.34-4.8a10.21,10.21,0,0,0,.5-4.4A26.23,26.23,0,0,0,401.09,319.36Z"/><path d="M269.94,378.87c-3.19-.56-5.51-.17-7.25,2.19a26.18,26.18,0,0,0-2.2,3.7,27.06,27.06,0,0,0-2.07,6,26.16,26.16,0,0,0-.59,5.78c0,.78.05,1.42.09,1.86l.06.7.09.69c.06.44.15,1.07.32,1.83a25.78,25.78,0,0,0,1.82,5.52,27.28,27.28,0,0,0,3.32,5.44,25.55,25.55,0,0,0,3,3.14c2.21,1.93,4.56,1.81,7.55.57-.69-3.19-.76-4.87-2.26-6.3a23.89,23.89,0,0,1-2.06-2.26,20.7,20.7,0,0,1-2.37-3.87A18.28,18.28,0,0,1,266,400a11.05,11.05,0,0,1-.23-1.27l-.07-.47,0-.48c0-.31-.06-.75-.05-1.29a19,19,0,0,1,.44-4.05,20.41,20.41,0,0,1,1.48-4.29,24.73,24.73,0,0,1,1.52-2.66C270.25,383.79,270,382.14,269.94,378.87Z"/><path d="M272.09,414.56c1.7,2.89,2.92,4.51,5.54,5.11,2.83.64,17.1,3.49,17.1,3.49s14.24,3,17.1,3.49c2.64.48,4.4-.53,7.1-2.53-1.7-2.89-2.92-4.51-5.54-5.11-2.83-.65-17.1-3.49-17.1-3.49s-14.24-3-17.1-3.5C276.55,411.55,274.79,412.56,272.09,414.56Z"/><path d="M316.59,422.44c.89-3,1.52-4.5.74-6.21-.21-.47-.63-1.4-1-2.58a24.13,24.13,0,0,1-1-4,23,23,0,0,1-.27-3.71c0-.49,0-.9,0-1.18l0-.44.05-.43c0-.28.08-.68.17-1.17a21.81,21.81,0,0,1,.93-3.6,23.2,23.2,0,0,1,1.68-3.76c.61-1.09,1.19-1.93,1.48-2.35,1.08-1.54.73-3.15.39-6.24-3-.58-5.13-.36-6.69,1.64a29.28,29.28,0,0,0-2,3.12,30.77,30.77,0,0,0-2.25,5,30.13,30.13,0,0,0-1.21,4.87c-.12.66-.18,1.21-.22,1.59l-.06.59,0,.6c0,.38-.07.93-.08,1.6a29.33,29.33,0,0,0,.33,5,29.93,29.93,0,0,0,1.31,5.37,28.38,28.38,0,0,0,1.45,3.43C311.48,421.87,313.51,422.47,316.59,422.44Z"/><path d="M328.73,386.86c2.15,2.46,3.61,3.79,6.14,3.82,2.75,0,16.51-.21,16.51-.21s13.76-.11,16.5-.21c2.54-.1,4-1.46,6.05-4-2.16-2.47-3.61-3.8-6.15-3.83-2.75,0-16.5.22-16.5.22s-13.76.11-16.51.21C332.24,383,330.82,384.34,328.73,386.86Z"/><path d="M316.47,423.59c2.39,2.38,4,3.66,6.72,3.59,2.94-.07,17.69-.83,17.69-.83s14.75-.63,17.69-.83c2.71-.19,4.19-1.61,6.35-4.2-2.39-2.38-4-3.66-6.72-3.59-2.94.07-17.69.83-17.69.83s-14.75.62-17.69.83C320.11,419.58,318.63,421,316.47,423.59Z"/><path d="M361.77,387.56a11.35,11.35,0,0,0-3.55.92,3.88,3.88,0,0,0-1.9,2.15,37.55,37.55,0,0,0-1.72,7.65c-.1.79-.18,1.56-.21,2.28s-.09,1.38-.08,1.95c0,1.12,0,1.84,0,1.84l.09,1.85c0,.56.11,1.21.19,1.93s.19,1.49.33,2.27a37.61,37.61,0,0,0,2.14,7.54,3.91,3.91,0,0,0,2,2.05,11.38,11.38,0,0,0,3.6.72,22.71,22.71,0,0,0,1.57-3.18,3.28,3.28,0,0,0,.08-2.44,38.68,38.68,0,0,1-1.67-6.06c-.12-.64-.23-1.26-.28-1.84s-.15-1.1-.17-1.56l-.09-1.49s0-.59,0-1.5c0-.45.05-1,.08-1.57a17.85,17.85,0,0,1,.18-1.84,37.62,37.62,0,0,1,1.34-6.15,3.3,3.3,0,0,0-.22-2.43A22.81,22.81,0,0,0,361.77,387.56Z"/><path d="M166.83,191.25c10.25,1.27,17.16,1.8,29.06.42L208,190.24l15.22-1.86,13.93-1.65,17.67-2.16c11.89-1.49,18.48-3.64,28.13-7.32-10.24-1.27-17.15-1.8-29.06-.42l-17.68,2.1-13.92,1.7-15.23,1.82L195,183.93C183.07,185.42,176.48,187.58,166.83,191.25Z"/><path d="M286.53,175.88c9.23,4.62,15.57,7.43,27.25,10.11l11.9,2.7,39.38,8.81,36,8.12,17.38,3.87c11.71,2.57,18.64,2.74,28.95,2.5-9.22-4.62-15.56-7.43-27.24-10.11L402.8,198l-36-8.06L327.39,181l-11.9-2.65C303.78,175.81,296.85,175.64,286.53,175.88Z"/><path d="M214.7,200.83c2.82,2.92,4.79,4.55,8.57,5.14,4.09.64,24.66,3.46,24.66,3.46s20.56,2.95,24.67,3.46c3.8.47,6.14-.56,9.65-2.59-2.82-2.91-4.79-4.54-8.57-5.14-4.09-.64-24.66-3.45-24.66-3.45s-20.56-3-24.67-3.46C220.55,197.78,218.21,198.81,214.7,200.83Z"/><path d="M333.69,243.49a26.76,26.76,0,0,0,7.22.8l3-.07,21.31-.52,19.51-.47,4.44-.11A26.65,26.65,0,0,0,396.4,242a26.41,26.41,0,0,0-7.22-.8l-4.45.1-19.5.48-21.32.51-3.05.08A25.88,25.88,0,0,0,333.69,243.49Z"/><path d="M324,270a26.31,26.31,0,0,0,7.25.54l3-.17,2.53-.16,2.32-.13,4.44-.27a26.29,26.29,0,0,0,7.13-1.41,26.67,26.67,0,0,0-7.25-.54l-4.44.26-2.31.14-2.53.15-3.05.19A26.3,26.3,0,0,0,324,270Z"/><path d="M373.94,278.18a26.31,26.31,0,0,0,7.22.84l3,0,9-.17,8.22-.14,4.45-.09a26.31,26.31,0,0,0,7.18-1.11,26.66,26.66,0,0,0-7.22-.84l-4.45.07-8.21.16-9,.16-3.05.06A26.37,26.37,0,0,0,373.94,278.18Z"/><path d="M362.72,295.86c.55.58.92.89,1.53.86l3.95-.28,4-.29c.61,0,.93-.42,1.39-1.07-.55-.59-.92-.9-1.53-.87l-4,.28-3.95.29C363.5,294.84,363.18,295.2,362.72,295.86Z"/><path d="M402.2,260.22c.39.6.65.92,1.09.92l2.83-.14,2.82-.15c.44,0,.67-.38,1-1-.39-.61-.66-.93-1.09-.92l-2.83.14-2.83.14C402.76,259.23,402.53,259.57,402.2,260.22Z"/><path d="M333.3,284.66c.25.61.41.93.65.93s1.56-.12,1.56-.12,1.29-.08,1.55-.12.35-.38.5-1c-.25-.6-.41-.93-.65-.92s-1.55.12-1.55.12-1.3.08-1.56.12S333.45,284,333.3,284.66Z"/><path d="M336.39,336.86a26.66,26.66,0,0,0,7.2,1h14.25a26.78,26.78,0,0,0,7.2-1,26.4,26.4,0,0,0-7.2-1H343.59A26.29,26.29,0,0,0,336.39,336.86Z"/><path d="M382.84,354.36a4.19,4.19,0,0,0-2.59-1l-7.07-.09-7.07-.1a4.13,4.13,0,0,0-2.62.94,4.22,4.22,0,0,0,2.59,1l7.07.1,7.07.09A4.2,4.2,0,0,0,382.84,354.36Z"/><path d="M330,369.06a26.36,26.36,0,0,0,7.23.64l3.05-.13,10.81-.5,9.89-.45,4.45-.21a26.22,26.22,0,0,0,7.15-1.3,26,26,0,0,0-7.24-.64l-4.44.19-9.9.46-10.81.49-3,.14A26.52,26.52,0,0,0,330,369.06Z"/><path d="M324.52,402a4.53,4.53,0,0,0,2.78.9l7.44-.2,7.45-.2a4.54,4.54,0,0,0,2.72-1.05,4.66,4.66,0,0,0-2.78-.9l-7.44.2-7.44.2A4.61,4.61,0,0,0,324.52,402Z"/><path d="M342.71,408c.33.62.55,1,.92,1s2.4-.06,2.4-.06l2.4-.07c.37,0,.57-.37.86-1-.32-.62-.54-.95-.91-.95s-2.41.07-2.41.07l-2.4.06C343.2,407,343,407.33,342.71,408Z"/><path d="M334.2,413.84c.44.61.73.94,1.24.94l3.3-.09,3.3-.09c.5,0,.78-.37,1.19-1-.44-.61-.74-.94-1.25-.94l-3.29.09-3.3.09C334.88,412.86,334.6,413.21,334.2,413.84Z"/><path d="M165,261.82a15.62,15.62,0,0,0,1.19,7.25,27.91,27.91,0,0,0,1.31,2.84c.35.76,1,1.7,1.55,2.76l1.05,1.54a15.44,15.44,0,0,0,1.09,1.49l1.05,1.33c.33.41.66.74.92,1l.87.95.2.22.57.55c.5.46,1.13,1.17,2,1.82s1.7,1.44,2.64,2.09,1.85,1.26,2.63,1.74c1,.65,1.86,1,2.52,1.4a12.2,12.2,0,0,0,1.52.72,15.47,15.47,0,0,0,7.22,1.4c-1.14-.64-2.1-1-3.07-1.59-.49-.26-1-.5-1.55-.74s-1.12-.56-1.79-.84a15.68,15.68,0,0,1-1.44-.7c-.63-.35-1.46-.71-2.39-1.33a28,28,0,0,1-2.49-1.65,30.64,30.64,0,0,1-2.52-2c-.79-.62-1.39-1.3-1.87-1.73l-.55-.52-.18-.21-.83-.9c-.24-.29-.56-.61-.87-1l-1-1.27a15.18,15.18,0,0,1-1-1.42l-1-1.46c-.56-1-1.14-1.9-1.48-2.62a29.09,29.09,0,0,1-1.25-2.69c-.27-.68-.55-1.26-.79-1.82s-.45-1.08-.69-1.57C166,263.94,165.63,263,165,261.82Z"/><path d="M184.94,269.13a14.79,14.79,0,0,0,.95,7.3,28.91,28.91,0,0,0,1.27,2.87l.64,1.24c.28.46.57,1,.84,1.41s.55.85.74,1.14l.32.47.27.4.72,1c.54.76,1.31,1.6,1.84,2.21.82.85,1.47,1.55,2,2s1,.89,1.27,1.12a14.91,14.91,0,0,0,6.61,3.23c-1.92-1.72-3.11-2.88-5.35-4.72-.29-.22-.68-.58-1.2-1.06s-1.15-1.13-1.92-1.93c-.49-.59-1.23-1.37-1.74-2.09l-.68-.89-.26-.37L191,282c-.17-.28-.45-.64-.69-1.08l-.79-1.33-.61-1.17c-.73-1.5-1-2.24-1.21-2.7C186.67,273,186,271.51,184.94,269.13Z"/><path d="M199,275.69a16.49,16.49,0,0,0,1.47,7.19c.2.48.54,1.26,1.35,2.81.25.51.93,1.66.93,1.66l.32.55.58.93a42,42,0,0,0,2.65,3.7,16.42,16.42,0,0,0,5.69,4.64,70.79,70.79,0,0,0-4.16-5.85,40.21,40.21,0,0,1-2.52-3.55l-.57-.88-.31-.53s-.63-1.11-.87-1.59c-.79-1.48-1.11-2.22-1.31-2.68A69.2,69.2,0,0,0,199,275.69Z"/><path d="M213,280a13.13,13.13,0,0,0-.25,7.38,23.94,23.94,0,0,0,.93,3,25.53,25.53,0,0,0,1.74,3.68,21.83,21.83,0,0,0,1.41,2.18,20.47,20.47,0,0,0,1.38,1.76,25.9,25.9,0,0,0,2.73,2.72,24.78,24.78,0,0,0,3.77,2.67,13,13,0,0,0,7.14,1.86c-2.26-1.24-3.66-2.1-6.16-3.54a25,25,0,0,1-3.47-2.48,23.88,23.88,0,0,1-2.53-2.51,22.7,22.7,0,0,1-2.57-3.63,25.42,25.42,0,0,1-1.6-3.4,22.77,22.77,0,0,1-.88-2.8C214,284.07,213.55,282.49,213,280Z"/><path d="M228.93,278a13.29,13.29,0,0,0,0,7.38,24.3,24.3,0,0,0,1,3l.6,1.37c.25.52.55,1.06.81,1.56a12.8,12.8,0,0,0,.75,1.25l.32.52.28.44.74,1a13.74,13.74,0,0,0,1,1.25c.36.4.68.82,1,1.12l1.14,1.15c.34.34.68.61,1,.87a15.2,15.2,0,0,0,1.32,1.07,13.2,13.2,0,0,0,6.85,2.74l-1.44-1.06c-.46-.33-.86-.69-1.31-1s-.86-.68-1.35-1-1-.75-1.56-1.18a13.28,13.28,0,0,1-1.22-1c-.26-.24-.58-.49-.9-.8l-1.05-1.07c-.28-.29-.58-.68-.91-1a13.74,13.74,0,0,1-.92-1.16l-.7-.95-.25-.41-.3-.48a12.6,12.6,0,0,1-.69-1.17c-.24-.47-.53-1-.75-1.45l-.56-1.27a21.73,21.73,0,0,1-1-2.78c-.2-.69-.39-1.3-.53-1.89s-.33-1.11-.45-1.64-.31-1-.45-1.58Z"/><path d="M248.86,279.57a17.52,17.52,0,0,0-.78,3.43,14.94,14.94,0,0,0,.11,3.9c.12.51.22,1.36.67,3.07a31.71,31.71,0,0,0,1.83,5.09l.56,1.21.52,1,.49.89a7.85,7.85,0,0,0,.45.73c.29.45.68,1.08,1.15,1.77s1,1.41,1.62,2.09,1.14,1.34,1.66,1.85a37.79,37.79,0,0,0,3.42,3.06,15.07,15.07,0,0,0,3.38,1.94,16.89,16.89,0,0,0,3.4.94c-1-.84-1.85-1.45-2.68-2.18s-1.74-1.4-2.91-2.25a36.74,36.74,0,0,1-3.2-2.88c-.49-.47-1-1.11-1.57-1.73s-1-1.36-1.52-2-.81-1.24-1.09-1.66a5.76,5.76,0,0,1-.42-.69l-.46-.84-.5-.91-.52-1.14a31,31,0,0,1-1.71-4.78c-.44-1.61-.53-2.41-.65-2.88-.19-1.44-.43-2.55-.6-3.64S249.14,280.84,248.86,279.57Z"/><path d="M268.92,282.73a17.33,17.33,0,0,0,.62,7.31c.17.49.36,1.31,1,2.95.18.52.45,1.2.77,1.93s.66,1.52,1,2.22.67,1.35.92,1.8l.4.75s.12.24.35.62l.9,1.51c.74,1.18,1.7,2.57,2.44,3.52s1.32,1.66,1.79,2.24l1.12,1.25a17.44,17.44,0,0,0,6,4.26,56.4,56.4,0,0,0-4.53-5.58c-.25-.27-.6-.67-1.07-1.2s-1-1.25-1.72-2.15-1.62-2.25-2.33-3.38l-.88-1.45c-.22-.36-.34-.59-.34-.59L275,298c-.24-.44-.56-1-.88-1.73s-.68-1.43-1-2.13-.57-1.36-.74-1.86c-.61-1.56-.8-2.35-1-2.82A56,56,0,0,0,268.92,282.73Z"/><path d="M286.82,295.5a3.61,3.61,0,0,0-.48,2.73,27.4,27.4,0,0,0,1.19,3.86,29.6,29.6,0,0,0,1.31,2.85,28.35,28.35,0,0,0,1.6,2.7,29.17,29.17,0,0,0,2.49,3.18,3.72,3.72,0,0,0,2.53,1.16,4.65,4.65,0,0,0-1.08-2.47,30.49,30.49,0,0,1-2.31-3,24.19,24.19,0,0,1-2.71-5.17,28.75,28.75,0,0,1-1.12-3.58A4.62,4.62,0,0,0,286.82,295.5Z"/><path d="M232.13,345a13.63,13.63,0,0,0,.61,7.35,27.15,27.15,0,0,0,1.25,2.9,28,28,0,0,0,2.2,3.66,23.85,23.85,0,0,0,1.7,2.12s.67.79,1.62,1.69a27.1,27.1,0,0,0,3.14,2.57,26.4,26.4,0,0,0,4,2.31,13.55,13.55,0,0,0,7.26,1.3l-6.42-3.06a25.31,25.31,0,0,1-3.7-2.16,26.26,26.26,0,0,1-2.91-2.38,20.82,20.82,0,0,1-1.51-1.56,21.31,21.31,0,0,1-1.56-2,26.11,26.11,0,0,1-3.22-6.09C233.82,349.62,233.28,348.13,232.13,345Z"/><path d="M253.23,351.57a13,13,0,0,0,.47,7.36,26.16,26.16,0,0,0,1.22,2.92c.19.36.52,1,.79,1.49l.56.91s.2.35.5.77.65,1,.93,1.3a25,25,0,0,0,3.11,3.41,12.87,12.87,0,0,0,6.58,3.34c-2-1.69-3.13-2.83-5.26-4.77a25.5,25.5,0,0,1-2.87-3.17c-.26-.33-.58-.81-.87-1.2a7.71,7.71,0,0,1-.46-.72l-.52-.85-.73-1.38a27,27,0,0,1-1.14-2.7C254.6,355.56,254,354,253.23,351.57Z"/><path d="M267.9,355.44a14.07,14.07,0,0,0-.09,7.37,28,28,0,0,0,.92,3,.07.07,0,0,0,0,0v0s0,0,0,.05a29.74,29.74,0,0,0,1.9,4.14,14.14,14.14,0,0,0,5.09,5.32c-1.23-2.27-2-3.74-3.38-6.27a28,28,0,0,1-1.77-3.87l0-.05v0s0,0,0,0a27,27,0,0,1-.88-2.82C269,359.52,268.55,357.94,267.9,355.44Z"/><path d="M276.37,359.68a26.23,26.23,0,0,0,1,7.2c.14.49.35,1.29.8,2.94l.19.67.09.35.08.3c.53,1.9.93,3.47,1.24,4.31a6.2,6.2,0,0,0,2.48,3.39,3.62,3.62,0,0,0,3.64.22,3.58,3.58,0,0,1-2.75-1.35,8.2,8.2,0,0,1-1.53-2.91L280.2,370l-.18-.67c-.45-1.66-.67-2.46-.81-2.95A26.3,26.3,0,0,0,276.37,359.68Z"/><path d="M286.54,362a16.24,16.24,0,0,0-1.17,7.25c0,.52.07,1.37.31,3.11.06.51.28,1.72.28,1.72s.18,1,.31,1.56a36,36,0,0,0,1.27,4.39,6.29,6.29,0,0,0,2.49,3.37,3.5,3.5,0,0,0,3.65.14,3.37,3.37,0,0,1-2.76-1.26,8.59,8.59,0,0,1-1.55-2.92,34.84,34.84,0,0,1-1.18-4.15l-.31-1.49s-.19-1.14-.26-1.63c-.22-1.66-.27-2.47-.3-3C287.14,366.23,286.9,364.58,286.54,362Z"/><path d="M295,365a17,17,0,0,0,.83,7.29c.16.49.42,1.3,1.08,2.92.12.34.49,1.11.49,1.11s.27.66.45,1c1,2.12,1.76,3.36,2.14,4a17,17,0,0,0,5,5.36,61.38,61.38,0,0,0-3.33-6.36c-.37-.63-1.08-1.82-2-3.85l-.45-1-.45-1.07c-.64-1.55-.89-2.32-1.06-2.79A60.13,60.13,0,0,0,295,365Z"/><path d="M276.2,396.86a11.66,11.66,0,0,0,.4,7.39,25.22,25.22,0,0,0,1.36,2.88l.44.72s.25.42.4.65a21.88,21.88,0,0,0,3,3.56,11.71,11.71,0,0,0,6.65,3.24c-1-.8-1.82-1.47-2.63-2.2s-1.64-1.47-2.67-2.44a20,20,0,0,1-2.71-3.25l-.38-.59-.4-.65a23.09,23.09,0,0,1-1.24-2.63c-.5-1.33-.88-2.38-1.22-3.41S276.53,398.11,276.2,396.86Z"/><path d="M287.21,398a12.19,12.19,0,0,0-.32,7.38,20.4,20.4,0,0,0,1,3c.13.33.35.88.57,1.34l.42.83s.15.32.37.71.5.85.7,1.19a23.54,23.54,0,0,0,2.84,3.65,12.28,12.28,0,0,0,6.39,3.71c-1.88-1.76-3-3-5-5a22.35,22.35,0,0,1-2.61-3.37l-.65-1.09c-.21-.36-.34-.65-.34-.65l-.38-.77c-.2-.42-.4-.94-.53-1.23a19,19,0,0,1-.9-2.78C288.1,402.13,287.68,400.56,287.21,398Z"/><path d="M298.16,401.68a26.34,26.34,0,0,0,2.79,6.71l1.53,2.63.64,1.08.57,1,2.25,3.84a26.7,26.7,0,0,0,4.48,5.73,26.4,26.4,0,0,0-2.79-6.71c-.38-.64-1.09-1.87-2.24-3.85l-.59-1-.62-1.09-1.55-2.63A26.29,26.29,0,0,0,298.16,401.68Z"/><path d="M269,396.86a10.5,10.5,0,0,0-1.19,3.36,10.11,10.11,0,0,0,.19,4,14.26,14.26,0,0,0,1.1,3.06l.11.22.06.11.06.12a14.59,14.59,0,0,0,2.86,3.74,9.93,9.93,0,0,0,3.37,2.16,10.41,10.41,0,0,0,3.5.64,22.84,22.84,0,0,1-2.81-1.9,28.8,28.8,0,0,1-2.71-2.31,13.21,13.21,0,0,1-2.48-3.26l-.05-.1-.06-.09-.09-.2a12.65,12.65,0,0,1-1-2.66,33.93,33.93,0,0,1-.65-3.5A24.67,24.67,0,0,1,269,396.86Z"/><path d="M178.89,232.19a12.31,12.31,0,0,0-2.7,6.88,25.25,25.25,0,0,0,0,3.18c0,.16.05.53.05.53v.27l0,.24a25.23,25.23,0,0,0,.92,4.51,12.35,12.35,0,0,0,4.15,6.11c-.93-2.41-1.39-4-2.29-6.69a24.07,24.07,0,0,1-.83-4.13v-.22l0-.25s0-.34,0-.48a25,25,0,0,1,0-2.92C178.41,236.37,178.51,234.75,178.89,232.19Z"/><path d="M178.08,232.67a26.36,26.36,0,0,0,6.95,2.11l33.78,5.48L247,244.83l4.4.71a26.73,26.73,0,0,0,7.26.19,26.36,26.36,0,0,0-7-2.12l-4.39-.72-28.15-4.55-33.78-5.48A26,26,0,0,0,178.08,232.67Z"/><path d="M257.89,245.69a11.28,11.28,0,0,0-3.66,6.42,9.73,9.73,0,0,0-.2,1.11,17.84,17.84,0,0,0-.2,2.06,14.06,14.06,0,0,0,0,1.59v.54c0,.3.06.66.08.92a20.16,20.16,0,0,0,.94,4.55,11.32,11.32,0,0,0,4.38,6c-.26-.6-.52-1.12-.72-1.64s-.42-1-.59-1.52c-.37-1-.8-2.05-1.21-3.41a18.92,18.92,0,0,1-.85-4.14c0-.23-.06-.56-.07-.83v-.49s0-1,0-1.44a16.12,16.12,0,0,1,.17-1.88,8.61,8.61,0,0,1,.18-1c.25-1.4.56-2.47.8-3.53.12-.53.29-1,.42-1.58S257.7,246.31,257.89,245.69Z"/><path d="M259.41,268.62a28,28,0,0,0-7-1.79l-5.5-.71c-3.6-.46-7.83-1.09-11.87-1.71-8.08-1.27-15.39-2.66-15.39-2.66s-4.36-.82-9.89-2-12.26-2.7-17-3.89l-4.31-1.07a27.75,27.75,0,0,0-7.21-.89,25.36,25.36,0,0,0,6.72,2.78c.72.18,2.1.55,4.33,1.09,4.78,1.19,11.52,2.75,17.08,3.9s9.94,2,9.94,2,7.33,1.4,15.45,2.68c4,.62,8.3,1.25,11.91,1.72l3.76.49,1.76.21A25,25,0,0,0,259.41,268.62Z"/><path d="M187.07,240.76c-.72.2-1.13.42-1.26.94a11,11,0,0,0-.26,1.92,11.78,11.78,0,0,0,0,1.52,14,14,0,0,0,.18,1.5,11,11,0,0,0,.52,1.87c.19.5.63.66,1.37.76.39-.64.6-1,.46-1.41a14.12,14.12,0,0,1-.42-1.59,10.91,10.91,0,0,1-.17-1.26,10.33,10.33,0,0,1,0-1.28,13.9,13.9,0,0,1,.2-1.63C187.79,241.66,187.54,241.35,187.07,240.76Z"/><path d="M187.47,249.36a3.52,3.52,0,0,0,1.94,1.67c.51.17,2,.65,3.46,1s2.73.7,2.73.7,1.3.33,2.74.64,3,.61,3.55.69a3.47,3.47,0,0,0,2.49-.58,3.69,3.69,0,0,0-2.15-1.34c-.52-.1-2.07-.38-3.48-.69s-2.69-.61-2.69-.61-1.27-.32-2.66-.71-2.9-.85-3.4-1A3.66,3.66,0,0,0,187.47,249.36Z"/><path d="M204.23,253.53c.31-.72.5-1.1.32-1.57a10.39,10.39,0,0,1-.47-1.77,10.19,10.19,0,0,1-.12-1.43,9.33,9.33,0,0,1,.13-1.43,10.58,10.58,0,0,1,.48-1.77c.18-.47,0-.85-.32-1.57-.76.1-1.24.28-1.49.85a9.9,9.9,0,0,0-.61,2.17,11.15,11.15,0,0,0-.14,1.74,10.59,10.59,0,0,0,.13,1.75,10.21,10.21,0,0,0,.6,2.17C203,253.24,203.46,253.42,204.23,253.53Z"/><path d="M204.24,243.82a3.36,3.36,0,0,0-2-1.55c-.51-.15-2-.53-3.48-.83s-2.72-.54-2.72-.54-1.3-.24-2.75-.45-3-.39-3.54-.43a3.42,3.42,0,0,0-2.41.77,3.65,3.65,0,0,0,2.21,1.17c.52.06,2.06.23,3.46.43s2.68.43,2.68.43,1.27.23,2.66.53,2.89.68,3.4.8A3.55,3.55,0,0,0,204.24,243.82Z"/><path d="M263.7,195.92a26.57,26.57,0,0,0,7.17-1.15l2.92-.88,2.3-.7,2.1-.63,4.26-1.3a26.15,26.15,0,0,0,6.61-3,26.29,26.29,0,0,0-7.18,1.16l-4.26,1.28-2.1.64-2.3.69-2.92.89A26.27,26.27,0,0,0,263.7,195.92Z"/><path d="M278.32,199.57a4,4,0,0,0,2.53-.4c.46-.25,1.85-1,3.17-1.6s2.56-1,2.56-1,1.23-.46,2.63-.85,2.94-.72,3.45-.83a3.91,3.91,0,0,0,2.18-1.33,3.47,3.47,0,0,0-2.54-.58,36.76,36.76,0,0,0-3.63.85c-1.47.42-2.77.91-2.77.91s-1.3.46-2.69,1.09-2.85,1.41-3.32,1.69A3.51,3.51,0,0,0,278.32,199.57Z"/></svg>