<svg id="Cloud_Storage" data-name="Cloud Storage" xmlns="http://www.w3.org/2000/svg" viewBox="0 0 600 600"><defs><style>.cls-1{fill:#ec63c8;}</style></defs><title>Artboard 1</title><path class="cls-1" d="M371.58,313.79l-7.27-.65,4.84-1.06-5.39-.62,17-3.17-12.34-.73,4-.7-13.89-2.3,20.94-4.09-20.21-1.1,6.67-1.75-13.25-1.36-.07-2.14.54-.09-.13-3.5,19.56-1.92-21.41-3.88-.07-1h.15l-.1-1.37H351l-.35-4.86c-8,.83-15.25,2-24.88,3.37v5a12.63,12.63,0,0,0-2.55.92l-41.42,6.42L315.72,295l-.1.06-15.73,9.66,13.58-.81-16.57,2.38,30.27,3.25,1.09.12,0,.38-20.54.18L327,314.32l-13.47,4.1,13,.61-10.69,3.31,3.94,0-9,1.75,16.86,1.12v6.2c1.39.05,2.77.08,4.14.1v.13q-4.06.29-8.16.52l-1.63-.1v.2l-.7.05.12,5-25.71,7.4L329,343.08l.36,0a5.39,5.39,0,0,0,2.2-.19l.88,0c-4,1.65-2.38,2.56,11.13,1.63,2.58.05,5.32.09,8,.11l-.07-.74.74-.07,22.24-2-22.71-3.42-.75-.11,0-.38,14.23-3.51-8.78-.29-.17-4.14,16.59-1.83-18.32-1.76,18.88-5.17-13.33-1.29L379.3,313Zm-36.73-30.43,0-.14A.09.09,0,0,1,334.85,283.36Zm-4.73,26.55,1.26.14-1.76,0Z"/><path d="M145.71,343l.25-.32C145.85,342.67,145.75,342.75,145.71,343Z"/><polygon points="155.65 302.54 155.65 302.53 155.42 302.23 155.65 302.54"/><path d="M213.72,265.06c.14-.18.26-.36.41-.54C214,264.5,213.88,264.62,213.72,265.06Z"/><path d="M343.05,212.54l.16,0C343.11,212.54,343.07,212.53,343.05,212.54Z"/><path d="M230.5,246.64l0,0c0,.06,0,.11,0,.16Z"/><polygon points="263.19 205.59 263.19 205.59 263.28 205.17 263.19 205.59"/><path d="M453.68,316.39a.53.53,0,0,0,.06.1C453.72,316.42,453.7,316.39,453.68,316.39Z"/><path d="M386.29,262.58h0l-.11.05Z"/><path d="M454.73,323.32a9,9,0,0,0-.8-4.25l.19.13c-.77-1.09-.17-1.44-.6-2.66.08-.07.12-.16.16-.15-.86-1.14-.45-3.5-.95-4.42l.43-.13-.51-2.35.06.9c-.63-.05-.52-.52-.39-1.19a2.73,2.73,0,0,0-.37-2.29c-.2-1.67-3.32-2.47-3.21-4.2-.78-.56,1.09.37.32-.61.6-.25.54.4.94-.06-.68-1-.06-2-1-3.25l.44-.24a4.33,4.33,0,0,1-1.19-2.41c-.19-.82-.32-1.59-1-1.94-1.29-1.53.69-1.88-1.16-3.21l.17-1c-.37-.82-1-.12-1.27-1.12.39-.18-.36-1.25.28-1a7.74,7.74,0,0,0-2-2.83A8.23,8.23,0,0,1,441,281.7c-1,0-1.63-1.4-2.41-1.36.24-.3-1.9-2.24-.22-1.53.14.06.3.26.18.34l.5-.17c-.43-1.91-2.48-1.88-3.51-3.17.23.46.71.9.17.83-.33-.39-.69-.76-1.05-1.12l.52-.08-1.51-1.74-.11.59c-.64-1-.37-1.87-1.82-2.13-.69-.06.36,1.2-.64.56-.46-.6-1-1.39-1.68-2.14a25.16,25.16,0,0,0-2.1-2.15c-.2.57-.59.24-1.1,0l.24-.44c-2.06-.58,0-1.32-2-2l-.67.37c-2.06-.11-.29-1.39-2.7-1.3.72.34-.26,1.13-1,.44l.45-.28c-.5-.2-.77-.1-1-.37.41-.06.5-.52-.23-.83l.76-.27-1.74,0c-.76-1-2.7-1.27-2.82-2.09a10.06,10.06,0,0,0-1.15-.65,2.34,2.34,0,0,0-1.79-.29c.65-.21-.54-.93,0-1.27-.81.21-2.71-.16-3.23-.93h.16c-2.46-1.59-4.81-1-7-2.35-.06.59-1.25-.08-1.14.72a4.71,4.71,0,0,1-1.8-.41c-.55-.2-1-.46-1.49-.67-.91-.4-1.67-.57-2.36.44-1.17-.11-1.25-.8-1.83-1l.3-.06c-2.2-.27-2.83-.31-4.44-.62-.84.09-1.11,1.11-2.51.69.52-.36-.08-.35-.62-.42.35,0,.48-.16-.2-.53a.94.94,0,0,1-.43.23s0-.06,0-.1c-.92,0-.78.19-.37.29,0,.07,0,.15.12.28-.88-.67-2.61-.19-2.66-.93a17.32,17.32,0,0,0-3.67.33l-.49.09a8.71,8.71,0,0,0,.33-1.13l.31-.23h.19c.29-.52.33-.87-.31-1,0-.07,0-.15,0-.22.18-.11.12-.19,0-.26a1.93,1.93,0,0,0,0-.24h0q0-.45,0-1s.05,0,.05,0a.1.1,0,0,0-.05,0v-.1l.09-.16a1.33,1.33,0,0,0-.11-.24l.13-.07c-.35-.43-.38-1.25-1.49-1.08l.18-.06c-.74.15-.21-.17-.63-.19.08,0,.11-.09.14-.1-.72.14-.36-.46-.71-.46l.39-.22-.28-.3,0,.18c-1.08.56.53-.65-.31-.49,0-.13-.37,0-.79.12,0-.18,0-.37-.05-.57s0-.25,0-.37,0-.14,0-.17a.31.31,0,0,0,0-.1l.29-.21c-.17.05-.26.05-.31,0s0-.19-.05-.29.11-.31-.05-.31,0-.24-.07-.36c.23-.25.46-.48-.06-.32h0l.44-.51c0-.13-.37.14-.52.19a.43.43,0,0,0,0-.11c.31-.24.13-.36.5-.53.28-.71-1.19,0-.65-1.07a1.31,1.31,0,0,1-.24.14c-.05-.17-.11-.36-.17-.54l.26-.2c.33-.54-.07-.4-.42-.31-.25-.8-.55-1.66-.9-2.6l.27,0a36.56,36.56,0,0,0-3-4.39,14.17,14.17,0,0,0-3.41-2.74c.58-1.17-2.3-2.48-2.71-3.42h.13a9.3,9.3,0,0,1-2.84-2.57,8,8,0,0,0-2.83-2.47.72.72,0,0,1,.81.13c-1.42-1.06-3.52-2.27-3.2-2.9-3.38-2.51-8.16-6-11-6.46l.25-.06c-1.66-.2-1.73-.94-3.4-1.45,0-.13-.12-.22-.09-.25s-.23,0-.35-.07h0l-.34-.07.05,0-.07,0a11.51,11.51,0,0,1-2.24-1.09,14.71,14.71,0,0,0-2.67-1.28l.12-.44c-1-.45-2-.93-3-1.36.37.19.72.42,1.08.62-.88.89-2-1.73-4.49-2a3.86,3.86,0,0,0-1.67-.37,17.86,17.86,0,0,0-1.9.17,4.94,4.94,0,0,1-3.49-.43c-1.21.18,1.21-.57-.48-.67.15-.63.86-.15.62-.77-1.65-.18-2.37-1.4-4.43-1.57l.06-.5a8.3,8.3,0,0,1-3.65-.76,4.57,4.57,0,0,0-3-.54c-2.77,0-1.62-1.78-4.6-1.18l-1-.76c-1.22-.21-.95.75-2.28.31.12-.43-1.69-.47-.87-.82a15.16,15.16,0,0,0-4.81,0,15.55,15.55,0,0,1-5.55-.09c-.83.9-2.9.58-3.49,1.25-.15-.4-4.05.46-1.88-.63.19-.09.54-.13.53,0l.22-.52a5.37,5.37,0,0,0-3.27.35c-.51.18-1,.39-1.52.56a6.73,6.73,0,0,1-1.61.44c.7,0,1.57-.18,1,.26l-2.1.35.36-.49c-1,.14-2.12.23-3.17.41l.54.39c-1.56.12-2.31-.59-3.84.55-.66.58,1.6.3.06.86-1.05.05-2.33.28-3.7.49-.68.11-1.38.23-2.07.37s-1.36.35-2,.55c.43.45-.25.68-.9,1l-.25-.43c-2.39,1.63-1.38-.67-3.77.94l-.18.83c-1.89,1.91-1.71-.44-3.64,2,1-.57.94.76-.35,1.16l.09-.58c-.63.43-.76.72-1.25.85.28-.43-.11-.73-1.06-.16l.39-.86c-.5.56-1,1.16-1.43,1.77-1.66.35-3.57,2.15-4.46,2,0,0-.78.4-1.59.93s-1.67,1.19-1.77,1.74c.31-.79-1.35.2-1.22-.57a7.36,7.36,0,0,1-3.52,3.1l.12-.18a17.17,17.17,0,0,0-4,3.48,19.5,19.5,0,0,1-3.67,3.44c.52.3-1,1.43-.16,1.61a9.51,9.51,0,0,1-1.74,2l-1.7,1.51c-1,.94-1.73,1.78-1.25,3-.89,1.38-1.6,1.22-2.2,1.84l.14-.39c-1.75,2.57-2.16,3.37-3.49,5.24-.45,1.08.33,1.78-.91,3.4,0-.79-.38,0-.77.63.19-.46.14-.67-.62,0a1.53,1.53,0,0,1-.05.63s-.07,0-.1,0c-.52,1.17-.29,1,.06.56,0,.06.14.06.33,0-1.19.85-1.7,3.25-2.44,3-.4.87-.75,1.69-1,2.49s-.5,1.58-.71,2.34c-.43,1.51-.83,2.94-1.25,4.47-.48.19-.51-.62-.3-1.54l-.71,2.14c-.5-.21.19-1.31.35-2a9,9,0,0,0-1.55,3.88,11.22,11.22,0,0,1-1.43,4.29l.19.74-.12.16c.2.06.3.83.24,1.29-.57.29-1-.35-1.43,1.16a5.26,5.26,0,0,0-.7,2.32c-.1.93-.08,1.94-.15,2.75.28-.83.46-.49.54-.09-.17.75-.72,1.09-.67,1.71l-.49-.05c.19.1.22.54.21,1,0,.28,0,.58,0,.84h-.26c0-.39,0-.83-.15-1l-.16.94h0a4.48,4.48,0,0,0-2.26.78c-.28-1.15-1.79-.07-2.32-.37l0-.1a2.26,2.26,0,0,1-2,.24,2.13,2.13,0,0,0-2,.23c0-.1,0-.42.32-.48-.92.28-2.14.72-2.32.07-2.19.52-5.35.89-6.45,2.33l0-.2c-.6.91-1,.37-1.76,1-.07-.07-.15-.1-.15-.13-.63.94-2.41.9-3,1.41l-.19-.41c-.55.21-1.08.46-1.61.71l.64-.15c.22,1.23-1.51-.24-2.4,1-.65.15-.94,1.09-1.27,1.92a2.27,2.27,0,0,0-.69,0c.31.49.18.53.11.7l-.25-.43c-.14.87-.69-.87-.9-.13l.25.65v.06c-.06,0-.14,0-.28.18-.31-.57.19-.53-.23-.9-.65.62-1.56,0-2.3.91l-.27-.42c-.8,1.45-2.65.66-3,1.92-1,1.1-1.61-.75-2.37.86l-.86-.24c-.6.28.07.95-.7,1.09-.2-.38-.94.24-.82-.33a4,4,0,0,0-2,1.55,4.22,4.22,0,0,1-2.48,1.61c.14.91-1,1.28-.82,2-.28-.23-1.66,1.4-1.27,0,0-.12.18-.23.26-.12l-.21-.46c-1.56.14-1.35,1.87-2.29,2.64.37-.14.68-.51.69,0l-.85.75-.12-.45-1.37,1,.53.18c-.77.39-1.6.07-1.69,1.28,0,.6,1-.15.57.63a15.18,15.18,0,0,0-3.45,2.7c.54.23.3.53.16.92l-.43-.25c-.31,1.64-1.24-.16-1.65,1.4l.44.61c.14,1.68-1.26.09-.89,2.08.24-.56,1.09.32.53.82l-.32-.39c-.12.39,0,.6-.23.78-.11-.33-.55-.45-.78.1l-.32-.64c.06.47.14.94.23,1.41-.84.52-.89,2-1.65,2a4.88,4.88,0,0,0-.51.84,1.46,1.46,0,0,0-.09,1.38c-.27-.53-.84.33-1.22-.15.29.65.12,2.11-.62,2.42v-.12c-1.31,1.75-.54,3.6-1.8,5.13.57.1,0,.94.76.94.15,2-2.49,2.92-.42,4.19-.09.87-.77.86-1,1.26l-.07-.23a23.8,23.8,0,0,1-.6,3.24c.1.64,1.12.94.66,1.93-.34-.42-.35,0-.43.41,0-.26-.15-.37-.53.1a.83.83,0,0,1,.22.34.21.21,0,0,1-.11,0c0,.69.17.59.29.3.06,0,.14,0,.28-.06-.69.58-.27,1.9-1,1.87a28.84,28.84,0,0,0,.54,5.19c-.39.15-.68-.27-.78-.76l0,1.19c-.53-.07-.24-.71-.31-1.09-1,1.34.54,3-.3,4.56l.4.36-.07.1c.22,0,.51.39.57.63-.48.21-1.08-.06-1.09.76-.5.63.17,1.85.43,2.69.08-.45.34-.3.5-.1,0,.4-.45.64-.25,1l-.63,0c.59-.16.64,1.06.9,1.21-.47.24-.41-.63-.76-.72.06,1.64,0,.82.15,2.46.52.85.59-.19,1.16.21.16.74.62,1.44.32,2.31l-.21,0,.21,0a.13.13,0,0,1,0,.06l.09-.05h0l0,0,0,0,.5.06c0,.12.08.23.11.34s-.15.08.05.17a4.74,4.74,0,0,1,.1.49l-.39-.08.4.14a3.4,3.4,0,0,1,0,.84l-.08,0a.39.39,0,0,0,0,.43,1.72,1.72,0,0,1-.07.21,1.6,1.6,0,0,1-.7.07c.52.13.95.51.4.66l-.07,0c-.56.57.79,1,.11,1.48.57,0,.26.24,1,.16.6.42-.78.81,0,1a13.32,13.32,0,0,0-.5,4,19.09,19.09,0,0,0,.19,2.56c.09.65.19,1.05.19,1.05a22.48,22.48,0,0,0,3.19,8.19,26.28,26.28,0,0,0,5,5.76,35.06,35.06,0,0,0,6.55,4.42,59.21,59.21,0,0,0,8.47,3.61c2.78,1.13,5.06,1.91,7.08,2.58s3.79,1.21,5.57,1.71a85.42,85.42,0,0,0,12.88,2.53c1.36.26,2.75.5,4.15.73s2.83.38,4.24.56l8.34,1c2.66-.48,7.07.83,10.17.5l1.12.61a7.64,7.64,0,0,1,3.33.24l-.08.13c1.59-.22,3.33.15,4.12,0l-.08.14,1.9.1-.34.17a41.65,41.65,0,0,1,8,.47l-.16-.59c5.24,1,7.25-.1,12,1l-.07.14a20.78,20.78,0,0,1,7.82.07,20.29,20.29,0,0,0,8,.07c-.78.17.33.3.26.44,2.88-.14,5.94-.2,6-1.34,2.09,0,1.7.38,2,.82,0-.5,1.8-.69,3.43-.71l-.75.19c1.55-.05,3.11-.16,4.66-.23l-.92-.93c2.47.23.64,1.14,3,.87l0-.78c3.42.07,5.45,1.28,8.79,1.71,13.84-.09,28.42-3.33,41.29-3.44l.64.51c.35.82,3.35-1.7,3.94-1l1.43-.57c.43.1,1.33.15.62.44a5.71,5.71,0,0,0,2.34-.67c.51.12,1,.23,1.54.33a51.61,51.61,0,0,0,7.69-1.31c2.5-.56,5-1.13,7.86-1.57,7-.08,19.54-3.58,26.65-5.91,5-1.85,10.56-2.55,16.27-3.66s11.58-2.61,16.35-5.81c.39,0,1.11-.74,1.05-.82a52.75,52.75,0,0,0,8.86-5.56l.44-.35,1.19-1a38.62,38.62,0,0,0,3.74-3.75,33.84,33.84,0,0,0,4-5.55,29,29,0,0,0,2.67-6.16,15.54,15.54,0,0,0,.66-4.83c-.08-1.15-.38-1.69-.92-1.47s-1.28,1.25-2.54,3.05l-.7,1a14.8,14.8,0,0,1-1.59-.24,14.14,14.14,0,0,0-2.36-1.11c-.51-.22-1.09-.39-1.61-.56-.32.1-.66-.28-1-.24l-.06-.16a.31.31,0,0,1-.33-.1l0,0c-.18,0-.32-.1-.41-.09l0,0-.18-.06.05,0a1.46,1.46,0,0,1-.76-.29l-.05.14c-.41-.37-.72-.18-1.07-.57l0,0c-.73.08-.75-.67-1.48-.63.09,0,0-.08,0-.11-.28-.1-.56-.22-.7,0-.19-.1-.11-.16-.09-.27-.05.11-.24.07-.39,0h.09l-.44-.19,0,.25c-.19-.18.08-.28-.16-.35l-.09.18c-.28-.21-.32-.56-.54-.85-1.17-.76-2.72-1.12-3.63-2.12l0-.15c.09-.19-.47.06-.41-.13h-.18c0-.06-.06-.14,0-.14-.12-.09-.14-.06-.26-.06l-.05-.2c-.4-.39-.94-.43-1.38-.82a6.81,6.81,0,0,0-2.3-1.55c-1.06-.39-1.47-1.85-2.53-2.27,0,0-.12-.05-.14,0l-.73-.68-.54-.45a6.27,6.27,0,0,0-1-.73c-.68-.36-1.21-.27-.43,1.65l-.05,0a1.55,1.55,0,0,0,1,.8c-.14.25.33.32.37.48h0c.4.05.41.6.79.66,0,0-.08.07-.14,0,.21.13.5.29.41.43.48.32,1.05.9,1.5.91l-.05,0c.28,0,.23.15.48.22,0,0,0,0,0,.05.29,0,.55.38.74.43l-.06.09.38.26-.12-.12c.23-.21.15.36.54.39.23.21.88-.15,1.05.16.2,0-.24.11,0,.15-.08.13-.14,0-.17.16.23.07.21.34.49.42l-.06.11c.42,0,.47.51.79.47.36.12,0,.44.46.46l0,.22c.12.12.21-.1.32.07-.07.08.14.2,0,.22.26.37.84.26,1.16.79.21-.12.37.14.53.05,0,.09.46.31.1.31,0,0-.07,0,0-.06l-.1.09c.15.36.56.18.81.37-.06-.08-.17-.13-.06-.16l.24.16-.1,0,.33.27,0-.14c.15.17.1.39.4.36.14,0-.09-.25.12-.18a4.84,4.84,0,0,0,.8.75c0-.14.12-.09.22-.07l0,.11c.42,0,0,.31.39.37l.14-.12c.41-.05,0,.32.53.2-.14-.05.07-.27.2-.14l-.1.09c.1,0,.16,0,.21.05s-.11.14,0,.19l-.16.09.36-.07c.13.21.51.23.52.42,0,0,.38.29.56.17-.14.06.07.22,0,.3.16-.06.53,0,.6.19h0c.42.35.91.21,1.27.57,0-.14.23,0,.25-.15.52.05.67.71,1.07.26.21.06.19.23.28.3h-.06a4.69,4.69,0,0,1,.8.3c.16,0,.29-.22.52-.06-.12.07,0,.09.09.13-.07,0-.11,0,0,.14a.26.26,0,0,1,.1,0v0c.17,0,.16,0,.09-.06s0,0,0-.07c.11.19.47.18.42.35a8.91,8.91,0,0,0,1.35.21c0,.11-.12.15-.25.14l.31.07c0,.13-.2,0-.3,0,.27.33.79.06,1.13.39l.12-.07,0,0c0-.06.13-.09.2-.09s-.1.25.1.32.47.11.71.12c-.11-.06-.05-.11,0-.13s.12.16.22.14l-.05.15c0-.16.32-.07.38-.11,0,.13-.19,0-.24.11l.58.17a39.62,39.62,0,0,1-4.22,4.52l0-.28c-1.4,1.64-2.66,2.9-3.81,4.07-.49-.12-1-.17-1.75-.4a15.52,15.52,0,0,0-2.37-1.3c-.52-.27-1.1-.48-1.62-.69-.34.08-.67-.34-1-.32l0-.17a.33.33,0,0,1-.33-.12l0,0c-.19,0-.33-.13-.42-.12l0,0-.18-.08.05,0a1.49,1.49,0,0,1-.76-.35l-.05.14c-.41-.41-.73-.25-1.08-.66l0,0c-.75,0-.74-.73-1.48-.74.09,0,0-.09,0-.11-.28-.12-.57-.27-.72,0-.19-.12-.11-.17-.08-.28-.06.11-.25.05-.4,0h.09l-.43-.22-.05.25c-.18-.2.1-.28-.14-.37l-.1.17c-.29-.23-.31-.59-.52-.9-1.16-.86-2.73-1.34-3.62-2.42l0-.16c.11-.18-.48,0-.4-.16h-.19c0-.06-.06-.15,0-.14-.11-.1-.13-.07-.25-.08l0-.2c-.38-.43-.93-.52-1.36-.94a7.46,7.46,0,0,0-2.29-1.75c-1.05-.48-1.41-2-2.48-2.49,0-.05-.12-.07-.14-.05l-.71-.74-.53-.5a7.19,7.19,0,0,0-1-.82c-.69-.42-1.22-.37-.51,1.65H405a1.63,1.63,0,0,0,1,.89c-.16.24.32.35.35.51h0c.41.08.4.64.78.73,0,0-.09.06-.14,0,.2.15.5.33.4.46.46.37,1,1,1.48,1l-.05,0c.29,0,.23.16.47.25,0,0,0,.05,0,.05.29,0,.54.43.73.5L410,352l.37.29-.12-.13c.24-.2.14.38.54.44.22.23.9-.09,1.06.23.21,0-.26.1,0,.16-.1.13-.15,0-.19.15.23.08.2.36.48.46l-.06.1c.43.05.45.56.78.54.37.15,0,.45.45.5l0,.23c.12.12.22-.09.32.09-.07.08.14.21,0,.23.25.39.85.32,1.14.88.22-.1.38.17.55.1,0,.08.45.34.08.31,0,0-.07,0-.05-.06l-.1.08c.13.38.56.23.8.44-.05-.09-.16-.15,0-.17l.23.18-.11.05.34.3,0-.14c.14.17.08.4.39.38.14,0-.08-.25.13-.16a5.34,5.34,0,0,0,.78.81c.05-.14.13-.08.23-.05l-.06.11c.43.07,0,.31.38.4l.15-.11c.43,0,0,.33.54.25-.15-.07.08-.27.21-.13l-.1.08c.1,0,.15,0,.2.07s-.12.13,0,.19l-.17.08.36,0c.13.22.52.27.52.46,0,0,.37.32.56.22-.14.05.07.22-.07.3.18-.05.55,0,.61.24h0c.41.39.92.29,1.27.68.05-.14.24.06.27-.14.53.09.65.77,1.07.35.22.08.19.25.28.33h-.06a5.11,5.11,0,0,1,.8.37c.17,0,.31-.2.54,0-.13,0,0,.09.08.13-.07,0-.11,0,0,.14a.19.19,0,0,1,.1,0,0,0,0,0,1,0,0c.18,0,.17,0,.1-.05s0,0,0-.07c.11.2.48.21.42.39a10.5,10.5,0,0,0,1.37.31c0,.11-.12.14-.26.12l.31.1c-.06.12-.2,0-.3,0,.26.35.8.12,1.13.48l.13-.06v0c0-.05.15-.08.21-.07s-.11.25.1.33.47.15.71.17c-.11-.06,0-.11,0-.13s.12.17.22.16l-.05.15c0-.15.32,0,.39-.08,0,.13-.2,0-.26.1l.62.23.05,0c-.82.91-1.58,1.82-2.35,2.82-.56-.27-1.4.29-2.25,1l-1.29,1a3.75,3.75,0,0,1-1.1.59l.05-.14c-.1.1-.21.18-.31.27a12.82,12.82,0,0,1-2.48-.56,27.54,27.54,0,0,0-3.18-1.73c-.69-.37-1.47-.67-2.16-1-.42,0-.89-.45-1.35-.49l-.09-.18a.65.65,0,0,1-.44-.18l0,0c-.24,0-.43-.19-.55-.2l0,0-.24-.12.06,0a3.31,3.31,0,0,1-1-.48l0,.14c-.58-.5-1-.37-1.46-.87l0,0c-.93-.1-1.05-.88-2-1,.11,0,0-.09,0-.11-.37-.17-.75-.37-.9-.13-.25-.16-.16-.2-.14-.31-.06.1-.31,0-.51-.09h.11l-.58-.3,0,.27c-.26-.25.08-.3-.24-.42l-.1.16c-.39-.28-.48-.68-.8-1.05-1.6-1.09-3.62-1.83-4.93-3.14l0-.17c.09-.19-.59,0-.54-.22l-.22,0c0-.07-.11-.18,0-.15a.44.44,0,0,0-.33-.12L399,357c-.57-.52-1.25-.7-1.87-1.22a12.94,12.94,0,0,0-3.16-2.21c-1.37-.66-2.17-2.41-3.57-3.09,0-.06-.16-.09-.17-.07l-1-.92s-.32-.28-.75-.62a11.73,11.73,0,0,0-1.42-1c-.91-.54-1.51-.51-.17,1.87h-.06a2.9,2.9,0,0,0,1.42,1.1c-.13.27.46.43.53.62h0c.49.14.62.77,1.09.9a.13.13,0,0,1-.16,0c.27.18.66.42.58.57a6.93,6.93,0,0,0,2,1.31l-.06,0c.34,0,.31.21.62.33,0,0,0,.05,0,.06.35.05.74.54,1,.63l-.06.1.52.35-.17-.16c.24-.19.25.44.73.56.32.29,1.07,0,1.33.38.26,0-.28.07,0,.17-.09.13-.18,0-.19.14.29.12.31.43.68.57l-.06.11c.53.11.66.68,1.06.69.47.21.06.5.64.61l.07.25c.17.15.25-.07.41.14-.07.08.22.25,0,.25.37.47,1.09.45,1.56,1.11.25-.08.5.23.68.17,0,.09.63.43.16.36,0,0-.09,0-.06-.07l-.11.07c.23.43.72.32,1.06.58-.08-.1-.23-.18-.09-.19l.32.23-.12,0,.46.37v-.15c.21.21.18.44.55.47.17,0-.14-.3.13-.16a12.4,12.4,0,0,0,1.1,1c0-.15.15-.08.28,0l-.05.12c.53.12,0,.33.53.48l.17-.1c.53,0,.08.35.7.33-.19-.09.06-.28.25-.11l-.12.07c.14.05.2,0,.27.1-.11,0-.13.13.06.21l-.2.06h.45c.19.26.68.37.71.58,0,0,.51.39.73.3-.17,0,.12.25,0,.32a1,1,0,0,1,.79.34h0c.57.49,1.19.45,1.68.91,0-.15.31.09.32-.12.69.16.92.92,1.4.53.29.12.26.29.39.39h-.08a8.91,8.91,0,0,1,1.06.51c.22,0,.37-.18.68.05-.16,0,0,.1.12.16-.09,0-.14,0,0,.15a.27.27,0,0,1,.13,0s0,0,0,0c.23.07.21,0,.11,0s0,0,0-.08c.16.23.62.3.57.48.67.27,1.21.34,1.78.53,0,.11-.14.13-.32.09l.4.15c-.06.12-.25,0-.38-.07.36.41,1,.25,1.49.68l.15-.05,0,0c0-.05.17-.06.26,0s-.12.24.15.36.63.23.93.29c-.14-.08-.07-.12,0-.13s.17.2.29.2l0,.15c0-.16.42,0,.5,0,0,.14-.25,0-.32.07l.54.21c-.49.21-1,.4-1.49.57a14.79,14.79,0,0,0-4.24,1.9.92.92,0,0,1,.64-.73c-1.94,1-4.7,2.24-5.08,1.65-2,.79-4.49,1.53-6.9,2.25a7.93,7.93,0,0,0-1.77-1.14,13.94,13.94,0,0,0-1.35-.65c-.3.08-.54-.31-.87-.3l0-.15a.27.27,0,0,1-.27-.12l0,0c-.16,0-.27-.12-.35-.11l0,0-.16-.07.06,0a1.18,1.18,0,0,1-.64-.32l-.06.13c-.32-.39-.62-.23-.88-.62l0,0c-.66,0-.56-.69-1.22-.7.08,0,0-.08,0-.1-.24-.11-.47-.25-.64,0-.15-.11-.08-.16,0-.27-.07.11-.24.05-.36,0h.08l-.36-.21-.07.24c-.14-.19.12-.27-.08-.35l-.12.16c-.22-.21-.2-.55-.35-.84-.93-.8-2.29-1.23-2.95-2.23l.06-.15c.12-.17-.45,0-.35-.14H391c0-.06,0-.14,0-.13-.09-.09-.12-.07-.22-.08l0-.18c-.29-.4-.78-.47-1.12-.86-.27-.61-1.28-1.21-1.86-1.59-.9-.43-1-1.81-1.95-2.26,0-.05-.1-.06-.12,0l-.57-.68-.41-.45a5.44,5.44,0,0,0-.85-.74c-.57-.37-1.09-.32-.69,1.52l0,0c.23.45.42.7.82.8-.18.23.25.32.26.47h0c.36.08.27.59.62.67,0,0-.09.06-.14,0,.17.13.42.3.31.42.38.34.82.91,1.24.95l-.05,0c.26,0,.19.14.4.22a.18.18,0,0,0,0,0c.27,0,.43.39.6.45l-.07.09.31.26-.09-.12c.25-.19.08.35.43.4.18.21.84-.09.94.21.2,0-.24.09,0,.14-.1.12-.14,0-.18.14.19.08.12.34.37.43l-.07.1c.39,0,.34.51.64.49.32.14-.07.42.35.46v.22c.09.11.21-.09.28.08s.1.2,0,.21c.18.36.73.29.93.82.21-.1.32.15.48.08-.05.08.37.32,0,.3a0,0,0,0,1,0-.06l-.1.08c.07.36.48.21.67.4,0-.08-.13-.13,0-.16l.19.17-.11.05.27.28,0-.13c.11.16,0,.37.31.36.13,0,0-.25.14-.16a4,4,0,0,0,.6.76c.06-.13.13-.08.21-.05l-.06.1c.37.06-.06.3.29.38l.15-.11c.39,0,0,.31.45.23-.12-.06.1-.26.21-.12l-.11.07c.09,0,.14,0,.18.06s-.12.13,0,.19l-.16.07.33,0c.09.21.43.25.4.44,0,0,.3.3.48.2-.13,0,0,.21-.09.29.16,0,.48,0,.51.22h0c.33.37.79.27,1.06.64.06-.14.2.05.25-.14.46.08.49.73.92.33.18.07.13.23.21.31h-.06a3.71,3.71,0,0,1,.67.35c.15,0,.29-.2.48,0-.12.05,0,.08.06.12s-.1,0,0,.14a.19.19,0,0,1,.1,0v0c.15,0,.14,0,.09,0a.15.15,0,0,0,0-.07c.07.19.39.2.32.37a8.78,8.78,0,0,0,1.18.29c0,.11-.13.14-.24.12l.07,0a32.61,32.61,0,0,0-6,2.29l.18-.23c-1.65,1.09-2.39.76-4.19,1.44-.41-.26-.83-.11-1.46-.28-.6-.33-.65-.65-1.33-.84a6.79,6.79,0,0,0-.94-.37c-.24.13-.39-.19-.63-.11v-.14c-.08,0-.17,0-.2-.06l0,0c-.12,0-.19-.06-.26,0l0,0-.11,0,.05,0A.59.59,0,0,1,386,379l-.06.14c-.2-.3-.45-.09-.61-.39l0,0c-.51.16-.37-.51-.88-.38.06,0,0-.08,0-.11-.17-.05-.34-.12-.49.12-.11-.06,0-.13,0-.23a.19.19,0,0,1-.27.05l.06,0-.27-.11-.07.23c-.09-.13.12-.26,0-.29l-.1.17c-.16-.14-.11-.46-.2-.68-.66-.51-1.69-.59-2.14-1.32L381,376c.11-.18-.36.14-.27,0l-.13,0s0-.11,0-.12-.08,0-.17,0v-.16c-.21-.28-.59-.23-.84-.48-.17-.47-.94-.74-1.39-.91-.7-.15-.72-1.28-1.45-1.42,0,0-.08,0-.1,0l-.43-.41a3.39,3.39,0,0,0-1-.66c-.46-.15-.9,0-.67,1.44l0,0c.17.31.32.47.65.45-.17.24.19.2.18.33h0c.3,0,.2.42.48.4,0,0-.07.07-.11,0,.13.07.33.15.23.28.29.19.61.56,1,.49l-.05,0c.22-.07.15.08.32.09,0,0,0,0,0,0,.22-.06.33.22.47.23l-.06.09.23.15-.07-.08c.21-.22,0,.28.32.24.13.15.69-.28.75,0,.16-.06-.2.14,0,.14-.09.13-.11,0-.16.16.15,0,.08.26.28.28l-.07.1c.31-.05.24.37.48.28s-.09.39.24.33l0,.19c.06.08.17-.13.22,0s.06.15,0,.2c.12.28.56.09.67.51.18-.13.25.06.38,0,0,.08.27.2,0,.26,0,0,0,0,0,0l-.08.09c0,.3.35.08.49.21,0-.07-.09-.1,0-.14l.13.11-.08.06.18.19,0-.12c.07.12,0,.33.21.25s0-.21.13-.17a2.31,2.31,0,0,0,.4.56c.06-.14.11-.1.17-.1l0,.11c.28,0-.07.28.19.28l.13-.13c.3-.1,0,.28.33.11-.09,0,.1-.26.17-.15l-.09.09c.07,0,.11,0,.13,0s-.1.14,0,.16l-.13.1.26-.1c.05.17.31.14.27.31,0,0,.21.22.35.09-.1.07,0,.18-.09.28.13-.08.37-.06.38.1h0c.22.27.58.09.75.38.06-.14.16,0,.21-.18.34,0,.31.59.67.13.13,0,.08.19.13.25h-.05a1.44,1.44,0,0,1,.48.2c.11,0,.24-.24.36-.11-.09.07,0,.09,0,.11s-.07,0,0,.13a.09.09,0,0,1,.07,0v0c.11,0,.11,0,.07-.06s0,0,0-.07c0,.17.28.13.22.3a5.12,5.12,0,0,0,.85.07.18.18,0,0,1-.19.14l.18,0c-.05.12-.13,0-.19,0,.07.18.27.13.43.14-1.94.53-4.17.85-5.28,1.26l-.21-.41-4.18,1,1.59-.23c-.23,1-2.05.42-4.19.72a1.53,1.53,0,0,1-.41-.05c-.56-.29-.61-.61-1.26-.74a5,5,0,0,0-.9-.29c-.22.14-.37-.15-.6-.06v-.13c-.08,0-.16,0-.19,0l0,0c-.12.05-.19,0-.24,0v0l-.1,0,0,0a.5.5,0,0,1-.43-.13l-.05.14c-.21-.27-.43,0-.6-.32l0,0c-.47.21-.38-.46-.85-.27.06,0,0-.08,0-.11-.16,0-.33-.08-.45.18-.11,0,0-.12,0-.23a.18.18,0,0,1-.25.09l.06,0-.26-.07-.05.24c-.1-.13.09-.28-.06-.29l-.08.18c-.16-.11-.14-.43-.25-.64-.66-.41-1.63-.33-2.13-1l0-.14c.08-.2-.32.19-.26,0l-.11.05s0-.1,0-.13-.09,0-.17,0v-.15c-.23-.24-.58-.12-.84-.32-.22-.42-1-.54-1.42-.61-.67,0-.86-1.09-1.57-1.06,0,0-.08,0-.09,0l-.46-.31s-2.29-1.43-1.42,1.14l0,0c.21.25.36.37.67.27-.12.27.2.15.22.27l0,0c.27-.1.25.35.5.27,0,0-.06.08-.1.06.14,0,.33.07.25.22.3.11.65.4,1,.26l0,0c.19-.1.15.05.3,0v0c.19-.1.33.15.46.13l-.05.1.23.09-.07-.06c.17-.26.08.26.33.17.13.11.6-.41.69-.19.14-.09-.18.17,0,.13-.07.14-.1.06-.13.19.14,0,.1.24.29.21l-.06.12c.28-.11.26.31.48.18s-.05.39.25.27v.19c.07.07.15-.16.21,0s.07.14,0,.2c.14.25.53,0,.67.38.15-.15.24,0,.35-.09,0,.08.26.14,0,.24,0,0-.05,0,0,0l-.07.1c.05.28.34,0,.47.13,0-.06-.09-.08,0-.14l.13.09-.07.07.19.16,0-.13c.08.11,0,.32.22.22s0-.2.1-.19a1.88,1.88,0,0,0,.42.48c0-.14.09-.11.15-.11l-.05.11c.27-.06,0,.28.2.25l.11-.14c.27-.15,0,.27.31.05-.08,0,.08-.26.15-.17l-.07.1c.06,0,.1,0,.12,0s-.09.15,0,.17l-.12.11.24-.14c.05.17.29.1.27.28,0,0,.2.18.33,0-.09.09,0,.19-.07.29.11-.09.34-.1.35.05h0c.21.25.54,0,.71.29,0-.14.14,0,.19-.19.32-.06.31.54.62.05.13,0,.08.18.13.23l0,0a1.39,1.39,0,0,1,.45.15c.1,0,.21-.26.33-.14-.08.08,0,.08,0,.1s-.06,0,0,.13a.15.15,0,0,1,.07-.05s0,0,0,0,.1,0,.06-.07,0,0,0-.07c0,.11.13.12.18.17-2.5.86-4.77,3.33-7.54,3.31-1.33.82,1.1-1.14-1-.32-.18-.62.92-.58.29-1-1.92.63-3.37.09-5.62.73a4,4,0,0,0-.1-.5l0,0c-.13-.16-.22-.22-.41,0,.08-.28-.12-.07-.12-.18v0c-.18.17-.14-.24-.3-.09,0,0,0-.1.07-.09s-.2,0-.14-.13c-.18,0-.37-.19-.58,0l0,0c-.13.14-.08,0-.18.05s0,0,0,0-.2-.06-.28,0l0-.1-.14,0,0,0c-.15.27,0-.22-.19-.08-.07-.08-.45.48-.48.31-.1.1.15-.19,0-.13.07-.14.08-.07.12-.19s0-.2-.15-.14l.05-.11c-.2.15-.11-.25-.27-.09s.1-.36-.12-.2l.05-.17s-.14.16-.15.07,0-.11.06-.18-.34.07-.34-.25c-.13.16-.14,0-.25.13.05-.08-.13-.1.05-.22,0,0,0,0,0,0l.07-.1c0-.24-.21,0-.27-.06s0,.06,0,.12l-.06-.06.07-.08-.08-.12-.05.12c0-.09.08-.28-.08-.17s0,.18-.12.18a1.2,1.2,0,0,0-.13-.39c-.07.12-.09.1-.13.11l.07-.11c-.19.08.12-.25-.05-.19l.05-.07-.17.2c-.22.14.1-.25-.18,0,.05,0-.14.23-.16.16l.08-.09s-.07,0-.08,0,.11-.13.06-.14l.11-.11-.19.13c0-.14-.16-.07-.08-.22s-.07-.15-.2,0c.09-.08,0-.16.15-.26-.11.09-.26.11-.21,0h0c0-.21-.33,0-.34-.23-.08.11-.1,0-.2.16s0-.46-.37-.05c-.08,0,0-.16,0-.2l0,0a.39.39,0,0,1-.22-.13c-.07,0-.25.2-.27.1s.05-.07,0-.09.06,0,.07-.11l-.06,0,0,0c-.07,0-.08,0-.07.05l0,.05c.05-.14-.12-.09,0-.23-.14-.08-.36,0-.5-.06a.23.23,0,0,1,.18-.11l-.09,0c.09-.1.09,0,.13,0,.07-.24-.31,0-.27-.24l-.09.05h0a.26.26,0,0,1-.14.07c.07-.1.19-.19.14-.23s-.15-.06-.24-.07,0,.08-.08.1,0-.12,0-.1l.11-.12c-.1.12-.17.05-.23.09s.11,0,.18-.09l-.15-.12c-.14,0-.1.11-.23.18s-.18,0-.17-.11l-.08.11c-.16,0-.2-.08-.15-.23-.72,0-1.05.26-1.19.48a.58.58,0,0,0-.09.42c0,.49.46.36.84.6s.12.59.49.79a2,2,0,0,0,.49.34c.2-.09.19.16.39.1l-.05.11c.07,0,.13,0,.11.05l0,0c.1,0,.11,0,.16,0l0,0,.06,0,0,0a.23.23,0,0,1,.25.13l.09-.12c0,.24.28.05.29.3l0,0c.4-.18.11.41.5.24-.05,0,0,.07-.05.1s.2.07.37-.17c.05.05,0,.11-.06.21.07-.11.15-.11.2-.09l-.05,0,.16.05.1-.21c0,.1-.14.25,0,.25l.11-.16c.07.09,0,.38,0,.56.36.34,1.05.17,1.26.69l-.05.14c-.1.19.26-.22.18,0l.09-.06s0,.09,0,.12.06,0,.12,0l0,.14c.12.18.38,0,.53.16s.24.28.45.3c-2,.32-3.86.11-5.37.51a.31.31,0,0,0-.43,0c.07-.28-.17-.09-.19-.2v0c-.21.17-.23-.27-.42-.12,0,0,0-.1.07-.09s-.26,0-.22-.15c-.24,0-.54-.22-.77,0l0,0c-.14.14-.12,0-.24,0v-.05c-.15.14-.28-.06-.37,0l0-.11-.19,0,.06.05c-.13.28-.08-.23-.28-.09-.11-.08-.45.52-.54.33-.1.12.13-.2,0-.13,0-.15.07-.08.09-.2-.12,0-.1-.21-.24-.15l0-.11c-.22.16-.22-.25-.39-.08s0-.38-.21-.21v-.18c-.06,0-.11.18-.16.08s-.07-.11,0-.19c-.12-.22-.42.1-.55-.24-.11.18-.19,0-.27.16,0-.08-.22-.09,0-.23,0,0,0,0,0,0l.05-.11c-.05-.26-.27,0-.38,0s.08.06,0,.12l-.11-.05.05-.09-.15-.12,0,.13c-.06-.09,0-.3-.17-.16s0,.19-.08.19a1.54,1.54,0,0,0-.34-.38c0,.14-.07.12-.12.13l0-.12c-.21.11,0-.28-.16-.2l-.08.16c-.22.19,0-.27-.26,0,.07,0-.06.27-.11.19l.05-.11s-.07.05-.09,0,.07-.16,0-.16l.09-.13-.19.17c0-.15-.24,0-.22-.22,0,0-.16-.14-.26,0,.07-.1,0-.17.06-.29-.1.11-.27.16-.29,0h0c-.17-.21-.43.06-.57-.17,0,.14-.11,0-.15.21-.25.11-.24-.48-.49,0-.1,0-.07-.16-.11-.21l0,0a.71.71,0,0,1-.36-.08c-.08,0-.18.28-.27.18.07-.09,0-.08,0-.1s.05,0,0-.12l-.06.05v0c-.08,0-.08,0-.05.07s0,0,0,.06c0-.15-.21-.06-.16-.23a3.29,3.29,0,0,0-.64.1.22.22,0,0,1,.15-.18h-.14c0-.12.1-.05.14-.06-.08-.25-.37.1-.48-.15l-.07.09v0a.22.22,0,0,1-.11.12c0-.12.09-.25,0-.27s-.21,0-.32,0c0,0,0,.09,0,.13s0-.13-.08-.1l0-.15c0,.15-.16.11-.2.17,0-.12.1-.07.14-.15L339,385c-.13.08,0,.15-.12.26s-.2.08-.26,0l0,.14c-.19.05-.27,0-.33-.16-1.51.69-.74,1.39-.74,1.39.35.45.71.14,1.28.22s.48.52,1,.58a3,3,0,0,0,.73.17c.17-.16.3.1.48,0v.13c.07,0,.13-.07.15,0v0c.1-.06.15,0,.2,0v0h.08l0,0a.35.35,0,0,1,.36.06l0-.14c.17.23.35,0,.49.22v0c.37-.27.31.39.69.13,0,0,0,.08,0,.11s.27,0,.36-.24c.09,0,0,.1,0,.21a.16.16,0,0,1,.2-.12l0,0,.21,0,0-.24c.09.1-.06.28.06.26l.06-.18c.13.08.12.39.21.58.55.27,1.34,0,1.77.52v0a6,6,0,0,0-2,.52l-1.5-.49c-1.56.09-1,1-2.77.85.05-.43-2.22-.06-1.26-.59a12.6,12.6,0,0,0-1.94.08c-.06,0-.14,0-.25,0h0c.1-.23-.11-.08-.11-.18l0,0c-.2.14-.11-.27-.29-.14,0,0,.05-.09.08-.08s-.21,0-.13-.15c-.18-.05-.35-.24-.59-.07l0,0c-.15.12-.08,0-.19,0s0,0,0,0c-.15.11-.19-.09-.28-.05l.05-.1-.13,0,0,0c-.18.25,0-.22-.18-.11-.06-.09-.51.43-.52.25-.12.09.16-.18,0-.12.09-.14.09-.07.14-.19-.1,0,0-.2-.14-.15l.06-.11c-.22.13-.08-.25-.27-.12s.15-.35-.09-.21l.05-.17c0-.05-.14.15-.14,0s0-.11.07-.17c0-.21-.35,0-.33-.29-.15.14-.15,0-.26.1.05-.07-.13-.11.06-.21,0,0,0,0,0,0l.08-.09c.06-.24-.22,0-.27-.09s0,.06,0,.12l-.06-.07.07-.07-.07-.13-.06.11c0-.09.1-.28-.07-.18s-.05.18-.13.17a1.37,1.37,0,0,0-.1-.41c-.08.12-.1.1-.15.1l.08-.1c-.2.07.13-.24,0-.2l.06-.06-.19.18c-.23.13.12-.24-.18-.05.05,0-.16.23-.17.15l.09-.08s-.08,0-.08,0,.11-.13.07-.15l.11-.09-.2.11c0-.14-.16-.08-.07-.23s-.06-.16-.21,0c.1-.07.07-.15.17-.24-.11.07-.27.08-.21-.05h0c0-.21-.34,0-.34-.26-.09.11-.1,0-.21.15s0-.47-.38-.08c-.07,0,0-.16,0-.2l0,0a.41.41,0,0,1-.22-.15c-.07,0-.26.2-.28.09s.05-.07,0-.09.06,0,.07-.1l-.06,0,0,0c-.07,0-.09,0-.08.05l0,.05c.06-.14-.12-.1,0-.24-.14-.08-.36,0-.51-.08a.29.29,0,0,1,.19-.11l-.09,0c.09-.1.09,0,.13,0,.07-.23-.32,0-.28-.25l-.09,0h0a.29.29,0,0,1-.15.07c.07-.1.2-.19.14-.23s-.14-.07-.24-.08,0,.08-.08.09.05-.11,0-.1l.11-.11c-.1.11-.17,0-.23.08s.11,0,.18-.08L329,384c-.13,0-.1.12-.22.18s-.19,0-.17-.11l-.09.11c-.16,0-.2-.08-.15-.24-.73.05-1.06.26-1.19.47a.58.58,0,0,0-.1.43c0,.49.46.36.84.6.22.33.11.6.47.81a2.41,2.41,0,0,0,.48.36c.21-.09.19.17.39.11l-.06.11c.07,0,.13,0,.12.06l0,0c.1,0,.11.05.16,0l0,0,.06,0-.05,0a.23.23,0,0,1,.25.15l.09-.12c0,.25.28.06.28.32l0,0c.41-.15.09.42.49.28-.05,0,0,.06-.07.09s.2.08.38-.14c.06.05,0,.11-.07.2.08-.1.16-.1.21-.07l-.05,0,.15.07.12-.2c0,.1-.16.23-.06.24l.12-.15c.07.1-.06.37,0,.56.33.36,1,.26,1.2.8l-.07.13c-.11.18.28-.19.19,0l.09-.05s0,.09-.05.12.05,0,.12,0l0,.14c.1.19.37.07.51.22a.39.39,0,0,0,.25.29l-1.18.23-.42.07a.14.14,0,0,0-.17,0s0-.09.06-.09c-.12,0-.29,0-.27-.12-.28,0-.65-.16-.88.07l0,0c-.14.16-.14,0-.27.07s0,0,0-.05c-.15.15-.33,0-.43,0V390l-.22,0,.08,0c-.1.29-.12-.22-.33-.07-.13-.08-.46.53-.57.35-.12.12.12-.21,0-.13,0-.16.08-.09.08-.22-.12,0-.13-.2-.29-.13l0-.12c-.24.17-.28-.25-.45-.08s0-.39-.27-.21l0-.18c-.07-.05-.12.18-.18.08s-.08-.12,0-.2c-.15-.22-.47.1-.64-.26-.12.18-.21,0-.3.16,0-.09-.25-.1,0-.24,0,0,0,0,0,0l.06-.11c-.07-.26-.3,0-.43-.06,0,.06.09.07,0,.13l-.12-.06.06-.09-.18-.13v.13c-.08-.1,0-.31-.21-.18s0,.19-.08.19a2,2,0,0,0-.39-.43c0,.14-.08.12-.13.13l0-.12c-.24.09,0-.28-.18-.22l0-.08-.15.23c-.25.16,0-.28-.28,0,.07,0-.08.27-.14.19l.07-.11c-.06,0-.09.05-.12,0s.09-.15,0-.16l.11-.12-.22.14c0-.16-.26-.08-.23-.25,0,0-.18-.17-.3,0,.09-.08,0-.17.08-.28-.11.09-.31.12-.31,0h0c-.17-.24-.48,0-.61-.28-.06.14-.13,0-.19.19-.3.06-.21-.54-.56-.07-.11,0-.05-.18-.09-.24h0a1.31,1.31,0,0,1-.39-.16c-.09,0-.23.24-.32.11.09-.07,0-.08,0-.11s.06,0,0-.12l-.07,0v0c-.09,0-.09,0-.07.06s0,0,0,.06c0-.16-.22-.12-.14-.28a6.34,6.34,0,0,0-.72-.08.19.19,0,0,1,.19-.13l-.15-.05c.07-.12.11,0,.17,0,0-.28-.43,0-.51-.3l-.09.07v0a.25.25,0,0,1-.14.08c0-.11.14-.23.05-.28s-.23-.07-.36-.09c0,.05,0,.1-.05.12s0-.14-.07-.12l.08-.14c-.06.14-.2.06-.25.1s.12,0,.18-.1l-.27-.16c-.17,0-.07.13-.2.21s-.24,0-.28-.13l-.05.13c-.22,0-.3-.1-.32-.29-.91,0-1.22.3-1.28.56a.73.73,0,0,0,.11.51c.29.6.78.45,1.42.74.46.4.46.71,1.06.95a5.28,5.28,0,0,0,.83.4c.23-.11.35.19.58.11v.13c.08,0,.15,0,.17.06l0,0c.12,0,.18,0,.24,0l0,0,.1,0,0,0a.54.54,0,0,1,.42.15l.05-.14c.19.27.41.05.56.34l0,0c.46-.2.37.45.82.26-.05,0,0,.08,0,.11.16,0,.32.07.44-.19.1,0,.05.12,0,.23a.2.2,0,0,1,.24-.1l-.06,0,.25.06,0-.24c.09.11-.08.28.06.27l.07-.18c.16.11.15.42.26.63.53.28,1.21.21,1.75.44-.48,0-1-.05-1.45-.1-1,.93-3.68.69-4.46,1.39a3.89,3.89,0,0,0-1.46-.1c-.07-.07,0-.28-.2-.22,0,0,.07-.08.09-.06s-.24-.06-.14-.2a2,2,0,0,1-.23-.14c.15,0,.26,0,.25.1l.31-.51a6.62,6.62,0,0,0-1.69-.16s0,0-.08,0-.07,0-.14,0l-.4,0h0c.1-.13.1-.05.16-.17-.12,0,0-.22-.17-.2l.08-.1c-.25.09-.11-.29-.32-.18s.15-.35-.12-.25l.06-.17c0-.06-.16.14-.17,0s0-.13.08-.18c0-.23-.41,0-.41-.37-.16.13-.17,0-.29.07.05-.07-.16-.14.05-.22,0,0,0,0,0,0l.09-.08c0-.26-.25,0-.33-.14,0,.05.05.07,0,.12l-.08-.08.09-.07-.1-.15-.06.11c0-.1.09-.29-.1-.2s0,.18-.13.16a1.44,1.44,0,0,0-.17-.45c-.08.12-.11.09-.15.09l.07-.1c-.22,0,.12-.25-.08-.23l.07-.06-.19.18c-.26.11.1-.25-.22-.08.06,0-.15.24-.17.15l.08-.08s-.08,0-.09,0,.12-.13.06-.15l.12-.1-.22.11c0-.15-.19-.11-.12-.26s-.09-.18-.24-.06c.1-.07.05-.17.16-.26-.12.08-.3.08-.26-.07h0c-.08-.24-.4-.07-.44-.32-.08.12-.11,0-.21.16-.26,0,0-.52-.45-.11-.08,0,0-.17,0-.22h0a.72.72,0,0,1-.29-.17c-.08,0-.25.21-.3.09s.05-.08,0-.1.06,0,.06-.11l-.07,0,0,0c-.08,0-.09,0-.07.05s0,0,0,.06c0-.15-.16-.11,0-.26a2.54,2.54,0,0,0-.6-.08.23.23,0,0,1,.19-.13l-.12-.05c.09-.1.1,0,.15,0,0-.26-.37,0-.38-.28l-.09.07v0a.25.25,0,0,1-.14.08c.05-.11.17-.21.1-.26s-.19-.07-.29-.07,0,.08-.07.1,0-.13,0-.11l.09-.13c-.07.13-.18.06-.23.11.05-.11.11,0,.17-.11l-.21-.13c-.14,0-.08.12-.2.21s-.2,0-.22-.12l-.06.13c-.19,0-.25-.08-.24-.25-1.57.22-1.14,1.08-1.14,1.08.15.52.58.33,1.06.57.31.33.24.62.68.82a2.55,2.55,0,0,0,.59.37c.21-.11.23.17.43.11l0,.12c.07,0,.13,0,.12.06l0,0c.11,0,.13.06.18,0l0,0,.07,0,0,0a.29.29,0,0,1,.29.16l.08-.12c.07.26.32.07.36.34l0,0c.43-.15.15.44.57.31-.05,0,0,.07-.06.09.12,0,.23.1.41-.12.06.06,0,.11-.06.21.08-.1.17-.1.22-.06l-.05,0,.17.08.12-.21c0,.12-.16.24-.05.26l.12-.16c.09.12,0,.4,0,.6.39.41,1.17.39,1.37,1h0a19.68,19.68,0,0,1-4.23.8c.87.1,2,0,1.27.37l-1.17,0c-.15,0-.37.05-.46-.22-.14.16-.21,0-.32.11,0-.08-.23-.12,0-.24,0,0,0,0,0,0l.07-.1c0-.27-.3,0-.42-.11,0,.06.08.07,0,.13l-.12-.08.07-.07-.15-.15,0,.13c-.06-.11,0-.32-.17-.21s0,.2-.11.19a2.11,2.11,0,0,0-.33-.47c0,.14-.09.11-.15.11l.06-.11c-.24.07.07-.27-.16-.24l.06-.06-.17.2c-.26.14.05-.27-.27-.06.07,0-.1.26-.16.17l.08-.1c-.05,0-.09,0-.11,0s.1-.14,0-.16l.11-.11-.22.13c0-.17-.25-.11-.21-.28,0,0-.15-.18-.29,0,.1-.08,0-.18.11-.28-.11.09-.32.09-.3-.06h0c-.14-.25-.47-.06-.57-.33-.07.13-.13,0-.2.17-.31,0-.16-.55-.55-.12-.11,0,0-.18-.06-.24h0a1.06,1.06,0,0,1-.37-.19c-.1,0-.25.22-.33.09.1-.07,0-.08,0-.11s.06,0,0-.12l-.07,0s0,0,0,0-.09,0-.07,0l0,.06c0-.16-.2-.13-.11-.29a4.74,4.74,0,0,0-.7-.13.18.18,0,0,1,.19-.12l-.14-.06c.08-.11.12,0,.17,0,0-.28-.42,0-.47-.33l-.1.06v0a.24.24,0,0,1-.16.08c0-.12.17-.22.08-.27s-.22-.1-.34-.12,0,.09-.07.11,0-.14-.06-.12l.1-.13c-.08.13-.21,0-.26.08.05-.11.12,0,.19-.09l-.26-.18c-.16,0-.08.13-.21.21s-.24,0-.27-.16l-.06.13c-.21,0-.29-.12-.29-.31-.9,0-1.22.23-1.3.49a.75.75,0,0,0,.07.52c.24.6.73.48,1.33.8.42.42.39.73,1,1a4,4,0,0,0,.77.45c.23-.09.32.21.55.15v.14c.08,0,.16,0,.17.06l0,0c.12,0,.17.07.23.05l0,0,.09,0,0,0a.52.52,0,0,1,.39.18l.07-.13a.31.31,0,0,0,.21.17l.28.24h0l.27.22c-2-.17-2.73-1-4.92-.18-.91.41,1.42.57.24.79-.05-.07-.05-.23-.18-.14s.06-.09.08-.08-.21,0-.13-.15c-.18-.05-.36-.24-.6-.07l0,0c-.15.12-.09,0-.2,0s0,0,0,0c-.16.12-.2-.09-.29-.06l.05-.09-.13-.06,0,0c-.18.25,0-.22-.19-.11,0-.09-.52.41-.53.22-.12.09.17-.16.05-.12.09-.13.08-.06.14-.17-.1,0,0-.21-.14-.17l.07-.1c-.23.11-.08-.27-.27-.14s.16-.34-.09-.22l.07-.16c0-.06-.16.14-.16,0s0-.12.09-.17c0-.21-.36,0-.31-.32-.17.14-.15,0-.28.09.06-.08-.12-.13.08-.21,0,0,0,0,0,0l.09-.09c.08-.23-.21,0-.27-.11s0,.07,0,.11l-.06-.07.09-.07-.06-.13-.08.11c0-.1.13-.27-.05-.19s-.07.17-.15.15a1.2,1.2,0,0,0-.07-.42c-.09.11-.11.09-.15.09l.09-.09c-.21,0,.16-.23,0-.21l.06-.06-.2.16c-.25.1.14-.22-.18-.07,0,0-.18.21-.19.13l.1-.07s-.09,0-.08,0,.13-.12.08-.14l.13-.08-.22.09c.05-.14-.15-.11,0-.25s0-.16-.2-.06c.1-.06.08-.14.2-.22-.13.06-.28.05-.21-.08h0c0-.22-.33-.09-.3-.32-.11.1-.1,0-.23.12s.12-.46-.37-.15c-.07,0,.06-.15.06-.19h0c-.12-.08-.15-.1-.2-.19s-.29.15-.29,0,.06-.06,0-.09.06,0,.09-.09a.11.11,0,0,1-.07,0h0c-.06,0-.08,0-.08,0l-.05.05c.08-.13-.1-.13,0-.24-.13-.12-.36-.1-.49-.19a.27.27,0,0,1,.21-.07l-.09-.06c.12-.08.1,0,.14,0,.11-.22-.32-.08-.23-.31l-.1,0v0a.37.37,0,0,1-.16,0c.09-.08.23-.15.19-.2s-.13-.1-.22-.13-.06.07-.1.07.06-.1,0-.1l.13-.09c-.12.09-.18,0-.24,0,.09-.08.11,0,.19,0l-.13-.17c-.14,0-.12.09-.26.13s-.18,0-.14-.16l-.11.09c-.16-.06-.18-.14-.09-.28-.73-.15-1.11,0-1.29.14a.61.61,0,0,0-.19.41c-.08.51.38.5.72.85.16.39,0,.63.33.94a2.51,2.51,0,0,0,.44.48c.22-.05.16.21.37.19l-.07.11c.08,0,.14,0,.11.08l0,0c.11,0,.11.07.16.07l0,0,.06.05-.05,0a.26.26,0,0,1,.24.19l.11-.1c0,.26.28.12.25.38l0,0c.43-.09.05.44.47.36-.05,0,0,.06-.07.09s.2.11.4-.08c.05.06,0,.11-.09.19.09-.09.17-.08.22,0h-.05l.15.09.14-.19c0,.11-.18.22-.08.24l.13-.14c.07.12-.09.38-.1.57.32.42,1.06.4,1.21,1l0,.07-1.55-.11-2.66-.15c-.74-.05-1.47-.08-2.18-.11l0-.15c-.11-.06-.16.17-.27,0,.05-.1-.14-.14,0-.21-.24-.26-.69,0-1-.42-.16.16-.32,0-.44.1,0-.09-.4-.17-.1-.27,0,0,.05,0,0,0l.07-.1c-.14-.3-.46,0-.67-.17.05.07.15.09.06.15l-.2-.1.08-.08-.29-.18v.14c-.13-.12-.1-.35-.34-.25s.08.22-.1.19a4.48,4.48,0,0,0-.65-.55c0,.14-.1.1-.19.1l0-.12c-.33,0,0-.29-.31-.28l.06-.07-.17.21c-.35.12,0-.3-.44-.11.12,0-.06.28-.17.17l.09-.1c-.09,0-.13,0-.17,0s.1-.15,0-.18l.13-.11-.29.11c-.1-.19-.41-.16-.4-.34,0,0-.29-.23-.45-.1.12-.07-.05-.19.06-.29-.14.08-.44.05-.47-.12h0c-.3-.31-.72-.14-1-.46,0,.13-.19,0-.23.16-.43,0-.44-.66-.83-.22-.17-.05-.12-.21-.19-.28h.05a2.25,2.25,0,0,1-.6-.28c-.14,0-.28.21-.44,0,.11-.06,0-.09-.05-.13s.09,0,0-.13a.11.11,0,0,1-.09,0s0,0,0,0-.13,0-.08.05,0,0,0,.07c-.06-.19-.35-.19-.27-.36-.38-.17-.73-.14-1.06-.27,0-.1.13-.12.23-.1l-.22-.1c.07-.12.15,0,.23,0-.13-.33-.62-.12-.8-.47l-.12.05v0a.26.26,0,0,1-.19.06c0-.13.14-.23,0-.31s-.35-.15-.53-.19c.07.06,0,.1-.05.12s-.05-.17-.13-.16l.08-.14c-.05.14-.27,0-.33.05,0-.12.16,0,.23-.08l-.43-.25c-.22,0-.06.14-.21.21s-.34-.06-.44-.24l0,.15a.63.63,0,0,1-.53-.42c-1.24-.17-1.57.07-1.58.36a1.15,1.15,0,0,0,.3.64c.56.78,1.18.7,2.14,1.19.75.56.82.92,1.71,1.33a13.84,13.84,0,0,0,1.27.65c.29-.08.52.28.83.25l0,.15c.11,0,.22,0,.27.1l0,0c.16,0,.27.1.35.09l0,0,.15.06-.05,0a1.19,1.19,0,0,1,.63.26l.05-.14c.32.34.6.15.87.5l0,0c.62-.12.61.58,1.24.48-.08,0,0,.07,0,.1.23.07.47.16.59-.1.15.07.1.14.07.24a6.85,6.85,0,0,0-1.19.12l.31-.35-.93,1.06c-3.2,1-1.73-1-5.29.35,1.41-.07.67,1.1-1.07.87l.44-.48a7.31,7.31,0,0,1-1.92.19c.57-.26.3-.7-1.11-.63l.95-.59-2.67.86a9.45,9.45,0,0,0-2.2-.24,1.06,1.06,0,0,0-.81-.14l0,0c-.19.1-.16,0-.33,0v-.05c-.2.1-.38-.15-.51-.13l0-.11-.26-.1.08.07c-.17.26-.1-.26-.37-.18-.15-.12-.63.39-.74.17-.15.08.18-.17,0-.14.07-.14.11-.06.13-.19-.15,0-.12-.25-.32-.23l.05-.11c-.3.1-.29-.34-.52-.22s0-.4-.29-.3v-.19c-.07-.07-.16.14-.22,0s-.08-.14,0-.2c-.14-.27-.56-.05-.71-.46-.17.14-.26-.05-.38.06,0-.08-.29-.18,0-.26,0,0,0,0,0,0l.08-.09c0-.29-.36-.07-.5-.2,0,.07.09.1,0,.14l-.14-.1.08-.07-.19-.19,0,.13c-.07-.12,0-.33-.22-.25s0,.21-.12.17a2.91,2.91,0,0,0-.41-.55c-.06.13-.11.09-.17.08l.06-.1c-.29,0,.07-.28-.2-.29l.07-.06-.19.19c-.31.09,0-.28-.34-.12.09,0-.11.25-.17.15l.08-.09c-.06,0-.11,0-.13,0s.11-.14,0-.17l.13-.09L264,389c0-.19-.31-.17-.26-.34,0,0-.19-.23-.35-.11.11-.06,0-.19.12-.27-.14.06-.38,0-.37-.14h0c-.19-.3-.57-.16-.71-.47-.07.13-.15,0-.23.15-.35,0-.22-.63-.65-.23-.13-.05-.05-.2-.09-.27h0a1.86,1.86,0,0,1-.44-.28c-.11,0-.28.19-.38,0,.11-.05,0-.08,0-.12s.07,0,0-.12l-.08,0s0,0,0,0-.11,0-.08.05a.08.08,0,0,0,0,.06c0-.17-.26-.18-.16-.33a6.63,6.63,0,0,0-.83-.27.18.18,0,0,1,.22-.1l-.17-.09c.08-.1.13,0,.19,0,0-.32-.5-.13-.58-.45l-.11,0v0a.2.2,0,0,1-.17.06c0-.11.17-.21.06-.28s-.26-.15-.41-.19c.05.07,0,.1-.06.11s0-.15-.08-.15l.09-.12c-.07.13-.23,0-.29.05.05-.12.14,0,.21-.07l-.32-.24c-.18,0-.07.13-.21.19s-.28-.05-.33-.21l-.06.13a.42.42,0,0,1-.37-.39c-1-.15-1.37.07-1.44.34a.93.93,0,0,0,.13.58c.33.71.88.64,1.59,1.09.52.53.51.86,1.18,1.25a7.91,7.91,0,0,0,.93.62c.26-.06.38.28.65.25v.15c.09,0,.18,0,.2.1l0,0c.14,0,.2.1.27.1l0,0,.11.06,0,0a.76.76,0,0,1,.47.26l.07-.13c.19.34.47.16.62.5l0,0c.54-.09.38.56.92.49-.07,0,0,.08,0,.1.18.07.36.17.51-.07.12.08.05.14,0,.24a.21.21,0,0,1,.29,0l-.06,0,.28.13.07-.24c.11.15-.12.27.05.3l.1-.16c.17.15.12.47.23.71.71.54,1.75.62,2.33,1.27-1.38-.1-3.59-.16-4.28.31.9-.43-1.53-.69-.82-1.21-1.16.48-4.57.79-5.9.18l.26-.05a24.61,24.61,0,0,0-3.19-.32l-.09-.1,0,.09h0c0-.1,0-.26-.14-.17s-.05.13-.07.16h-.06a1.48,1.48,0,0,0-.25-.44c-.06.13-.1.1-.15.11l.06-.11c-.23.06.09-.27-.12-.24l-.12.14c-.25.13.07-.27-.25-.06.07,0-.11.25-.15.16l.08-.09c-.06,0-.09,0-.11,0s.11-.15,0-.16l.11-.11-.22.13c0-.16-.22-.1-.17-.27,0,0-.13-.18-.27,0,.1-.08,0-.17.12-.27-.11.08-.3.09-.28-.06h0c-.12-.24-.44,0-.53-.29-.06.13-.12,0-.19.17-.28,0-.14-.52-.5-.07-.1,0,0-.18-.06-.23h0a1,1,0,0,1-.34-.16c-.08,0-.23.23-.3.12.09-.07,0-.08,0-.11s.07,0,.05-.12a.13.13,0,0,1-.06.05,0,0,0,0,1,0,0c-.09,0-.09,0-.07.06a.08.08,0,0,0,0,.06c0-.15-.2-.1-.11-.26-.22-.09-.46,0-.66,0a.2.2,0,0,1,.18-.14l-.13,0c.07-.11.1,0,.15,0,0-.27-.39,0-.45-.25l-.09.07v0a.22.22,0,0,1-.14.09c0-.11.14-.23.06-.27s-.21-.06-.33-.06c0,.05,0,.09-.05.12s0-.14-.06-.11l.08-.14c-.07.14-.19.07-.24.12,0-.11.11-.05.17-.12l-.25-.12c-.15.05-.06.13-.18.23s-.22,0-.26-.11l0,.14c-.2,0-.28-.06-.3-.24-1.65.34-1,1.2-1,1.2.26.52.69.3,1.24.5.4.33.38.63.88.81a3.72,3.72,0,0,0,.7.33c.21-.12.28.16.49.08l0,.13c.07,0,.14,0,.15.05h0a23.66,23.66,0,0,1-5.56-.41c.15.6-2.1.1-1.68.83,0,0-.1-.08-.15-.07l.05-.1-.19-.08.06.06c-.18.25,0-.24-.27-.14-.1-.11-.56.4-.61.2-.13.09.17-.17,0-.12.07-.14.09-.07.13-.19-.13,0-.06-.22-.23-.19l.06-.11c-.25.11-.18-.3-.38-.17s.08-.37-.19-.25l0-.18c0-.06-.15.15-.18,0s0-.12,0-.19c-.08-.23-.45,0-.52-.35-.15.15-.19,0-.31.1,0-.08-.2-.14,0-.24,0,0,0,0,0,0l.08-.1c0-.27-.29,0-.39-.12,0,.06.07.07,0,.13l-.1-.08.07-.08-.13-.14,0,.12c0-.11,0-.31-.16-.21s0,.2-.11.18a1.83,1.83,0,0,0-.28-.46c-.06.13-.1.11-.15.11l.06-.11c-.24.06.08-.27-.14-.23l-.11.13c-.25.14.06-.26-.26-.06.07,0-.11.26-.15.17l.08-.1s-.09,0-.11,0,.1-.14,0-.16l.12-.11-.22.13c0-.16-.24-.1-.19-.26,0,0-.14-.18-.27,0,.09-.08,0-.18.11-.28-.11.09-.31.1-.29-.06h0c-.13-.25-.45,0-.55-.3-.06.13-.12,0-.19.18-.28.05-.16-.53-.52-.07-.1,0,0-.18-.06-.23h0a1.14,1.14,0,0,1-.35-.16c-.09,0-.23.23-.31.12.09-.07,0-.08,0-.11s.06,0,0-.12a.15.15,0,0,1-.07,0l0,0c-.09,0-.1,0-.07.06a.08.08,0,0,0,0,.06c0-.15-.2-.1-.12-.26-.23-.09-.47,0-.67-.05a.19.19,0,0,1,.17-.14l-.13,0c.06-.11.1,0,.15,0,0-.27-.4,0-.47-.25l-.09.07v0a.2.2,0,0,1-.14.09c0-.11.14-.23.05-.27s-.21-.06-.33-.06c0,.05,0,.1,0,.12s0-.14-.07-.11l.08-.14c-.06.14-.19.08-.24.12s.11-.05.17-.12l-.26-.12c-.15.05-.06.13-.17.23s-.23,0-.27-.1l0,.13c-.21,0-.29-.05-.31-.23-1.68.34-1,1.21-1,1.21.28.52.71.3,1.28.5s.41.63.93.81a4.69,4.69,0,0,0,.72.33c.21-.12.29.16.5.08v.13c.07,0,.14,0,.15.05l0,0c.11-.05.16,0,.21,0l0,0,.09,0,0,0a.38.38,0,0,1,.35.13l.07-.13c.13.27.36.05.46.33l0,0c.43-.19.25.45.69.28,0,0,0,.08,0,.11a.3.3,0,0,0,.41-.17c.09.06,0,.12,0,.22a.17.17,0,0,1,.23-.08l-.05,0,.21.07.08-.22c.07.11-.12.26,0,.27l.09-.17c.12.11.06.41.12.62.4.3,1,.33,1.41.59-3.16-.48-5.59-1.57-7,0a6.62,6.62,0,0,1-3.17-.92l-.07-.11-.05.07-.1,0,0-.06.35,0-.45,0c0-.08.12-.21-.06-.23l.07-.05-.2.17c-.31.08.06-.27-.32-.13.09,0-.13.25-.18.14l.09-.08c-.06,0-.11,0-.13,0s.12-.13,0-.17l.14-.08-.27.07c0-.18-.29-.17-.23-.34,0,0-.17-.24-.33-.13.11-.05,0-.18.14-.26-.14.06-.38,0-.36-.15h0c-.16-.31-.55-.18-.66-.49-.08.12-.15,0-.24.13-.34,0-.17-.63-.62-.25-.12-.06,0-.21-.07-.27h0a1.4,1.4,0,0,1-.41-.29c-.11,0-.29.18-.38,0,.11,0,0-.07,0-.11s.08,0,.06-.12a.13.13,0,0,1-.08,0v0c-.1,0-.11,0-.08,0l0,.06c0-.17-.23-.19-.13-.33a7.86,7.86,0,0,0-.79-.3.16.16,0,0,1,.22-.08l-.17-.1c.09-.1.13,0,.19,0,0-.31-.48-.14-.54-.46l-.11,0v0a.22.22,0,0,1-.17.05c0-.11.18-.2.08-.28s-.25-.15-.39-.19c0,.06,0,.09-.07.1s0-.15-.07-.15l.11-.12c-.08.13-.23,0-.29,0s.14,0,.21-.06l-.3-.25c-.18,0-.08.13-.22.18s-.28-.06-.31-.22l-.07.13a.41.41,0,0,1-.34-.39c-2-.38-1.34.86-1.34.86.28.7.82.65,1.49,1.12.48.54.44.86,1.07,1.28a7,7,0,0,0,.87.64c.25-.05.35.29.61.28l0,.14c.09,0,.18,0,.19.11l0,0c.14,0,.19.11.26.1l0,0,.06,0c-1.11-.11-2.12-.24-3.54-.43-1.19,0-1.69.71-3.16.66a.43.43,0,0,0-.4-.05l0,0c-.18.1-.1,0-.24,0s0,0,0,0c-.18.09-.23-.14-.34-.13l.06-.09-.16-.09,0,0-.09,0c0-.07,0-.13-.12-.1s-.09,0-.17,0l-.34-.06c.05,0,.06,0,.1-.11-.12,0,0-.22-.18-.2l.08-.11c-.26.1-.13-.3-.34-.18s.14-.36-.13-.26l.05-.17c0-.07-.16.13-.18,0s0-.12.07-.18c0-.23-.42,0-.43-.38-.16.14-.18,0-.3.07,0-.07-.17-.15,0-.23,0,0,0,0,0,0l.08-.09c0-.26-.26,0-.34-.14s.05.07,0,.12l-.08-.09.08-.06-.1-.16-.06.12c0-.1.08-.3-.11-.21s0,.19-.14.16a1.54,1.54,0,0,0-.19-.46c-.08.12-.1.09-.15.09l.07-.1c-.23,0,.12-.26-.09-.24l-.13.12c-.26.11.1-.25-.23-.07.06,0-.14.23-.17.14l.09-.08c-.05,0-.09,0-.1,0s.12-.13.06-.15l.12-.1-.23.11c0-.16-.2-.12-.13-.27,0,0-.1-.19-.25-.06.1-.07,0-.17.15-.26-.12.07-.3.07-.27-.08h0c-.09-.25-.42-.08-.47-.33-.08.12-.12,0-.21.16-.27,0-.07-.53-.47-.12-.09,0,0-.17,0-.22h0a.82.82,0,0,1-.31-.18c-.08,0-.25.21-.3.09s0-.08,0-.1.06,0,.06-.12a.17.17,0,0,1-.07,0l0,0c-.08,0-.09,0-.08.05a.16.16,0,0,0,0,.06c0-.15-.17-.12-.07-.27a3.44,3.44,0,0,0-.62-.09.22.22,0,0,1,.19-.13l-.12,0c.08-.11.1,0,.15,0,0-.26-.38,0-.4-.28l-.1.06v0a.32.32,0,0,1-.15.08c.05-.11.17-.21.09-.26s-.19-.08-.3-.08,0,.09-.07.11,0-.13,0-.12l.09-.12c-.08.13-.19.05-.24.1.05-.11.11,0,.17-.11l-.22-.14c-.15,0-.08.13-.2.21s-.21,0-.23-.12l-.06.13c-.19,0-.26-.07-.26-.25-1.61.21-1.13,1.09-1.13,1.09.18.53.62.34,1.12.59.34.34.28.64.74.85a4,4,0,0,0,.62.38c.22-.11.25.18.46.11l0,.13c.07,0,.14,0,.13.06l0,0c.11,0,.14.06.19,0l0,0,.07,0,0,0a.32.32,0,0,1,.31.16l.08-.12c.09.26.33.07.38.35l0,0c.44-.15.17.45.6.32-.05,0,0,.07-.06.1a.31.31,0,0,0,.42-.12c.07.05,0,.11,0,.21a.15.15,0,0,1,.22-.06l-.05,0,.19.08.11-.21c0,.12-.16.25,0,.26l.12-.15c.09.12,0,.4,0,.61l.12.1s.05.07.2.12l.38.17c0,.05.08.13.23.23-1.62-.79-4.74-.65-4.84-1.4-2.15-.21-4-.33-5.83-.42a0,0,0,0,0,0,0l.15,0h-.26c.06-.15-.16-.21,0-.33s0-.24-.23-.19c.13,0,.1-.15.24-.18-.14,0-.32-.08-.23-.21h0c0-.28-.38-.28-.33-.56-.12.08-.11-.07-.26.05-.28-.12.14-.56-.41-.37-.08-.08.06-.17.06-.23h0a1.17,1.17,0,0,1-.22-.35c-.08,0-.33.07-.33-.08s.07-.05,0-.09.07,0,.1-.08h-.05c-.07-.06-.09,0-.09,0s0,0,0,0c.08-.14-.12-.22,0-.3-.15-.21-.4-.29-.55-.45a.2.2,0,0,1,.23,0l-.09-.12c.12-.06.1,0,.15.07.12-.25-.35-.24-.26-.51h-.11v0a.24.24,0,0,1-.17,0c.1-.07.25-.11.2-.2s-.15-.18-.25-.25-.06.07-.11.06.07-.12,0-.13l.15-.07c-.13.08-.2-.06-.27-.05.09-.08.12,0,.21,0l-.14-.28c-.16-.05-.13.08-.28.09s-.21-.12-.16-.26l-.12.08c-.17-.12-.2-.23-.11-.4-.79-.41-1.18-.34-1.37-.16a.7.7,0,0,0-.18.48c-.08.63.41.74.77,1.3.17.55,0,.81.34,1.3a5.24,5.24,0,0,0,.45.76c.25,0,.17.32.4.38l-.08.11c.08,0,.14.06.11.14h0c.12,0,.11.13.17.15h0l.06.08H199a.47.47,0,0,1,.25.34l.12-.08c0,.27.2.28.24.46-1.52-.08-3-.17-4.58-.33-.39-.44.62-.6,1.83-.54l-2.92-.37c.12-.52,1.72,0,2.63,0a12.52,12.52,0,0,0-4.21-.84s0-.08-.07-.12l.09,0-.25.1c-.33,0,.14-.24-.27-.23.07.06-.2.2-.22.07l.11,0c-.06,0-.11,0-.11-.07s.15-.09.08-.15l.16,0h-.28c0-.19-.23-.27-.13-.41s-.1-.29-.29-.24c.13,0,.07-.17.21-.21-.15,0-.37-.11-.3-.26h0c-.07-.35-.48-.36-.5-.7-.11.09-.13-.08-.27.05-.32-.15,0-.67-.53-.45-.1-.11,0-.22,0-.29h0a2.06,2.06,0,0,1-.32-.43c-.1,0-.33.08-.37-.11.12,0,.07-.05,0-.11s.08,0,.09-.09h-.06c-.09-.08-.11,0-.09,0s0,0-.05.05c.06-.17-.17-.27,0-.37-.2-.26-.49-.36-.69-.57a.18.18,0,0,1,.24,0l-.12-.15c.11-.06.12.06.17.1.07-.31-.42-.3-.39-.64h-.12v0a.19.19,0,0,1-.18,0c.08-.09.23-.13.16-.24s-.2-.23-.32-.33c0,.08-.05.09-.1.08s0-.15,0-.17l.13-.08c-.12.1-.22-.08-.29-.07s.14.05.22,0l-.21-.34c-.18-.07-.12.09-.28.1s-.24-.16-.23-.33l-.1.11a.44.44,0,0,1-.21-.51c-.92-.52-1.31-.44-1.47-.21a.89.89,0,0,0-.08.6c.05.78.59.92,1.1,1.61.31.69.18,1,.67,1.62a9,9,0,0,0,.65.93c.27,0,.26.4.52.48l-.06.13c.09,0,.17.07.16.17h0c.14,0,.16.17.22.19l0,0,.08.09h-.05a.82.82,0,0,1,.35.42l.11-.09c.06.38.38.32.4.69l0,0a.38.38,0,0,1,.32.28,13.36,13.36,0,0,1-4.05-.93l-.91.23-.22-.12c0,.22-1,.32-1.57.26h0c-.44-.58.28-1-1.63-1.48l-.05,0a.2.2,0,0,0-.15-.13l.08-.1c-.34,0-.23-.47-.51-.44-.27-.12.13-.39-.24-.42l0-.2c-.06-.1-.21.09-.24-.07s-.06-.18.07-.19c-.09-.34-.6-.29-.67-.77-.21.08-.26-.16-.42-.1.06-.07-.27-.3,0-.27,0,0,.05,0,0,0l.11-.06c0-.32-.37-.22-.5-.41,0,.07.08.13,0,.15l-.13-.17.11,0-.17-.27-.06.12c-.06-.16.07-.35-.18-.35s0,.22-.17.13a4.33,4.33,0,0,0-.32-.75c-.09.11-.14.05-.21,0l.09-.09c-.31-.1.14-.26-.14-.38l.08,0-.24.11c-.35,0,.11-.27-.33-.26.09.07-.18.22-.22.08l.11-.05c-.07,0-.12,0-.14-.08s.15-.1.07-.17l.16,0-.3,0c0-.2-.29-.29-.2-.45,0,0-.16-.32-.35-.26.13,0,.05-.2.19-.24-.16,0-.41-.12-.37-.29h0c-.13-.39-.57-.4-.65-.78-.1.1-.16-.09-.27.06-.38-.17-.11-.75-.64-.51-.12-.11,0-.24,0-.32h.05a2.7,2.7,0,0,1-.41-.48c-.11-.05-.34.09-.41-.12.13,0,.06-.06,0-.12s.08,0,.08-.11h-.09l0,0c-.11-.08-.12,0-.1,0a.15.15,0,0,0,0,.06c0-.19-.23-.3-.09-.42a9.27,9.27,0,0,0-.81-.62c.05-.09.16-.07.24,0l-.15-.17c.11-.07.13.07.2.11,0-.35-.5-.34-.51-.71h-.13v0a.25.25,0,0,1-.19,0c.07-.11.23-.15.13-.28s-.24-.26-.38-.36c0,.08,0,.1-.1.09s0-.17-.05-.19l.13-.1c-.11.11-.25-.08-.32-.07.08-.1.16.05.24,0l-.28-.39c-.19-.07-.11.11-.27.12s-.28-.17-.29-.37l-.09.12a.58.58,0,0,1-.3-.57c-1-.58-1.43-.48-1.56-.22a1.05,1.05,0,0,0,0,.67c.18.88.76,1,1.4,1.81.43.77.35,1.11.95,1.8a9.42,9.42,0,0,0,.84,1c.29,0,.34.45.62.53l0,.15c.1,0,.19.08.19.19h0c.14,0,.18.19.26.21l0,0,.1.11h-.06a1,1,0,0,1,.44.46l.1-.1c.13.42.46.36.54.77l0,0c.59.13.28.74.87.89-.08,0,0,.07-.07.09.17.14.34.32.56.13.1.13,0,.16-.05.25.09-.08.22,0,.31.09l-.07,0,.27.25.13-.21c.08.19-.18.23,0,.33l.15-.13c.14.23,0,.54.08.83.53.7,1.37,1.17,1.91,1.82-1.16-.2-2.4-.35-3.4-.59,1,.43.58.56.08.56-.93-.32-1.27-1-2-1.06l.12-.48c-.14.17-.67.08-1.26-.06a8.69,8.69,0,0,0-1.69-.44c-.29-.65,1.53.28,1.89,0-1.76-.76-2.16-1-2.59-1.21s-.66-.33-1.54-.84c0-.07,0-.12-.16-.15l0,0-.21-.12a4,4,0,0,0-.25-.65c-.1.11-.14,0-.22,0l.1-.08c-.33-.16.15-.26-.14-.43l.09,0-.26.09c-.37-.09.12-.28-.34-.34.09.09-.19.21-.24.05l.12,0c-.07-.05-.12-.05-.14-.11a.1.1,0,0,0,.08-.17h.17l-.32-.07c0-.23-.29-.38-.19-.53,0,0-.15-.37-.36-.35.14,0,.06-.2.2-.22-.16,0-.42-.2-.37-.38h0c-.12-.45-.58-.53-.65-1-.11.09-.16-.13-.28,0-.39-.25-.08-.84-.64-.66-.13-.15,0-.26,0-.36l0,0a3.77,3.77,0,0,1-.41-.59c-.11-.09-.35,0-.41-.21.12,0,.06-.06,0-.13s.08,0,.09-.1a.17.17,0,0,1-.1,0h0c-.1-.11-.12-.07-.1,0a.15.15,0,0,0,0,.06c0-.2-.22-.37-.07-.47-.25-.37-.58-.54-.81-.84.06-.08.17,0,.25,0l-.15-.21c.12-.06.14.1.2.15.05-.37-.49-.46-.49-.87l-.13,0v0a.21.21,0,0,1-.2,0c.08-.1.24-.13.15-.28s-.24-.33-.37-.47c0,.1,0,.1-.11.08s0-.18,0-.22l.13-.08c-.11.1-.25-.14-.32-.14s.15.08.24.06l-.26-.47c-.19-.12-.12.1-.28.07s-.28-.24-.28-.45l-.1.11a.74.74,0,0,1-.27-.68c-1-.84-1.43-.81-1.58-.54a1.28,1.28,0,0,0,0,.74c.12,1,.71,1.28,1.32,2.25a8.76,8.76,0,0,0,.88,2.16,14.12,14.12,0,0,0,.82,1.29c.29.09.33.54.62.69l-.05.15a.28.28,0,0,1,.19.24h0c.15.07.18.24.26.27l0,0,.11.13h-.06a1.37,1.37,0,0,1,.43.57l.11-.09c.12.49.47.47.54.94h0c.61.25.26.86.87,1.12-.07,0,0,.07-.07.08.17.19.35.41.58.25.11.15,0,.17-.06.26.1-.08.24,0,.33.14l-.08,0,.28.32.14-.2c.08.21-.2.21,0,.35l.16-.12a.72.72,0,0,1,.07.25,12,12,0,0,1-4.4-3.43l.09.87c-2.8-2.15-4.05-4-4.71-6.34l-.72-.92a4.38,4.38,0,0,0,.72-.14,2.47,2.47,0,0,0,1.34-.89c1.13-1.21-.54-1.63-1.07-2.93.21-1.18,1.28-1.55.77-2.72a4.74,4.74,0,0,0-.36-1.73c-.86-.24,0-.74-.75-1l.47-.14c-.24-.1-.41-.22-.15-.34h.14c-.37-.15-.16-.34-.34-.41h.14l-.07-.2.2,0c-.39-.27-.42-.57-.24-.83l-.58,0c.64-.56-.57-.75.2-1.25h.14c-1.54-.62,1-1-.41-1.64.18.08.3,0,.44,0-.16-.3-.25-.62-1.39-.64,0-.22.36-.17.8-.19-.5,0-.7-.2-.73-.37l.19.08-.16-.5-.94.08c.27-.25,1.15,0,.93-.3h-.79c.17-.36,1.35-.54,1.94-.87.36-1.37-1.41-3-.24-4.2l.41.07c.66.1.53,0,.22-.23h.1c.85,0-1.25-.44-.45-.44l-.32-.15c.42,0,1.19.15.88-.16.12-.07-.08-.26-.17-.4h0c.19-.38-.23-.77-.35-1.17,0,0,0,0,0,0a.15.15,0,0,1,0-.07l0,0-.05,0a.48.48,0,0,1,0-.26,1,1,0,0,0,.55-.93c.29.1.2.06,0,0a1.6,1.6,0,0,0,0-.23s0,0,0-.06-.05-.21-.08-.32c.41,0,.16-.19-.18-.43l-.24-.47v0c.58.06,1.47.21.67-.19.12,0-.14-.07-.23-.1l.18-.15s.2-.27-1-.81c.38-.79,2-1.49,1.37-2.36a5,5,0,0,0,.06-1,.89.89,0,0,1-.24-.2l0-.14a3.9,3.9,0,0,0,0-.58l.22,0c-.2-.16-.32-.3-.05-.29l.13.05c-.3-.23,0-.28-.2-.4l.13.05v-.15l.18.09c-.3-.33-.25-.53,0-.65l-.55-.18c.75-.16-.33-.71.51-.78l.13.05c-1.28-.95,1.23-.32,0-1.26.15.12.29.08.42.14-.09-.26-.09-.51-1.16-.9.07-.15.38,0,.8.13-.47-.17-.62-.37-.6-.5l.16.12,0-.39-.91-.26c.32-.08,1.1.35.94.11l-.73-.27c.23-.19,1.4.07,2,0,.67-.87-.81-2.6.81-3l.57.16c.81.28-1.11-.68-.35-.44l-.33-.24a.94.94,0,0,1,.5.13c.06-.09-.07-.14-.29-.3l.54.08c.53-.24-.31-.92,0-1.26.44,0,.63-.24.69-.5a2.38,2.38,0,0,0,1.1-.32c1.62-.72.38-1.95.63-3.55.82-1.13,2-1,2.19-2.41a6.45,6.45,0,0,0,.69-1.93c-.6-.69.41-.76,0-1.43l.49.11c-.15-.23-.22-.44.07-.42l.12.08c-.22-.35.07-.43,0-.6l.12.08.06-.24.15.14a.71.71,0,0,1,.3-1l-.51-.28c.89-.21,0-1,.95-1.14l.12.08c-.91-1.45,1.51-.41.7-1.84.1.18.27.13.39.21,0-.38.19-.74-.76-1.39.16-.21.42,0,.8.25-.42-.28-.46-.58-.37-.77l.11.19.19-.57-.84-.45c.4-.1,1,.6,1,.22l-.64-.44c.38-.27,1.49.21,2.19.22a5.56,5.56,0,0,0,1.12-2.4c.31-.85.73-1.62,1.76-1.8l.49.32c.68.52-.69-1.14,0-.68l-.18-.39c.15.05.34.08.43.27.14-.11,0-.2-.09-.46l.53.21c.45-.14.48-.61.57-1a1.09,1.09,0,0,0,.88-.76c.93-.3,1.22-1.71,1.43-2.64h0l.37.46c.5.69-.44-1.24,0-.61l0-.16.16,0a.5.5,0,0,1,.11.19c.09,0,.07-.1,0-.23l.12,0,.23.2c.38,0,.47-.32.58-.66a1.69,1.69,0,0,0,.31-.41l.23,0c1,.39,1.47-1,1.74-1.82a0,0,0,0,0,0,0l.44-.32s.11-.1.26-.26c.87,0,2.23.78,2.29-.45.09.09,0-.19,0-.27l.85-.37a2.37,2.37,0,0,0,1.17-1.48,2.3,2.3,0,0,0,.75.39c1.35.62.87-1,1.7-1.86,1-.15,1.62.78,2.37,0a3.86,3.86,0,0,0,1.29-.72c0-.88.6-.18.68-.94l.23.44c0-.26.1-.44.25-.21l0,.13c0-.38.26-.21.28-.4l0,.14.15-.1,0,.2c.15-.44.4-.51.66-.39l-.14-.56c.61.53.56-.68,1.15,0v.14c.31-1.61,1,.88,1.41-.64-.05.19.07.29.09.43.24-.2.52-.32.37-1.45.21,0,.21.33.3.76-.07-.5.08-.72.24-.77l-.05.2.43-.22-.2-.93c.28.24.19,1.14.4.88l-.09-.78c.36.12.68,1.28,1,1.82,1.34.21,2.69-1.88,4.07-.57l.08.59c.07.85.3-1.29.38-.5l.14-.4a.78.78,0,0,1,.08.51c.14,0,.13-.12.22-.38l.18.53c.57.39,1-.66,1.59-.48.75,1.06,2.05,0,2.8-.61.75-1,1.75.56,2.65.83a11,11,0,0,1-.43,1.39c.27,1.29.53,2.41.78,3.4a18,18,0,0,0,.79,2.57,15,15,0,0,0,1.47,3.05c.88,1.24,1.53,1.11,1.95.34a9.25,9.25,0,0,0,.91-3.12c.09-.55.15-1.06.18-1.42l.09-.6a54.61,54.61,0,0,0,.71-9.45c0-1,0-2,0-3.08a1.25,1.25,0,0,0,.7-1.23,2.48,2.48,0,0,0-.6-1.2,44.72,44.72,0,0,1,.65-5.17c.26-.95.51-1.81.76-2.6s.56-1.5.82-2.17c.54-1.34,1-2.5,1.56-3.65s1-2.32,1.58-3.66,1.15-2.89,1.88-4.79c.87-1.73,1.6-3.6,2.5-5.37l1.28-2.68,1.37-2.55c.15-2,2.66-4.19,3.27-6.35l.89-.37a3.67,3.67,0,0,1,1.28-1.95l.08.12c.34-1.11,1.34-1.89,1.54-2.42l.08.12.81-1.05v.31a14.86,14.86,0,0,1,3.6-4.24l-.51-.31c3.11-2.09,3.32-3.92,6.44-5.43l0,.14a8.18,8.18,0,0,1,.93-1.27,8.08,8.08,0,0,1,1.07-.91,16.06,16.06,0,0,1,2.26-1.3,24.57,24.57,0,0,0,2.33-1.2,10.41,10.41,0,0,0,2.29-2c-.39.43.35.15.39.29,1.66-1.13,3.49-2.29,3-3.28,1.34-.65,1.25-.23,1.62.08-.24-.44.83-1.2,1.86-1.75l-.4.41c1-.56,2-1,3-1.51l-1-.61c1.75-.46.87.88,2.34,0l-.32-.71a8.75,8.75,0,0,1,3.25-.38c1,0,2.06.09,3.27,0,4.65-1.39,9.47-2.88,14.37-3.85s9.87-1.39,14.36-.46l.37.59c.12.82,2.56-1.11,2.85-.28l1.08-.3c.29.18.89.39.35.54a3.48,3.48,0,0,0,1.71-.18l.94.69a17.7,17.7,0,0,0,2.68.5c.88.14,1.76.28,2.65.39s1.79.19,2.7.4a24.76,24.76,0,0,1,2.79.81c.54.32,1.16.58,1.81.9s1.37.64,2.12.94,1.55.6,2.36.89,1.63.65,2.47,1l2.52.91.78.31-.08.06c-.79.67.08.31.7.18l.25.1c-.25.35-.9.79-.46.79,0,.15.26.14.43.18.77-.35.08.13.74-.14l-.41.25c.22-.1.38-.15.16,0l-.12.06c.34-.14.16,0,.33-.07l-.12.06h.07l-.18.09c.37-.13.42-.09.29,0l.51-.27c-.52.4.57-.11-.07.33l-.12.07c1.42-.58-.84.66.52.12-.17.07-.26.14-.39.2.18,0,.28,0,1.3-.51a2.54,2.54,0,0,1-.69.4c.45-.22.65-.28.69-.26l-.18.07.2,0,.52-.28h0c-.3.17-.67.34-.51.3l.56-.28,0,0c-.3.21-1.11.66-1.53.93-.17.42,1.77-.15.65.7l-.52.26c-.77.37,1.18-.47.47-.12l.37-.14a2.47,2.47,0,0,1-.46.23s.11,0,.35-.11l-.47.26c-.32.28.66-.06.52.14-.93.59.1.43.7.35,1.27-.3-1.75,1.32-.32.95-.1.05.1,0,.21-.06-.15.27-.21.41-.21.41-.44.88.11.33.63,0a2,2,0,0,0,.38,0c-.11.42-.57,1-.15.91,0,.15.29.06.48.06.64-.56.12.11.68-.33l-.33.35c.19-.15.33-.24.16,0l-.1.1c.29-.22.16-.05.3-.16l-.1.1h.08l-.16.13c.33-.22.4-.18.3,0l.44-.38c-.41.52.54-.23,0,.36l-.11.09c1.28-.86-.67.84.56,0a3.67,3.67,0,0,0-.34.27c.18,0,.29,0,1.2-.73,0,.06-.26.25-.6.53.4-.31.59-.39.64-.38l-.17.1h.21l.75-.58c-.18.22-.92.7-.7.62l.64-.46a18.06,18.06,0,0,1-1.42,1.3c-.1.44,1.8-.28.8.72l-.48.29c-.1-.06-.24-.06-.22-.19s-.21-.19-.35,0c.1-.08,0-.18.08-.29-.12.09-.35.1-.37-.06h0c-.22-.25-.56,0-.74-.31-.05.14-.14,0-.19.19-.34.05-.31-.56-.65-.08-.13,0-.08-.19-.13-.24l0,0a1.43,1.43,0,0,1-.46-.17c-.11,0-.23.24-.35.12.09-.08,0-.09,0-.11s.07,0,0-.13-.05,0-.07,0v0c-.11,0-.11,0-.07.06a.1.1,0,0,0,0,.07c0-.17-.26-.12-.2-.29a4.86,4.86,0,0,0-.82-.07.17.17,0,0,1,.18-.14l-.17-.05c.06-.12.12,0,.18,0-.09-.29-.48,0-.62-.29l-.09.07v0a.19.19,0,0,1-.15.1c0-.12.12-.24,0-.29s-.28-.07-.42-.08c.05.05,0,.1,0,.12s0-.14-.1-.12l.06-.14c0,.14-.21.07-.26.12,0-.12.13,0,.18-.12l-.34-.15c-.17,0,0,.14-.16.24s-.28,0-.35-.13l0,.15a.39.39,0,0,1-.42-.28c-2,.25-1,1.22-1,1.22.44.58.93.37,1.67.63.58.37.63.69,1.31.9a6.78,6.78,0,0,0,1,.39c.23-.13.39.18.63.1l0,.14c.08,0,.17,0,.2.05l0,0c.13,0,.2,0,.26,0l0,0,.12,0,0,0a.67.67,0,0,1,.47.15l.05-.13c.22.28.46,0,.64.35l0,0c.5-.2.43.48.93.3-.06,0,0,.08,0,.11.18,0,.36.08.47-.18.12.06.06.13,0,.24.05-.12.17-.12.27-.09l-.06,0,.28.07,0-.24c.11.12-.08.28.08.28l.07-.18c.18.12.17.44.3.65a3.11,3.11,0,0,0,.76.27c.3.37.95.42,1.61.64l0,.14c-.05.15.15,0,.24-.07h0s0,0,0,0l0,0,.09,0a.05.05,0,0,1,0,0,.09.09,0,0,0,.11,0l.08,0,0,.08a.48.48,0,0,0,.19.09c.42,1.08-.21,1.94.83,2.64a4.87,4.87,0,0,0,1.26,1.26c.84-.26.43.6,1.2.46l-.33.37c.26,0,.47,0,.32.21l-.12.07c.4-.07.32.2.52.17l-.12.07.16.13-.18.08c.4,0,.58.19.64.42l-.24.11c-.11-.18-.42-.13-.42-.31,0,0-.31-.21-.46-.07.11-.08-.06-.19,0-.3-.13.09-.43.09-.49-.08h0c-.33-.29-.73-.09-1-.38,0,.14-.19,0-.21.18-.43,0-.51-.62-.86-.14-.17,0-.14-.2-.21-.27h0a2.41,2.41,0,0,1-.63-.22c-.13,0-.26.24-.43.09.11-.06,0-.08-.06-.11s.09,0,0-.14a.12.12,0,0,1-.09,0s0,0,0,0c-.14,0-.13,0-.08.06s0,0,0,.07c-.08-.19-.37-.15-.31-.33-.39-.12-.74-.06-1.08-.14,0-.1.11-.15.21-.14l-.23-.07c.06-.12.16,0,.24,0-.18-.32-.63-.05-.86-.37l-.11.07v0a.22.22,0,0,1-.17.09c0-.13.11-.25,0-.31s-.37-.1-.55-.12c.07.06,0,.1,0,.12s-.08-.16-.16-.14l.06-.14c0,.14-.26.05-.32.09,0-.12.16,0,.22-.1l-.46-.2c-.22,0,0,.15-.18.24s-.34,0-.46-.17v.15a.65.65,0,0,1-.59-.34c-2.5,0-1.1,1.19-1.1,1.19.65.67,1.25.5,2.24.85.81.45.93.8,1.85,1.09a10.79,10.79,0,0,0,1.3.49c.28-.11.55.23.85.16l0,.15a.24.24,0,0,1,.27.07l0,0c.15,0,.27.08.34.06v0l.15.05,0,0a1.11,1.11,0,0,1,.64.2l0-.14c.34.31.6.09.9.42l0,0c.6-.17.64.53,1.25.37-.08,0,0,.08,0,.11.24,0,.48.12.59-.14.16.06.1.13.08.24,0-.12.2-.11.33-.07l-.08,0,.38.09v-.24c.17.13-.05.28.15.3l.07-.19c.25.14.3.47.51.7,1.05.47,2.36.39,3.26,1.05v.16s0,0,0,0a5.81,5.81,0,0,0-.64.9c.37,1.07,1.92,1.51,2.38,2.48-.18-.16-.53-.12-.56-.3,0,0-.44-.21-.6-.07.13-.08-.11-.2,0-.31-.16.09-.54.09-.64-.08h0c-.48-.29-.94-.08-1.36-.38,0,.14-.24,0-.23.19-.54,0-.77-.63-1.11-.13-.23,0-.22-.21-.33-.27h.06a5,5,0,0,1-.84-.22c-.17,0-.27.25-.53.11.12-.08,0-.09-.1-.12.07,0,.11,0,0-.14a.12.12,0,0,1-.09,0,0,0,0,0,1,0,0c-.18,0-.16,0-.09.06a.23.23,0,0,0,0,.07c-.13-.18-.49-.14-.46-.32-.52-.12-.95-.05-1.39-.12,0-.1.1-.15.24-.15l-.32-.06c.05-.12.2,0,.3,0-.29-.32-.8,0-1.16-.35l-.12.07,0,0a.24.24,0,0,1-.2.09c0-.13.08-.25-.13-.31s-.48-.09-.72-.1c.11.05.05.1,0,.13s-.13-.16-.22-.14l0-.15c0,.15-.32.06-.37.11,0-.13.19,0,.24-.12l-.63-.18c-.26,0,0,.16-.16.26s-.43,0-.62-.16l0,.16a1.06,1.06,0,0,1-.83-.32c-3.1.2-1.06,1.3-1.06,1.3,1,.64,1.68.43,3,.74a13,13,0,0,0,2.55,1c.56.2,1.18.32,1.74.46.32-.12.72.22,1.08.15l.09.15a.34.34,0,0,1,.35.07l0,0c.19,0,.35.06.45.05l0,0,.2,0-.05,0a1.72,1.72,0,0,1,.83.19l0-.15c.49.32.77.09,1.21.42l0,0c.73-.18.9.54,1.64.38-.09,0,0,.08,0,.11.3,0,.62.12.71-.15.21.07.15.14.14.25,0-.08.14-.11.26-.1a.08.08,0,0,0,.08,0h0l.24.05-.3.28c-.11.67,1,.61,1.08,1.21-.69,1.08.73,1.77,1.53,2.25.78.24.49,1,.16,1.63a4.54,4.54,0,0,0-.21.45.45.45,0,0,1-.21-.1c0,.14-.2,0-.2.21-.44.07-.61-.56-.91,0-.18,0-.17-.19-.25-.24l.05,0a2.62,2.62,0,0,1-.68-.16c-.14,0-.24.26-.44.13.11-.07,0-.08-.07-.11s.08,0,0-.13a.25.25,0,0,1-.08.05v0c-.14,0-.13,0-.07.07s0,0,0,.07c-.1-.18-.4-.13-.36-.3a9.23,9.23,0,0,0-1.13-.08c0-.11.11-.15.22-.15l-.25-.06c.05-.12.16,0,.24,0-.2-.3-.66,0-.91-.33l-.11.07v0a.23.23,0,0,1-.18.09c0-.13.11-.25-.06-.3s-.38-.11-.57-.12c.08.06,0,.1,0,.12s-.08-.15-.16-.14l.06-.14c0,.15-.28,0-.33.1,0-.13.16,0,.22-.11l-.48-.2c-.22,0,0,.15-.18.23s-.36,0-.48-.18v.15a.71.71,0,0,1-.61-.37c-1.29-.06-1.62.18-1.59.49a1.23,1.23,0,0,0,.4.63c.71.75,1.36.62,2.44,1a7.22,7.22,0,0,0,2.06,1.07,9.67,9.67,0,0,0,1.46.42c.28-.14.6.18.91.09l.07.14a.26.26,0,0,1,.29.05v0c.16-.05.29,0,.37,0l0,0,.17,0,0,0a1.24,1.24,0,0,1,.7.13v0l0,.14c-.22.47-.39.44-.69-.08a10.79,10.79,0,0,0-.39,3c-.11,0-.23,0-.3-.1h0l0-.05v.08l0,0v0a.22.22,0,0,1-.13.12c0-.12.1-.26,0-.29s-.25,0-.38,0c.05,0,0,.1,0,.12s-.05-.13-.1-.1l0-.15c0,.15-.2.1-.24.15,0-.12.12-.06.16-.14l-.32-.09c-.15.07,0,.14-.13.25s-.25.06-.33-.07v.15c-.22,0-.33,0-.4-.21-1.25.38-1.17.88-1,1.15l0,.33,0-.06a1.34,1.34,0,0,1,0,.63c-.2-.43-.31-1-.53-.93-.33-.37-.46.38-.6.71.16,0,.21.29.22.46s-.34-.35-.35-.13l-.26-.58c.27.53,0,.72,0,1-.26-.4,0-.45-.1-.78-.44.26-.22.12-.67.41,0,.54.32.5.46,1.05-.14.22-.09.7-.51.51l.37.43c-.1.58-.28.63-.85.36a4.53,4.53,0,0,0,1.24,2.74,13,13,0,0,0-3.38,2.89c-.71,1-.49,1.6.14,1.95a5.61,5.61,0,0,0,2.43.51c.83,0,1.51,0,1.51,0a20.08,20.08,0,0,0,6.8-1.12,49,49,0,0,1,7.47-2,38.15,38.15,0,0,1,6.43.3,27.31,27.31,0,0,0,2.85.2,35,35,0,0,0,3.66,0c1.37.11,2.8.09,4.21.16l2.11.05,2,.13c1.39-.71,3.5.49,5.11,0l.49.59a1.94,1.94,0,0,1,1.65.17l-.06.13c.84-.22,1.65.22,2.07.13l-.07.13.94.16-.21.16a8.49,8.49,0,0,1,3.91.81l.06-.58a8.39,8.39,0,0,0,2.93,1,5.18,5.18,0,0,1,2.67,1.14l-.08.12a4.76,4.76,0,0,1,3.68,1.29,6,6,0,0,0,3.65,1.55c-.43,0,0,.34-.08.46,1.34.5,2.7,1.19,3.3.21.91.53.57.72.46,1.17.25-.43,1.13-.13,1.85.28l-.42,0c.69.37,1.4.71,2.08,1.11l.13-1.05c.9.94-.36,1.14.75,1.63l.43-.66a5.17,5.17,0,0,1,1.39,1.94,12.93,12.93,0,0,0,1.05,2.2c2.58,2.25,5.52,4.26,8.11,6.65s4.9,5,6.06,8.06l-.33.55c-.63.55,2,.8,1.45,1.43l.72.43c0,.25.06.71-.3.49.33.59.45.54.91.85l-.13.9a9.72,9.72,0,0,0,.83,1.75c.3.54.62,1.07,1,1.6s.64,1,.91,1.5c-.07,0-.13-.09-.23,0v-.13c-.06,0-.12,0-.13,0l0,0c-.09.06-.12,0-.17,0l0,0-.07,0,0,0a.22.22,0,0,1-.28-.08l-.06.14c-.1-.24-.3,0-.36-.25l0,0c-.38.23-.18-.4-.56-.19.05,0,0-.08.05-.1s-.22-.06-.36.19c-.07,0,0-.11,0-.21-.06.11-.14.12-.2.09l.05,0-.17-.06-.09.22c0-.11.13-.26,0-.25l-.1.16c-.09-.1,0-.39,0-.57-.37-.34-1.1-.24-1.28-.8l.07-.13c.12-.18-.29.17-.19,0l-.1,0s0-.09.06-.11-.06,0-.12,0l0-.13c-.09-.21-.38-.1-.51-.28,0-.37-.54-.48-.84-.56-.51,0-.24-.95-.77-1,0,0-.06,0-.08,0l-.22-.28a1.33,1.33,0,0,0-.61-.4c-.33-.06-.74.11-.93,1.23l0,0c.06.23.13.35.41.29-.2.22.1.15.06.25h0c.25-.06.06.33.29.27,0,0-.08.07-.1.05s.22.08.11.21c.19.12.36.39.64.29l0,0c.18-.08.1.05.23,0a.06.06,0,0,0,0,0c.18-.07.2.15.3.14l-.07.09.15.09,0-.06c.21-.22,0,.23.19.16.07.11.59-.34.59-.15.13-.07-.19.15-.05.12-.1.13-.1.05-.16.17.11,0,0,.21.15.19l-.08.1c.25-.09.11.29.31.18s-.15.35.12.24l-.06.17c0,.06.16-.14.17,0s0,.12-.08.18c0,.23.4,0,.41.35.16-.14.17,0,.29-.09,0,.08.16.14,0,.23,0,0,0,0,0,0l-.08.1c0,.26.25,0,.33.11,0-.05,0-.07,0-.12l.09.07-.08.08.1.14.05-.12c0,.1-.06.29.11.19s0-.18.13-.17a1.13,1.13,0,0,0,.2.43c.07-.12.09-.1.14-.11l-.06.11c.21-.07-.1.26.1.22l.11-.13c.24-.14-.07.26.22,0-.06,0,.12-.25.15-.16l-.07.09s.08,0,.09,0-.1.14,0,.15l-.11.11.2-.13c0,.15.21.07.15.24a.16.16,0,0,0,.25,0c-.09.08,0,.17-.12.27.11-.09.28-.11.26,0h0c.12.22.4,0,.49.23.06-.13.11,0,.17-.19.24-.08.14.48.45,0,.09,0,0,.17.06.21l0,0a.63.63,0,0,1,.31.11c.08,0,.2-.26.27-.17s0,.09,0,.1-.05,0,0,.13l.06-.06v0c.07,0,.07,0,.05-.07a.08.08,0,0,0,0-.06c0,.15.18.06.11.23.2,0,.4-.07.58-.07a.23.23,0,0,1-.14.17h.12c-.05.12-.09,0-.14.06.05.25.35-.1.43.15l.07-.09v0a.33.33,0,0,1,.11-.12c0,.12-.09.25,0,.27s.14.05.24,0a16.27,16.27,0,0,0,.46,2.67c.31,1.08.61,2.25,1,3.42s.81,2.59,1.17,3.81a2.06,2.06,0,0,0-.93-.57,6.4,6.4,0,0,0-.95-.36c-.23.13-.38-.18-.62-.1l0-.14c-.08,0-.16,0-.19-.05l0,0c-.13,0-.2-.06-.26,0l0,0-.11,0,0,0a.6.6,0,0,1-.46-.16l0,.13c-.21-.29-.45-.07-.62-.38l0,0c-.5.18-.39-.5-.89-.35.07,0,0-.08,0-.11-.17,0-.34-.11-.48.14-.11-.06-.05-.13,0-.23a.2.2,0,0,1-.27.06l.06,0-.27-.11-.06.24c-.1-.14.1-.27-.05-.29l-.09.17c-.17-.14-.13-.45-.23-.68-.67-.48-1.7-.52-2.18-1.22l.05-.15c.11-.18-.34.16-.26,0l-.13,0c0-.05,0-.11,0-.13s-.09,0-.17,0v-.16c-.21-.27-.59-.2-.85-.44-.19-.45-1-.68-1.43-.83-.71-.1-.8-1.23-1.53-1.32,0,0-.09,0-.1,0l-.45-.39a3.64,3.64,0,0,0-1-.58c-.48-.11-.89.1-.57,1.49l0,0c.19.3.34.45.67.4-.15.25.2.19.21.31l0,0c.29,0,.22.4.5.36,0,0-.08.08-.11.05.13.06.33.12.24.26.3.17.64.52,1,.42l0,0c.2-.07.14.07.31.08a.1.1,0,0,0,0,0c.21-.06.34.21.47.21l-.06.09.24.14-.07-.08c.2-.23.06.28.33.22.14.14.67-.32.74-.09.16-.07-.19.15,0,.13-.09.14-.11.05-.15.18.15,0,.09.25.29.26l-.07.1c.31-.07.25.36.49.26s-.07.39.25.31v.19c.06.07.17-.14.21,0s.08.15,0,.2c.12.27.55.06.68.47.17-.14.25,0,.37-.05,0,.08.27.18,0,.25,0,0-.05,0,0,0l-.08.1c0,.29.36.06.5.19,0-.07-.1-.09,0-.14l.14.1-.09.07.19.18,0-.13c.07.12,0,.33.21.25s0-.21.12-.18a2.13,2.13,0,0,0,.42.54c0-.13.1-.1.17-.1l-.06.11c.28,0-.06.28.2.27l.12-.13c.3-.11,0,.28.33.1-.08,0,.1-.26.17-.16l-.08.09c.06,0,.1,0,.13,0s-.1.15,0,.17l-.12.11.25-.12c.06.18.32.13.28.31,0,0,.21.2.35.07-.1.07,0,.19-.09.29.13-.09.37-.08.38.08h0c.21.27.57.08.74.36.06-.14.16,0,.21-.18.34,0,.31.58.66.11.13,0,.08.19.13.25h0a1.76,1.76,0,0,1,.47.19c.11,0,.24-.24.36-.11-.09.07,0,.08,0,.11s-.07,0,0,.12l.07,0v0c.11,0,.11,0,.07-.06s0,0,0-.06c0,.16.28.11.21.28a4.2,4.2,0,0,0,.85.06.18.18,0,0,1-.19.15l.18.05c-.05.12-.12,0-.19,0,.12.28.51,0,.66.27l.09-.08v0a.2.2,0,0,1,.14-.1c0,.12-.11.25,0,.29s.29.07.44.06c-.06-.05,0-.1,0-.12s.05.14.11.11l-.05.15c0-.15.21-.08.26-.14,0,.13-.13.06-.18.13l.36.13c.17-.06,0-.15.15-.25h.17c.09.32.17.63.25.92a7,7,0,0,1,.43,2,17.66,17.66,0,0,1,.05,2.06,27.49,27.49,0,0,1-.72,4.18c-.37,1.38-.68,2.75-1,4.08l0,.11a5,5,0,0,1-1-.05c-.69-.3-.78-.63-1.55-.78a6.62,6.62,0,0,0-1.07-.33c-.24.14-.44-.18-.7-.09l0-.14c-.09,0-.18,0-.22-.05v0c-.13,0-.22-.05-.28,0l0,0-.13,0,0,0a.68.68,0,0,1-.51-.16l-.05.14c-.26-.29-.5-.07-.71-.38l0,0c-.53.19-.47-.51-1-.35.06,0,0-.08,0-.11-.19-.05-.39-.12-.52.14-.12-.06-.06-.13,0-.24,0,.12-.18.11-.29.06l.07,0-.3-.1-.05.24c-.12-.14.09-.28-.08-.3l-.08.17c-.19-.14-.18-.46-.31-.69-.77-.5-1.89-.56-2.46-1.29l.05-.15c.09-.19-.37.15-.3,0l-.13,0c0-.05,0-.11,0-.13s-.09,0-.18,0l0-.17c-.25-.28-.66-.22-1-.48-.24-.47-1.1-.74-1.59-.92-.77-.14-.92-1.32-1.71-1.46,0,0-.09,0-.11,0l-.5-.43a4.39,4.39,0,0,0-1.12-.68c-.51-.16-.95,0-.55,1.51l0,0c.21.32.38.49.73.46-.14.25.23.22.24.34l0,0c.31,0,.26.43.55.41,0,0-.07.07-.11,0,.15.07.36.15.27.29.34.19.72.58,1.08.5l0,0c.22-.07.16.08.34.09,0,0,0,0,0,.05.23-.06.38.23.52.23l-.05.1.26.15-.08-.08c.21-.23.08.29.38.24.15.15.69-.3.79-.06.16-.07-.2.15,0,.14-.08.13-.11,0-.15.17.17,0,.12.27.33.28l-.06.11c.32-.06.3.38.55.28s0,.4.29.33v.19c.08.09.17-.13.24,0s.09.16,0,.21c.16.28.61.08.79.5.17-.14.27.06.39,0,0,.08.32.2,0,.26,0,0-.05,0,0,0l-.08.09c.07.31.39.08.56.21,0-.07-.11-.1,0-.14l.16.1-.09.07.22.19,0-.13c.09.13,0,.34.26.26s0-.22.11-.18a2.38,2.38,0,0,0,.51.55c0-.13.1-.1.17-.1l-.05.12c.31,0,0,.28.25.28l.11-.14c.32-.12,0,.29.37.1-.09,0,.08-.27.17-.16l-.08.09c.07,0,.11,0,.14,0s-.09.14,0,.17l-.12.11.27-.12c.07.18.35.13.33.31,0,0,.25.21.39.07-.1.08,0,.19-.07.3.13-.09.39-.08.42.08h0c.27.27.64.07.86.36,0-.14.17,0,.2-.19.37,0,.41.58.74.1.15,0,.11.19.17.25h0a2.26,2.26,0,0,1,.54.18c.12,0,.23-.25.38-.12-.09.08,0,.08.05.11s-.08,0,0,.13a.18.18,0,0,1,.08-.05s0,0,0,0,.11,0,.07-.07,0,0,0-.07c.06.17.31.12.26.29a6.06,6.06,0,0,0,.94,0c0,.1-.1.15-.19.16l.21,0c-.05.12-.14,0-.21,0,.16.29.55,0,.76.25l.09-.08v0a.24.24,0,0,1,.15-.11c0,.13-.09.26,0,.3s.33,0,.49,0c-.07,0,0-.1,0-.12s.07.14.14.11l0,.15c0-.15.23-.1.27-.15,0,.12-.13.06-.18.14l.42.11c.18-.07,0-.15.13-.26s.29-.06.41.08v-.15a.5.5,0,0,1,.18,0c0,.13,0,.26-.05.39a10.28,10.28,0,0,0-.09,2c-.15.14,0,.64.12.66-.17.78-.46,1.53-.68,2.29a21.55,21.55,0,0,1-.79,2.26l-.33.9c-.2.57-.45,1.37-.83,2.23-.14.39-.3.8-.47,1.22-.47-.35-1-.27-1.71-.57s-.74-.8-1.53-1.11a11.2,11.2,0,0,0-1.09-.56c-.27.09-.45-.26-.73-.22v-.15c-.1,0-.19,0-.23-.09l0,0c-.15,0-.23-.1-.3-.09l0,0-.13-.06.05,0a.86.86,0,0,1-.53-.26l-.06.13c-.24-.35-.52-.17-.71-.52l0,0c-.58.08-.44-.61-1-.55.07,0,0-.08.05-.1-.2-.08-.4-.19-.56,0-.13-.08-.06-.14,0-.24-.07.1-.21.07-.31,0h.07l-.3-.16-.08.23c-.11-.15.12-.26-.05-.31l-.11.16c-.19-.17-.14-.5-.26-.76-.77-.64-1.94-.88-2.49-1.72l.06-.14c.11-.18-.4.09-.31-.09h-.14s0-.12,0-.12-.1-.05-.19,0v-.17c-.25-.33-.68-.33-1-.63-.22-.53-1.11-.93-1.62-1.17-.8-.25-.92-1.49-1.74-1.73,0,0-.1,0-.11,0l-.51-.5a5.12,5.12,0,0,0-1.16-.83c-.53-.22-1-.07-.61,1.5l-.05,0c.21.36.39.55.75.56-.16.25.23.25.23.38h0c.33,0,.25.48.56.49,0,0-.08.06-.12,0,.15.09.37.19.27.33.34.24.73.67,1.1.64l0,0c.23,0,.16.11.35.15,0,0,0,0,0,0,.24,0,.38.29.53.31l-.06.09.26.19-.07-.09c.22-.21.06.3.37.3.15.17.75-.22.83,0,.18,0-.22.12,0,.14-.1.13-.12,0-.17.16.17,0,.1.29.33.33l-.08.1c.35,0,.29.43.56.36.27.09-.09.4.28.38l0,.2c.08.1.2-.11.25,0s.08.17,0,.2c.14.31.63.17.78.63.19-.11.27.11.42,0-.05.08.31.25,0,.27,0,0-.05,0,0,0l-.1.08c.05.32.41.13.57.29,0-.07-.11-.11,0-.14l.15.13-.09.06.21.23,0-.13c.09.14,0,.35.25.3s0-.22.13-.16a3.81,3.81,0,0,0,.48.64c.06-.13.12-.09.19-.07l-.06.11c.32,0-.08.28.23.32l.13-.12c.34-.06,0,.29.38.17-.1-.05.11-.26.19-.14l-.09.08c.07,0,.12,0,.14,0s-.11.13,0,.17l-.15.09.3-.07c.06.19.35.19.31.37,0,0,.24.26.41.14-.12.06,0,.2-.11.29.14-.06.42,0,.43.16h0c.25.33.66.19.86.52.06-.13.17,0,.23-.15.4,0,.36.66.76.24.16.06.1.22.15.28h-.05a2.31,2.31,0,0,1,.55.29c.12,0,.27-.21.41-.06-.11.06,0,.09,0,.12s-.08,0,0,.13a.11.11,0,0,1,.08,0v0c.12,0,.12,0,.08-.05a.1.1,0,0,0,0-.07c0,.19.31.18.23.34a5.65,5.65,0,0,0,1,.22c0,.1-.12.14-.22.12l.22.08c-.07.12-.15,0-.23,0,.13.32.58.07.76.4l.11-.06v0a.21.21,0,0,1,.18-.07c0,.12-.14.23,0,.3s.33.12.5.14c-.07-.06,0-.11,0-.13s0,.16.13.14l-.07.15c.05-.15.25-.05.31-.09,0,.12-.15,0-.21.1l.42.2c.2,0,0-.15.17-.24s.32,0,.42.18l0-.15c.29,0,.43.11.52.32l.27,0c-.42,1.06-.84,2.12-1.16,3.07-.64,1.72-.83,3.17.13,3.47a3.75,3.75,0,0,0,2.45-.61,13.27,13.27,0,0,0,2.09-1.3c.76-.59,1.63-1.33,2.63-2.24l.1.2a19.7,19.7,0,0,0,1.9-3.38,7.73,7.73,0,0,0,.41-3.2c1.25.07.84-2.32,1.39-2.88l.07.09a2.9,2.9,0,0,1,.12-1.41,7.68,7.68,0,0,1,.5-1.33,4.09,4.09,0,0,0,.55-2.69c.08.09.39.18.34.59.06-1.31,0-3.09.73-3.1.09-.77.11-1.63.17-2.5A23.06,23.06,0,0,0,454.73,323.32ZM440.1,354.18h0l0,.06S440.07,354.2,440.1,354.18Zm-9.62,9.91h.07l-.11.12S430.41,364.13,430.48,364.09ZM346.09,389h0Zm-47.33,3.73ZM287.23,392a.71.71,0,0,1,.27.34,1.44,1.44,0,0,0-.33-.2Zm-.21-.13c.1.09.05.18.05.24l-.07,0Zm-.32.11-.08,0,.14,0a2.24,2.24,0,0,0-.38,0C286.44,391.88,286.58,391.88,286.7,391.93ZM155.92,325.14a.64.64,0,0,0,0-.24h0c.2.14.29.24.1.25C156.25,325.29,156.11,325.23,155.92,325.14Zm1.44-6.42v0Zm.82-1.46a3.83,3.83,0,0,1,0-.47,3.11,3.11,0,0,1,.08.49Zm182.22-94h0s0,0,0,0A0,0,0,0,1,340.4,223.29Zm.05.1.05-.07h.1C340.57,223.38,340.5,223.45,340.45,223.39Zm.35-.11h.12C340.85,223.31,340.81,223.31,340.8,223.28Zm-.24-.25c0,.05.11,0,.35-.13l-.45.3a.18.18,0,0,0-.06.08c.05-.05.07-.14,0-.16l.12-.11-.24.14s0,0,0-.06c.32-.15.82-.4.42-.16l.35-.16A3.24,3.24,0,0,1,340.56,223Zm4.54-1.67c-.34.13.1-.06.36-.18l.11.08C345.18,221.41,344.91,221.5,345.1,221.36Zm3.16,11.49c.12,0,0,.28-.16.18l.08-.1c-.08,0-.13,0-.17,0a.09.09,0,0,0,0-.18l.08-.07a.51.51,0,0,1,0,.13l.47-.35c-.08.28,0,.41.13.49C348.39,233,348.65,232.64,348.26,232.85Zm4.61,21.26,0-.14H353A1,1,0,0,1,352.87,254.11Z"/><polygon points="424.51 266.02 424.51 266.02 424.85 265.83 424.51 266.02"/><path d="M183.67,384.64l.74.4C184.42,384.93,184.24,384.81,183.67,384.64Z"/><path d="M214.15,397.74h-.05l-.22,0Z"/><polygon points="336.08 223.61 336.07 223.61 336.06 223.61 336.08 223.61"/><polygon points="342.48 232.92 342.48 232.92 342.45 232.93 342.48 232.92"/><path d="M344.48,237.18l.07.08S344.54,237.2,344.48,237.18Z"/><polygon points="347.2 240.07 347.2 240.07 347.17 240.08 347.2 240.07"/><polygon points="353.43 249.05 353.43 249.05 353.4 249.06 353.43 249.05"/><polygon points="161.47 373.55 161.47 373.55 161.44 373.54 161.47 373.55"/><polygon points="172.19 376.29 172.19 376.28 172.17 376.28 172.19 376.29"/><polygon points="187.65 383.44 187.64 383.44 187.62 383.43 187.65 383.44"/><polygon points="198.5 386.49 198.5 386.49 198.48 386.48 198.5 386.49"/><path d="M208.72,387.47h0Z"/><polygon points="222.3 389.74 222.3 389.73 222.28 389.74 222.3 389.74"/><path d="M233,389.53Z"/><polygon points="237.18 389.06 237.18 389.06 237.23 388.99 237.18 389.06"/><path d="M247.69,391.31Z"/><polygon points="259.61 388.51 259.61 388.51 259.59 388.51 259.61 388.51"/><polygon points="281.43 389.86 281.43 389.86 281.41 389.86 281.43 389.86"/><polygon points="304.62 391.13 304.61 391.13 304.6 391.13 304.62 391.13"/><polygon points="320.78 388.52 320.77 388.52 320.76 388.53 320.78 388.52"/><path d="M340.53,387.54h0l0,0Z"/><polygon points="344.32 386.2 344.32 386.2 344.36 386.13 344.32 386.2"/><path d="M311.23,388.14Z"/><polygon points="295.12 389.56 295.12 389.56 295.1 389.56 295.12 389.56"/><polygon points="351.29 385.37 351.29 385.36 351.27 385.37 351.29 385.37"/><polygon points="328.88 386.63 328.88 386.63 328.87 386.63 328.88 386.63"/><path d="M296.67,278.47l-.15,0Z"/><path d="M295,303.35h0l-.16,0Z"/><path d="M354.32,297.86a24,24,0,0,0,.35-2.47c0-2.58-.13-5.21-.25-7.85l-.21-4-.11-2a18.2,18.2,0,0,0-.2-2.21,4.83,4.83,0,0,0-1.34-2.67,4.57,4.57,0,0,0-1.31-.86,6,6,0,0,0-1.33-.38,13.75,13.75,0,0,0-2.23-.12h-1.93c-2.55,0-5.05-.08-7.45-.25l-.42-.29c-.19-.43-2.65.63-3,.24l-1.12.19c-.31-.08-1-.16-.42-.25a6.08,6.08,0,0,0-1.8.18l-1.11-.27c-4.08-.2-7.55.31-11.84.21-5.16-.55-14.86-.05-20.45.24-7.86.64-17-1.06-25.05-.33a2,2,0,0,0-.93.13l-7.37-.06-5.15,0-2.3,0a17.24,17.24,0,0,0-2.65.18,6,6,0,0,0-3,1.29,4.54,4.54,0,0,0-1.51,2.91,5.9,5.9,0,0,0,.23,2.37,7,7,0,0,0,.53,1.33c-.14,0-.28.18-.42.49a13.29,13.29,0,0,0-.68,3.47c-.1,1.26-.11,2.29-.11,2.29-.06,2.06,0,3.77,0,5.32,0,.78,0,1.51,0,2.24l-.06,1.24a6.06,6.06,0,0,0,.29,2.33,4.18,4.18,0,0,0,.9,1.5,4.4,4.4,0,0,0-.62,1.8,5.94,5.94,0,0,0,.23,2.38,7.33,7.33,0,0,0,.53,1.33c-.14,0-.28.17-.42.48a13.29,13.29,0,0,0-.68,3.48c-.1,1.25-.11,2.28-.11,2.28-.06,2.07,0,3.77,0,5.32,0,.78,0,1.52,0,2.25l-.06,1.24a6,6,0,0,0,.29,2.32,4.3,4.3,0,0,0,.9,1.51,4.36,4.36,0,0,0-.62,1.79,5.94,5.94,0,0,0,.23,2.38,7,7,0,0,0,.53,1.33c-.14,0-.28.17-.42.48a13.47,13.47,0,0,0-.68,3.48c-.1,1.26-.11,2.29-.11,2.29-.06,2.06,0,3.77,0,5.32,0,.78,0,1.51,0,2.24l-.06,1.24a6.06,6.06,0,0,0,.29,2.33,4.72,4.72,0,0,0,3.4,3,8.77,8.77,0,0,0,1.2.19c.29,0,.58,0,.86,0,.57,0,1-.05,1.45-.08,1.85-.12,3.9-.24,6.28-.32,8.38,0,10.61.56,19.29.23,4.15,0,8.57-.18,12.61-.29,1.92-.45,5.32-.07,7.59-.46l.89.23a8.32,8.32,0,0,1,2.49-.1l-.05.07c1.17-.2,2.49-.1,3.07-.2l-.05.07,1.42-.05-.24.1a45.5,45.5,0,0,1,6-.19l-.16-.28c4,.27,5.41-.35,9,0l0,.07c4.51-.82,7.15.43,11.81-.35-.59.1.25.15.2.22,2.15-.11,4.44-.18,4.46-.75,1.57,0,1.28.16,1.49.38,0-.25,1.34-.37,2.56-.4l-.56.1,3.5-.13-.69-.46c1.87.11.44.58,2.29.43l0-.39.75,0a4.88,4.88,0,0,0,.78-.12,3.78,3.78,0,0,0,1.34-.59,4.2,4.2,0,0,0,1.54-2.66,24.4,24.4,0,0,0,.35-2.47c0-2.59-.13-5.21-.25-7.86l-.21-4-.11-2a18,18,0,0,0-.2-2.21,4.83,4.83,0,0,0-1.34-2.67,2.69,2.69,0,0,0-.33-.26,3.76,3.76,0,0,0,.55-.32,4.2,4.2,0,0,0,1.54-2.66,24,24,0,0,0,.35-2.47c0-2.58-.13-5.21-.25-7.85l-.21-4-.11-2a18.06,18.06,0,0,0-.2-2.2,4.83,4.83,0,0,0-1.34-2.67c-.1-.1-.22-.18-.33-.27a3.7,3.7,0,0,0,.55-.31A4.2,4.2,0,0,0,354.32,297.86ZM251.88,284.09a15,15,0,0,0,.12-2.81A3.27,3.27,0,0,1,253,279c.65-.57,1.72-.67,3.29-.47l-.16.1a40.57,40.57,0,0,0,9.29-.21c.44.58,3.31.06,4.25.25l-.09.05c2.46-.45,5.07.36,7.44,0a.9.9,0,0,1-.69.21c1.73-.07,4.09-.2,4.22.14,4.12-.09,9.88.06,12.52-.47l-.18.09c1.51-.36,2-.05,3.63-.24.1.05.22.07.2.09,1.64-.36,4.78-.06,6.11-.21l.09.22,3.26-.05-1.22-.05c.43-.61,2.47.39,4.84,0,2.22.08,4.5-1.27,6.8-1,1.1-.29-1,.46.68.24,0,.32-.77.2-.35.46,1.61-.15,2.65.32,4.63.11l.09.25a8.42,8.42,0,0,1,1.31-.13c-.23,2,.1,3.3.16,5.92-.11,2.48-.39,3.13-.32,5.7,0,1.23,0,2.54,0,3.74.2.57,0,1.58.14,2.25l-.12.26a1.55,1.55,0,0,1,0,.74l0,0a7.53,7.53,0,0,1,.07.92l0,0v.33a51,51,0,0,1-6.9.18c.16.28-1.66.15-1.2.51-3.55.41-6.48-.67-7.75.49a11.54,11.54,0,0,1-2.75-.3l.38-.06c-3,.13-3.9.15-6.14.15-1.12.12-1.29.66-3.3.55.65-.22-.18-.17-.93-.16.48,0,.63-.12-.36-.25a2.42,2.42,0,0,1-.55.15s-.05,0,0-.05c-1.25.09-1,.15-.45.17,0,0,0,.08.2.13-1.3-.25-3.63.06-3.79-.3-1.21.05-2.31.12-3.35.2a86,86,0,0,0-12.81-.14,1.86,1.86,0,0,0-.93.12l-7.37-.06-5.15,0-2.3,0a18.6,18.6,0,0,0-2.65.18,7.94,7.94,0,0,0-1.27.33,1.17,1.17,0,0,1-.35-.92,2.21,2.21,0,0,0-.18.51,3.26,3.26,0,0,1-.19-1.61c0-.57.05-1.09.08-1.58,0-1,.14-1.87.25-2.8-.36-2.55-.77-4.49-1-6s-.42-2.59-.56-3.3c0-.18-.07-.34-.11-.47C251.58,284.23,251.78,284.31,251.88,284.09Zm70.39,56.32a.42.42,0,0,0,.06.28l-.06,2.18s-.06,2.42.09,4.07a43.1,43.1,0,0,1-6.45.16c.16.28-1.66.15-1.2.51-3.55.41-6.48-.67-7.75.48a11.15,11.15,0,0,1-2.75-.29l.38-.06c-3,.13-3.9.15-6.14.15-1.12.12-1.29.66-3.3.55.65-.22-.18-.17-.93-.16.48,0,.63-.12-.36-.25a2.42,2.42,0,0,1-.55.15s-.05,0,0-.05c-1.25.09-1,.15-.45.17,0,0,0,.07.2.13-1.3-.26-3.63.06-3.79-.3-3.77.13-6.46.54-9.6.72-.35-.19.38-.36,1.29-.44l-2.23.09c0-.27,1.28-.17,2-.23-2.66-.4-5.46.5-8.58.14l-.64.22-.18,0c0,.11-.69.27-1.15.31-.44-.23,0-.54-1.51-.51a26,26,0,0,0-5.05.3c.86,0,.58.17.21.25a13.55,13.55,0,0,0-1.81-.1l-.06-.24c-.1.23-2,.28-2.3.4-.44-.23,1.19-.21,1.38-.39l-4.63.1c-1.59.25.28.29-.48.58-.34,0-.67,0-1,0a2.88,2.88,0,0,1-.82-.1,1.27,1.27,0,0,1-1-1.31,1.92,1.92,0,0,0-.18.51,3.26,3.26,0,0,1-.19-1.61c0-.57.05-1.09.08-1.59,0-1,.14-1.86.25-2.79-.36-2.56-.77-4.49-1-6s-.42-2.59-.56-3.3c0-.18-.07-.34-.11-.47.26.33.46.42.56.2a15.06,15.06,0,0,0,.12-2.81,3.47,3.47,0,0,1,.84-2.2,3.81,3.81,0,0,0,.45.13,7.51,7.51,0,0,0,1.2.2l.86,0c.57,0,1-.06,1.45-.08,1.85-.12,3.9-.24,6.28-.32,8.38,0,10.61.55,19.29.23,4.15,0,8.57-.19,12.61-.3,1.92-.45,5.32-.07,7.59-.45l.89.23a8.32,8.32,0,0,1,2.49-.11l-.05.07c1.17-.19,2.49-.1,3.07-.2l-.05.07,1.42,0-.24.1a42.3,42.3,0,0,1,6-.19l-.16-.29a29.77,29.77,0,0,0,3.34.05,10.93,10.93,0,0,0,2.23,0l.09.24c.3-.05.61-.08.91-.11a30.43,30.43,0,0,0,.05,5.88C322.84,335.33,322,338,322.27,340.41ZM323,310h.2a11.67,11.67,0,0,1-.51,1.93c-.13,3.06.31,6.35-.08,9.19l-.14.13c-.22,0,.3.79.1.89l.09.33a.42.42,0,0,1,0,.1,46.85,46.85,0,0,1-6.72.17c.16.29-1.66.15-1.2.52-3.55.4-6.48-.68-7.75.48a11.67,11.67,0,0,1-2.75-.29l.38-.07c-3,.13-3.9.15-6.14.15-1.12.13-1.29.66-3.3.56.65-.22-.18-.17-.93-.16.48,0,.63-.12-.36-.25a2,2,0,0,1-.55.14s-.05,0,0-.05c-1.25.09-1,.16-.45.18,0,0,0,.07.2.13-1.3-.26-3.63.06-3.79-.3-1.21,0-2.31.11-3.35.19a87.32,87.32,0,0,0-12.81-.14,2.13,2.13,0,0,0-.93.12l-7.37-.06-5.15,0-2.3,0a18.73,18.73,0,0,0-2.65.19,6.27,6.27,0,0,0-1.27.33,1.18,1.18,0,0,1-.35-.92,2,2,0,0,0-.18.5,3.24,3.24,0,0,1-.19-1.6c0-.58.05-1.1.08-1.59,0-1,.14-1.86.25-2.8-.36-2.55-.77-4.48-1-6s-.42-2.58-.56-3.29c0-.19-.07-.34-.11-.48.26.34.46.42.56.21a15.06,15.06,0,0,0,.12-2.81,3.5,3.5,0,0,1,.84-2.21l.45.14a7.46,7.46,0,0,0,1.2.19,8.29,8.29,0,0,0,.86,0c.57,0,1-.05,1.45-.08,1.85-.12,3.9-.23,6.28-.32,8.38,0,10.61.56,19.29.23,4.15,0,8.57-.18,12.61-.29,1.92-.45,5.32-.07,7.59-.46l.89.23A8.32,8.32,0,0,1,306,303l-.05.07c1.17-.2,2.49-.1,3.07-.2l-.05.07,1.42,0-.24.1a43.79,43.79,0,0,1,6-.18l-.16-.29a29.49,29.49,0,0,0,3.34,0,10.26,10.26,0,0,0,2.23,0l.09.25a10.65,10.65,0,0,1,1.24-.13c.27,1.25-.31,2,0,3.34,0-.17-.07.07-.11.06,0,.63.05,1.31.33,1.33,0,.46-.09.37-.21.43.13,0,.17.41.18.77l-.05-.17,0,1,.24-.2C323.18,309.86,323,309.44,323,310Zm27.55,33.48-.08,2a7.49,7.49,0,0,1-.05.79,1.38,1.38,0,0,1-.06.16c.28.06.25.23.15.41l-.19-.19c-.05.16-.16.18-.22.16s-.08-.09-.13-.16a.68.68,0,0,0-.4-.17,5.13,5.13,0,0,0-1.32,0l-.48.35c-2.43.52-1.32-.5-4,.2,1.07-.05.51.55-.81.46l.33-.25a8.81,8.81,0,0,1-1.46.12c.43-.14.22-.35-.85-.3l.72-.31-2,.47c-1.57-.24-4.05.11-4.7-.22,0,0-3.37-.12-4.14.26.67-.24-1.19-.31-.66-.58a12.61,12.61,0,0,1-4.49.25l.2,0c-.83-.05-1.59-.05-2.33,0,.11-.4.24-.88.38-1.47l0,.06a7,7,0,0,0,0-2.77c.29-.13,0-1,.15-1.26l0,0c-.21-.73.21-1.5,0-2.2a.2.2,0,0,1,.1.2c0-.51-.08-1.21.09-1.25a18.35,18.35,0,0,0-.17-3.71l0,.06c-.17-.45,0-.58-.1-1.08,0,0,0-.06,0-.06a11.38,11.38,0,0,1-.07-1.81l.11,0v-1l0,.36c-.3-.13.2-.73,0-1.43.05-.66-.62-1.35-.46-2-.14-.32.23.29.13-.19.16,0,.1.23.22.1a1.51,1.51,0,0,1,0-.37,16.44,16.44,0,0,0,4.2,0c2.67-.21,1.79.74,4.57.25l1.09.34c1.19.05.85-.42,2.17-.25-.08.21,1.67.17.9.37,3,.33,6.07-.47,10,.09a4.43,4.43,0,0,1,1.7-.26,4.55,4.55,0,0,0,1.14,0c0,.08.31.24.39.47s0,.31-.24.16c-.05,0-.09-.07,0-.12l-.2.14c0,.16-.06.17,0,.28s.14.52.22.94a20.94,20.94,0,0,1,.32,3.1c.06-.66,0-1.53.2-.95l0,2.06-.22-.42,0,3.08.25-.43c-.09,1.51-.51,2-.11,3.73.22.77.31-1.43.43.16C350.7,340.87,350.64,342.13,350.56,343.45Zm0-24.38-.08,2a7.52,7.52,0,0,1-.05.8.77.77,0,0,1-.06.15c.28.06.25.23.15.41l-.19-.18c-.05.15-.16.18-.22.16s-.08-.1-.13-.17a.84.84,0,0,0-.4-.17,6.3,6.3,0,0,0-1.32,0l-.48.36c-2.43.52-1.32-.51-4,.2,1.07-.05.51.54-.81.45l.33-.24a8.81,8.81,0,0,1-1.46.12c.43-.14.22-.36-.85-.3l.72-.31-2,.46c-1.57-.23-4.05.12-4.7-.21,0,0-3.37-.13-4.14.25.67-.24-1.19-.3-.66-.58a12.38,12.38,0,0,1-4.49.25l.2,0c-.48,0-.94-.05-1.39-.05l0-.06c0-.36-.21-.26-.12-.65.11,0,.09-.49.19-.26.18-.88-.21-1.8.09-3-.2-.26-.07-.85-.22-1,.09,0,0-1.17.22-.51,0,.05,0,.15,0,.15l.13.08c.24-.66-.11-1.21-.07-1.87,0,.19,0,.45-.11.28l0-.61.1.13.08-.91-.13.12c.07-.44.29-.6.12-1.1-.1-.23-.18.42-.21-.06s.24-1.48.29-2.24c-.15.07-.14-.14-.16-.35l.12,0c-.16-.81.28-.29.16-1.1l-.18-.14c-.23-.73.27-.39-.05-1.19,0,.31-.28.14-.22-.25l.12.1a2,2,0,0,1-.05-.43c.07.13.18.07.16-.25l.15.22-.21-.61c.13-.46,0-1.2.16-1.39,0,0,.1-1-.09-1.23.12.21.17-.34.3-.19a2.22,2.22,0,0,1-.08-1.33l0,.06s0-.08,0-.12a10.84,10.84,0,0,0,3.19,0c2.67-.2,1.79.74,4.57.26l1.09.33c1.19.06.85-.41,2.17-.25-.08.21,1.67.17.9.37,3,.33,6.07-.47,10,.09a4.44,4.44,0,0,1,1.7-.25,5.11,5.11,0,0,0,1.14,0c0,.08.31.24.39.47s0,.3-.24.16c-.05,0-.09-.08,0-.12l-.2.14c0,.15-.06.17,0,.27s.14.52.22.95a20.8,20.8,0,0,1,.32,3.1c.06-.66,0-1.54.2-1l0,2.07-.22-.43,0,3.08.25-.43c-.09,1.51-.51,2.05-.11,3.74.22.76.31-1.43.43.15C350.7,316.48,350.64,317.74,350.56,319.07Zm0-24.39-.08,2a7.91,7.91,0,0,1-.05.8c0,.06,0,.1-.06.15.28.06.25.23.15.41l-.19-.18c-.05.15-.16.17-.22.15s-.08-.09-.13-.16a.68.68,0,0,0-.4-.17,5.13,5.13,0,0,0-1.32,0l-.48.35c-2.43.52-1.32-.5-4,.21,1.07-.06.51.54-.81.45l.33-.25a7.84,7.84,0,0,1-1.46.12c.43-.13.22-.35-.85-.3l.72-.31-2,.47c-1.57-.24-4.05.11-4.7-.22,0,0-3.37-.12-4.14.26.67-.24-1.19-.31-.66-.58a12.61,12.61,0,0,1-4.49.25l.2,0-1,0c.05-.37,0-.66-.23-.85,0-.48.14-.56.18-.81l0,.12a15.93,15.93,0,0,1,0-1.82c0-.34-.32-.39-.25-1,.11.2.09,0,.1-.27,0,.14.05.19.12-.1a.49.49,0,0,1-.06-.17h0c0-.37-.06-.3-.08-.13,0,0,0,0-.07.06.15-.39,0-1.08.19-1.12,0-1.12-.2-1.92-.25-2.85.09-.11.17.11.2.38l0-.66c.14,0,.07.38.1.59.23-.78-.19-1.62,0-2.54l-.1-.19v-.06s-.12-.21-.14-.34.27,0,.27-.44a4.39,4.39,0,0,0-.1-1.5c0,.25-.08.17-.12.06s.12-.36.07-.54h.16c-.15.08-.15-.6-.22-.69.12-.13.1.36.18.42V282.3c-.11-.49-.15.08-.28-.15a4.67,4.67,0,0,1,0-1.35l-.15.15a4.44,4.44,0,0,1,.08-1.83c-.05-.29-.1-.54-.14-.78a14.22,14.22,0,0,0,3.86,0c2.67-.21,1.79.74,4.57.25l1.09.34c1.19.05.85-.41,2.17-.25-.08.21,1.67.17.9.37,3,.33,6.07-.47,10,.09a4.63,4.63,0,0,1,1.7-.26,4.1,4.1,0,0,0,1.14,0c0,.09.31.24.39.48s0,.3-.24.15c-.05,0-.09-.07,0-.12a1,1,0,0,0-.2.15c0,.15-.06.16,0,.27s.14.52.22.95a20.66,20.66,0,0,1,.32,3.09c.06-.66,0-1.53.2-.95l0,2.06-.22-.42,0,3.08.25-.43c-.09,1.51-.51,2.05-.11,3.74.22.76.31-1.44.43.15C350.7,292.1,350.64,293.36,350.56,294.68Z"/><polygon points="348.26 297.75 348.26 297.75 348.49 297.57 348.26 297.75"/><path d="M295,327.73h0l-.16,0Z"/><polygon points="348.26 322.13 348.26 322.13 348.49 321.96 348.26 322.13"/><path d="M271.27,348.6c0-.06-.17-.1-.63-.11Z"/><path d="M295,352.11h0l-.16,0Z"/><polygon points="348.26 346.52 348.26 346.52 348.49 346.34 348.26 346.52"/><path d="M324.77,286.71s.06,0,.07-.18Z"/><path d="M322.76,293.7h0a.07.07,0,0,1,0-.05Z"/><polygon points="324.99 309.52 324.99 309.52 325.07 309.6 324.99 309.52"/><polygon points="260.97 291.87 260.96 291.87 260.94 291.88 260.97 291.87"/><path d="M259.11,290.22a1.79,1.79,0,0,0,.65,1,2.88,2.88,0,0,0,1.21.68c.25-.12.52.18.78.05l.07.13c.09-.05.18-.07.25,0v0c.13-.08.26,0,.32-.06v0h.14l0,.05a1.13,1.13,0,0,1,.59-.09l0-.14c.4.1.47-.23.84-.15v0c.25-.5.77,0,1-.61,0,.07.06.05.08.08.15-.16.3-.33.11-.54.11-.1.15,0,.24,0-.09-.09,0-.21,0-.3v.07a2.75,2.75,0,0,0,.17-.29l-.23-.09c.15-.09.26.14.31,0l-.17-.11c.15-.16.49-.15.72-.35a2.38,2.38,0,0,0,.05-1.6c-.15-.51-.35-.94-.52-1.46l.09-.12c.16-.16-.43,0-.3-.18l-.16,0c0-.05,0-.13.05-.12-.08-.09-.1-.06-.21-.06l0-.18c-.34-.37-.81-.28-1.22-.41a1.23,1.23,0,0,0-1-.11,2.51,2.51,0,0,0-.91.48,2.94,2.94,0,0,1-1,.55l-.25.13a1.08,1.08,0,0,0-.65.05,1.52,1.52,0,0,0-1,1A4,4,0,0,0,259,289,4,4,0,0,0,259.11,290.22Zm1.78-1,.2-.1,0,0c.2-.2.28-.32.15-.58.26.1.12-.17.23-.17h0c-.11-.24.31-.14.23-.36,0,0,.08.07.07.1s.06-.24.19-.14c.12-.2.37-.3.34-.59l0,.05c0-.2.07-.08.11-.2s0,0,0,0c0-.2.23-.12.27-.21l0,.1.16-.07h-.07c0-.31.17.15.25-.05.1,0,.25-.65.4-.49.09-.13-.08.22,0,.13,0,.16,0,.09,0,.22.11-.06.11.19.23.11l0,.12c.2-.18.14.22.3.07s-.16.34.08.21l-.09.15c0,.05.17-.12.15,0s0,.1-.12.15.33.07.13.33c.21,0,.11.08.27.07-.08,0,0,.18-.19.12,0,0,0,0,0,0l-.13,0c-.21.11.15.13.12.23s0-.06.11,0v.09l-.11,0a.75.75,0,0,1-.07.12h.13c-.07.06-.29,0-.12.13s.18,0,.21.06l-.34.19c.13,0,.12.07.13.11l-.11-.06c.09.18-.25-.11-.19,0l-.06-.05.19.17c.13.24-.23-.13-.05.18,0-.05.22.17.13.18l-.07-.09s0,.08,0,.08-.11-.13-.13-.08l-.08-.13a1.43,1.43,0,0,1,.08.22c-.13-.05-.14.14-.26,0a.13.13,0,0,0-.12.19c0-.12-.12-.12-.16-.25,0,.13,0,.28-.14.16h0c-.19-.08-.24.27-.43.13,0,.14-.08.07,0,.25-.19.2-.31-.36-.41.2-.09,0-.09-.15-.12-.18l0,0a.39.39,0,0,1-.31,0c-.07,0-.17.29-.26.18.07-.08,0-.08,0-.09s0,0,0-.13a.23.23,0,0,1-.05.05v0c-.07,0-.08,0-.05.06a.14.14,0,0,0,0,.07c0-.15-.18-.09-.1-.25-.17-.06-.4,0-.57-.09a.23.23,0,0,1,.2-.09l-.1-.06c.11-.08.1,0,.14,0,.09-.21-.33-.07-.22-.3l-.11,0h0a.22.22,0,0,1-.16,0A.82.82,0,0,0,260.89,289.22Z"/><polygon points="271.98 290.99 271.98 290.98 271.96 290.98 271.98 290.99"/><path d="M272,291c.27,0,.38.36.67.34v.14c.1,0,.19,0,.23.1l0,0c.14,0,.23.08.3.06l0,0,.14,0,0,0a1.14,1.14,0,0,1,.57.11l0-.14c.34.22.49-.07.81.12v0c.35-.4.71.19,1-.31,0,.06,0,.07.06.1.17-.11.35-.23.21-.48.12-.06.14,0,.21.11-.06-.11,0-.21.09-.28v.07a2.18,2.18,0,0,0,.22-.21l-.19-.15c.15,0,.21.2.29,0l-.14-.14c.18-.11.48,0,.74-.11a2.12,2.12,0,0,0,.43-1.36c0-.47,0-.89,0-1.36l.13-.07c.2-.09-.38-.15-.2-.24l-.13-.06s0-.12.1-.09-.07-.08-.15-.11l.06-.16c-.11-.41-.53-.51-.78-.79a1.08,1.08,0,0,0-.74-.56,2.27,2.27,0,0,0-1,0,3.33,3.33,0,0,1-1.14,0,1.07,1.07,0,0,0-1,.49s-.05.08,0,.1h0a.63.63,0,0,0-.21-.24.81.81,0,0,0-.62.12c-.76.45-.64,1.09-.67,1.95s-.37,1.1.05,1.88A2.7,2.7,0,0,0,272,291Zm.92-2.61s-.09,0-.13,0,.13-.05.08-.08l.16,0a.19.19,0,0,1-.15-.08l.05,0a.1.1,0,0,0,.07.05v-.08a2.12,2.12,0,0,1,.4-.1l0,0c.17-.1.23-.14.11-.38.24.16.11-.09.21-.05l0,0c-.08-.24.26,0,.21-.2,0,0,0,.09,0,.1s.08-.16.16,0c.11-.11.27-.06.36-.33v.05c.05-.19.08,0,.15-.12v0c.09-.17.21,0,.28-.06l0,.11h.14l-.05,0c.12-.28,0,.22.2.08.06.07.52-.45.55-.24.14-.07-.18.16,0,.12-.1.13-.09.06-.15.17.11,0,0,.21.12.19l-.08.09c.25-.07,0,.25.21.18s-.28.24,0,.22l-.14.1c0,.05.2,0,.15,0s-.07.08-.17.08.28.17,0,.33c.21,0,.09.11.24.14-.09,0,0,.16-.22,0,0,0,0,0,0,0l-.12,0c-.23,0,.11.15.05.22s0,0,.12,0a.25.25,0,0,1,0,.07l-.09,0-.09.08.12,0c-.08,0-.28,0-.14.07s.17,0,.18.11-.28,0-.35.06c.11.09.09.1.1.14l-.09-.09c.06.18-.21-.17-.17,0l-.05-.07.15.22c.08.25-.18-.19-.07.14,0,0,.17.22.09.2l-.05-.11s0,.09,0,.08-.08-.16-.1-.12l-.05-.15a.91.91,0,0,1,0,.23c-.1-.09-.13.09-.21-.06,0,0-.13,0-.12.13,0-.11-.07-.14-.08-.28,0,.13-.08.25-.13.11h0c-.11-.14-.23.19-.32,0,0,.14-.07,0-.09.23-.21.14-.07-.42-.36.08-.08,0,0-.16,0-.2l0,0a.28.28,0,0,1-.22-.11c-.07,0-.26.2-.28.09s.05-.07,0-.09.06,0,.08-.1l-.07,0,0,0c-.06,0-.08,0-.07,0l-.05.05c.07-.13-.11-.13,0-.24-.12-.11-.34-.13-.47-.26a.25.25,0,0,1,.22,0L273,289c.12,0,.09,0,.12,0,.17-.16-.28-.16-.1-.34h-.09a.31.31,0,0,1-.16,0c.12,0,.27,0,.26-.08S273,288.46,272.9,288.37Z"/><polygon points="286.32 291.28 286.32 291.28 286.3 291.29 286.32 291.28"/><path d="M285.3,290.78a2,2,0,0,0,1,.5c.21-.15.43.11.63,0l.06.13c.06-.06.13-.1.19,0v0c.09-.09.19,0,.23-.09v0l.1,0v.06a.61.61,0,0,1,.43-.13l-.05-.14c.33.08.32-.24.62-.16v0c.09-.46.61,0,.65-.55,0,.07.06.05.08.08.09-.14.19-.27,0-.46.07-.08.12,0,.22.05a.17.17,0,0,1,0-.24v.06a2,2,0,0,0,.1-.21l-.22-.1c.12-.05.26.14.27,0l-.17-.1c.11-.11.42-.05.62-.16a1.65,1.65,0,0,0,.1-1.1,5.51,5.51,0,0,1-.15-1.1l.12-.09c.19-.11-.37,0-.21-.15l-.12,0s0-.1.09-.09-.07-.06-.15-.07l.06-.14c-.11-.32-.48-.32-.69-.54-.15-.47-1.05-.54-1.46-.34a2.22,2.22,0,0,1-.95.12c-.36,0-.75.19-.82.55,0,0,0,.08,0,.1a2.15,2.15,0,0,0-.33.46,1.2,1.2,0,0,0-.1.3.65.65,0,0,0-.37,0l-.19.12c-.66.5-.39,1.16-.16,1.86S284.66,290.27,285.3,290.78Zm.8-2.46-.05-.09a3.18,3.18,0,0,1,.95-.42h0c.12-.05.15-.05,0-.21.26.12.06-.06.16,0v0c-.14-.19.21,0,.1-.13l.06.08s0-.13.1,0c0-.07.1,0,.09-.29v.05c0-.19,0,0,0-.13v0c0-.18.11,0,.15-.09l0,.11h.08l0,0c.09-.3,0,.19.12,0,0,.05.41-.52.43-.33.11-.1-.16.17,0,.12-.08.13-.07.07-.13.18s0,.18.09.13l-.08.1c.21-.12,0,.2.17.09s-.26.26,0,.18l-.13.11s.19-.09.13,0-.06.06-.16.09.27,0,0,.17c.2,0,.09,0,.24.05-.08,0,0,.09-.2,0,0,0,0,0,0,0h-.13c-.22,0,.13.07.09.13s0,0,.12,0l0,0-.1,0-.07.05.13,0c-.07,0-.28,0-.12.06s.18,0,.2.06-.24,0-.31.08c.13.06.12.07.14.1l-.11-.06c.12.14-.25-.11-.16,0l-.07,0,.21.16c.17.19-.22-.13,0,.12,0,0,.22.16.15.16l-.08-.09s0,.07,0,.07-.13-.12-.13-.09l-.1-.11c0,.06.09.12.13.19-.12-.07-.06.09-.18,0s-.1,0,0,.14c-.06-.1-.11-.12-.18-.24.07.11.06.24,0,.12h0c-.12-.1-.06.24-.19.09,0,.14,0,.07,0,.25s-.18-.35-.2.22c-.05,0-.05-.14-.07-.17v0c-.07,0-.1,0-.15,0s-.11.31-.15.23,0-.09,0-.09,0-.05,0-.12,0,0,0,.06v0s0,.06,0,.08l0,.06c0-.14-.09,0,0-.19-.08,0-.25.11-.37.08a.4.4,0,0,1,.18-.12h-.06c.1-.09.07,0,.1,0,.14-.17-.24,0-.11-.14l-.11,0h0a.33.33,0,0,1-.15,0c.1-.06.24-.1.23-.13s-.08-.06-.15-.09a.21.21,0,0,1-.12,0s.1-.06,0-.07l.15,0c-.14,0-.16,0-.23,0,.12,0,.11,0,.2,0s0,0,0-.11-.15,0-.29,0-.13-.11,0-.15H286C285.89,288.41,285.94,288.33,286.1,288.32Z"/><polygon points="260.88 316.25 260.88 316.25 260.86 316.25 260.88 316.25"/><path d="M267.08,314.17l-.1-.09s.08-.09.13,0,0-.09-.1-.15l.13-.1c.06-.37-.26-.6-.34-.93.11-.52-.64-1.11-1.11-1.21s-.53-.3-.81-.53a.87.87,0,0,0-.93-.26s-.07,0-.07.06a3.37,3.37,0,0,0-.55,0,1.82,1.82,0,0,0-.38.05,1.5,1.5,0,0,0-.61.32.46.46,0,0,0-.09.57,4.43,4.43,0,0,0,.82.8v.05c.2.07.3.09.41-.16,0,.29.14,0,.19.12v0c.12-.22.2.19.31,0,0,0,0,.1,0,.1s.18-.07.15.09c.17,0,.31.14.52-.05l0,0c.13-.13.07,0,.18,0l0,0c.16-.11.17.09.25.06l-.07.09.1.07v-.05c.24-.2-.09.19.12.14,0,.07.65-.17.58,0,.15,0-.23.05-.1.08-.14.07-.1,0-.21.08.09,0-.1.17,0,.21l-.12,0c.26,0-.1.22.12.24s-.36.1-.11.18l-.17,0s.2,0,.12.07-.09,0-.19,0,.2.22-.09.21c.17.1,0,.1.17.18-.08,0-.07.08-.2-.08s0,0,0,0l-.1-.07c-.19-.11.06.13,0,.15s0,0,.09.07l0,0-.06-.08h-.1l.09.1c-.07,0-.21-.2-.14,0s.13.11.11.18a2,2,0,0,0-.34-.12c.06.13,0,.14,0,.17l0-.11c0,.19-.12-.25-.16-.09l0-.09.05.26c0,.26-.11-.24-.14.11,0,0,.08.26,0,.22v-.12s0,.08-.05.06,0-.17-.06-.14v-.16l-.05.23c-.08-.12-.18.05-.21-.12,0,0-.14-.07-.18.11,0-.11-.05-.16,0-.29,0,.13-.16.23-.19.09v0c-.13-.15-.29.16-.38,0,0,.14-.07.05-.11.23-.2.13-.08-.43-.36.08-.07,0,0-.16,0-.2l0,0a.25.25,0,0,1-.2-.08c-.06,0-.24.22-.26.12s.05-.07,0-.09.06,0,.08-.1l-.06,0v0c-.06,0-.07,0-.07,0l0,.05c.06-.13-.1-.1,0-.22-.11-.07-.32-.07-.44-.17a.3.3,0,0,1,.21,0l-.06-.06c.13,0,.09,0,.12,0,.18-.15-.27-.11-.09-.26h-.09l-.15,0c.12,0,.27,0,.26-.06h0c.07,0-.08-.08-.12-.14s-.09,0-.12,0,.11,0,.07,0l.15,0c-.14,0-.13-.11-.18-.15.11,0,.07.08.16.11a.61.61,0,0,1,0-.13c-.07-.11-.13-.07-.24-.16s-.05-.19.08-.18l-.13-.07c0-.18.1-.23.25-.17a4.52,4.52,0,0,1,.22-.87.46.46,0,0,0-.47-.65.83.83,0,0,0-.25,0,1.16,1.16,0,0,0-.94.66,3.69,3.69,0,0,0-.31,1.18,4.88,4.88,0,0,0-.15.53,1.6,1.6,0,0,0,.17,1.4,2.48,2.48,0,0,0,.77.89c.26,0,.38.31.65.26v.14c.09,0,.17,0,.2.07l0,0c.13,0,.21.05.27,0l0,0,.12,0,0,0a.69.69,0,0,1,.48.09l0-.15c.27.23.42-.05.66.17v0c.34-.35.52.29.85-.09,0,.05,0,.07,0,.11.15-.06.32-.1.28-.39.1,0,.1.08.13.18a.2.2,0,0,1,.15-.22l0,.06.23-.1-.11-.22c.14,0,.11.27.22.18l-.06-.19c.17,0,.38.22.63.27a1.93,1.93,0,0,0,.95-.94c.24-.42.34-.83.56-1.21l.16,0C267.4,314.44,266.88,314.18,267.08,314.17Z"/><polygon points="271.37 314.52 271.37 314.52 271.36 314.5 271.37 314.52"/><path d="M277.54,312.28c-.32-.19-.45-.52-.76-.85a1,1,0,0,0-1.1-.41s-.08,0-.08.06a2.59,2.59,0,0,0-.68,0,1.76,1.76,0,0,0-.45.15.41.41,0,0,0-.11.07.58.58,0,0,0-.18-.32.66.66,0,0,0-.5-.11c-.63,0-.68.55-1.12,1.14-.47.44-.86.48-1.07,1.29a2.52,2.52,0,0,0-.12,1.19c.21.17,0,.53.28.71l-.09.12c.08.06.15.13.12.23h0c.13.08.14.22.21.25l0,0,.09.12h-.05a1.65,1.65,0,0,1,.43.45l.09-.11c.19.39.48.22.66.53l0,0a.46.46,0,0,1,.51.14.36.36,0,0,0,.5.07c-.06,0,0,.08,0,.11.19,0,.38,0,.39-.31.12,0,.09.09.11.2a.21.21,0,0,1,.2-.19l0,.05.26-.06-.07-.23c.13,0,.06.28.19.21l0-.2c.18,0,.35.28.58.36a2.18,2.18,0,0,0,1.08-.66,5.24,5.24,0,0,1,.91-.85l.14.05c.2.09-.15-.36,0-.29l0-.13s.11,0,.13,0,0-.1,0-.18l.16,0c.23-.33,0-.69.09-1C278.43,313.46,278,312.57,277.54,312.28Zm-.69,1.54c-.16,0-.1,0-.23,0,.08.08-.16.11-.06.2h-.12c.21.15-.2.16,0,.27s-.37-.06-.18.12l-.17,0s.17.12.08.13-.11,0-.18-.07.07.32-.24.23c.12.17,0,.13.06.26-.06-.07-.13.09-.18-.12t0,0l-.07-.1c-.19-.14,0,.19-.13.2s.06,0,.09.08l-.08,0,0-.1h-.13l.07.11c-.08,0-.18-.23-.17,0s.12.14.07.2a1.67,1.67,0,0,0-.35-.15c0,.13,0,.13,0,.17l0-.12c-.07.19-.08-.27-.15-.12v.18c-.07.25-.06-.25-.14.08,0,0,0,.28,0,.22v-.12s0,.08-.06,0,0-.17,0-.15l0-.15-.09.22c-.05-.13-.16,0-.15-.16,0,0-.09-.1-.16.06.05-.1,0-.16.06-.28-.05.12-.17.18-.14.05v0c0-.15-.24.09-.18-.09-.1.11-.06,0-.19.16s.24-.3-.28-.07c-.06,0,.1-.11.12-.14h0a.17.17,0,0,1-.08-.16c-.06,0-.32,0-.26-.11s.08,0,.08,0,.06,0,.13,0l-.07,0h0c0-.05-.07,0-.09,0h-.06c.13-.05,0-.16.18-.14,0-.14-.16-.31-.17-.48a.24.24,0,0,1,.17.13v-.1c.12.06.05.08.06.12.24,0-.1-.3.15-.32l-.07-.08h0a.21.21,0,0,1-.09-.13c.11.05.22.16.25.1s.05-.16.06-.26-.08,0-.1-.08.13,0,.11,0l.12.11c-.12-.1,0-.19-.08-.24s0,.11.08.18a1.29,1.29,0,0,1,.16-.17c0-.15-.11-.1-.17-.24s0-.21.17-.19l-.11-.09,0,0a3.62,3.62,0,0,1,1,.38l0,0c.15.05.19.07.24-.19.06.28.11,0,.16.11v0c.09-.22.14.19.23,0,0,0,0,.1,0,.1s.14-.07.09.09c.12,0,.14.1.39,0l0,0c.17-.09.07,0,.17,0s0,0,0,0c.19,0,.12.14.21.15l-.1.05a.61.61,0,0,0,.07.1v-.05c.3-.09-.15.15.06.18,0,.07.67.11.52.26C277.12,313.83,276.74,313.73,276.85,313.82Z"/><polygon points="284.32 312.86 284.32 312.86 284.31 312.84 284.32 312.86"/><path d="M290.12,311.9c-.33-.2-.46-.55-.76-.89a1.21,1.21,0,0,0-1.06-.45s0-.05,0-.06a.7.7,0,0,0-.5-.27c-.74-.14-1,.38-1.56.85-.59.31-.93.24-1.35.85a3.09,3.09,0,0,0-.55.93c.12.21-.25.53-.13.83l-.14.07a.27.27,0,0,1,0,.29h0c.07.13,0,.28.07.34h0l0,.16-.06,0a2.6,2.6,0,0,1,.24.63l.12-.07c.05.47.4.41.53.79l0,0a.71.71,0,0,1,.56.31c.16.16.32.29.56.17-.06,0,0,.08,0,.12.2,0,.4,0,.44-.26.12,0,.09.11.08.22,0-.13.13-.16.23-.16l-.05,0,.27,0,0-.24c.14.08,0,.29.17.24v-.2c.18,0,.31.33.54.45a2.25,2.25,0,0,0,1.23-.5,8.85,8.85,0,0,1,1.07-.78l.13.07c.19.11-.1-.39.07-.29l0-.14c.05,0,.12,0,.13,0,.06-.08,0-.1,0-.19l.16,0c.27-.31.14-.7.23-1.08a1.08,1.08,0,0,0,.05-1A2.05,2.05,0,0,0,290.12,311.9Zm-.72,1.56c-.16,0-.1,0-.23,0,.07.09-.17.1-.08.2l-.12,0c.19.17-.21.13,0,.27s-.36-.1-.2.12l-.17-.06s.16.15.06.14-.11,0-.17-.08,0,.34-.28.21c.1.19,0,.13,0,.27-.05-.07-.15.07-.17-.14,0,0,0,0,0,0l-.05-.11c-.18-.17-.07.17-.17.18s.07,0,.08.09h-.09l0-.1-.12,0,.05.12c-.08-.05-.15-.25-.17-.06s.09.15,0,.21a1.68,1.68,0,0,0-.36-.21c0,.14,0,.13,0,.16v-.12c-.12.17,0-.27-.15-.14v-.08l0,.26c-.13.23,0-.26-.18.06,0,0,0,.27-.07.21l0-.12s-.06.07-.07,0,0-.17,0-.16l.06-.14-.12.2c0-.13-.17,0-.14-.18l0,0s0,0-.08.09c.06-.1.06-.15.13-.26-.06.12-.17.18-.08.06h0c.09-.1-.21.07-.08-.06-.14.07-.07,0-.25.09s.37-.17-.22-.17c0,0,.14,0,.18-.06h0c0-.07,0-.1,0-.14s-.28-.16-.18-.22.08,0,.1,0,0,.05.12,0l0,0h0c0-.07,0-.08-.06-.06l-.06,0c.15,0,.1-.16.25-.07.07-.18,0-.41.09-.58a.2.2,0,0,1,.1.19l.06-.11c.09.1,0,.11,0,.15.24,0,0-.36.3-.32l0-.1h0a.23.23,0,0,1-.05-.16c.09.08.17.21.22.16s.11-.15.15-.25-.07-.05-.07-.1.11.06.11,0l.09.14c-.09-.12,0-.19,0-.25h0c.06.08,0,.11,0,.19l.18-.12.16.05,0,0c.16,0,.2,0,.23-.22.09.27.11,0,.16.09v0c.08-.23.15.17.22,0a1,1,0,0,1,0,.1s.12-.08.07.08c.1,0,.16.12.41,0l0,0c.17-.08.07,0,.18,0l0,0c.19-.05.12.15.21.16l-.1,0,.07.11V313c.3-.07-.15.15.06.19,0,.07.66.14.5.29C289.66,313.5,289.29,313.36,289.4,313.46Z"/><polygon points="261.63 339.31 261.63 339.31 261.61 339.3 261.63 339.31"/><path d="M267.86,338.47l-.1-.1s.08-.09.13,0,0-.09-.1-.15l.13-.11c.06-.39-.26-.63-.35-1,.1-.54-.69-1.15-1.17-1.26a2.63,2.63,0,0,1-.95-.52,1,1,0,0,0-1.07-.12s-.05,0-.06.05l-.12-.05a1.07,1.07,0,0,0-.23,0c-.91-.05-1.15.57-1.61,1.26s-.88.69-.93,1.61a2.44,2.44,0,0,0,.2,1.27c.25.11.19.48.45.58L262,340c.09,0,.17.08.16.17l0,0c.13,0,.17.16.23.17l0,0,.1.09-.05,0a.94.94,0,0,1,.44.33l.08-.12c.19.35.46.16.65.47v0a.49.49,0,0,1,.53.12.41.41,0,0,0,.55,0c-.06.05,0,.08,0,.11.21,0,.42-.07.39-.36.12,0,.11.08.15.19a.2.2,0,0,1,.18-.22l0,.05.27-.11-.12-.21c.15,0,.12.26.24.16l-.07-.18c.19,0,.42.19.68.21a2.06,2.06,0,0,0,.92-1c.21-.42.32-.83.55-1.23l.15,0C268.17,338.75,267.66,338.48,267.86,338.47Zm-1.48-.94c-.14.07-.11,0-.21.08.1,0-.1.18,0,.22l-.12,0c.26.05-.11.23.12.26s-.36.11-.11.19l-.17,0s.2,0,.12.08-.09.05-.19,0,.2.25-.11.26c.18.11,0,.11.17.2-.09,0-.09.11-.21-.06,0,0,0,0,0,0l-.1-.07c-.22-.08.05.16,0,.2s.05,0,.1,0l-.06,0-.06-.08-.11,0,.09.08c-.08,0-.23-.17-.15,0s.14.11.12.18a2.26,2.26,0,0,0-.35-.09c.07.12.05.13,0,.17l-.06-.12c0,.19-.12-.24-.14-.09l0-.08.05.25c0,.26-.09-.24-.1.11,0,0,.07.26,0,.22v-.12s0,.08,0,.06,0-.18,0-.16v-.15a1.85,1.85,0,0,1,0,.23c-.05-.13-.13,0-.14-.14,0,0-.06-.09-.13.08.05-.11,0-.16.06-.29-.05.12-.16.2-.13.06h0c0-.16-.26.09-.24-.12-.09.11-.09,0-.19.16s.12-.4-.35-.08c-.07,0,.06-.15.07-.19h0c-.1-.07-.12-.1-.14-.18s-.32.08-.28,0,.08,0,.07-.06.06,0,.11,0h0s-.08,0-.09,0l-.06,0c.12-.08,0-.15.14-.18-.06-.12-.24-.23-.28-.39a.31.31,0,0,1,.2.09l0-.09c.13,0,.07.07.09.09.22,0-.16-.25.07-.3l-.08-.07h0a.23.23,0,0,1-.11-.11c.11,0,.23.12.26.07s0-.14,0-.24-.09,0-.11-.07.12,0,.1,0l.12.1c-.12-.09-.06-.17-.09-.23s0,.11.09.18l.12-.15c0-.14-.1-.11-.16-.23a.08.08,0,0,1,0-.05l.14.06,0,0c.19,0,.26,0,.3-.25.1.27.14,0,.2.08v0c.06-.24.21.16.28,0,0,0,0,.1,0,.1s.16-.1.15.07c.15,0,.29.09.48-.11l0,0c.13-.13.07,0,.17,0a.1.1,0,0,0,0,0c.15-.12.17.09.25.07l-.07.08.11.08,0-.06c.24-.19-.07.2.14.15,0,.08.65-.16.59,0C266.63,337.44,266.25,337.5,266.38,337.53Z"/><polygon points="272.72 339.47 272.71 339.46 272.69 339.46 272.72 339.47"/><path d="M278.9,337.33l-.12-.08s.06-.1.12-.06-.06-.09-.14-.14l.1-.14c0-.4-.41-.58-.58-.91,0-.57-1-1-1.49-1.05a2.38,2.38,0,0,1-1-.37,1,1,0,0,0-1.09,0s-.07,0-.07.08l-.31.06-.11,0h0l-.16,0a2,2,0,0,0-.41.17,1.66,1.66,0,0,0-.59.53.43.43,0,0,0,0,.58,3.42,3.42,0,0,0-.13.34c-.21.35-.37.57-.49.83a1.52,1.52,0,0,0-.12,1,2.78,2.78,0,0,0,.43,1.26c.27.07.28.46.56.53l0,.14c.1,0,.19.06.19.16l0,0c.14,0,.19.15.27.15l0,0,.12.08-.05,0a1.24,1.24,0,0,1,.53.29l.05-.13c.28.33.52.1.8.37l0,0a.6.6,0,0,1,.6,0,.45.45,0,0,0,.58-.07c-.05.06,0,.07,0,.11.21-.07.41-.16.33-.43.14,0,.14,0,.19.15,0-.12.06-.21.15-.26l0,.06a1.92,1.92,0,0,0,.26-.17l-.16-.18c.16,0,.17.24.27.11l-.1-.16c.2-.08.48.09.75,0a2.14,2.14,0,0,0,.76-1.31c.1-.51.1-1,.22-1.42l.14-.06C279.28,337.54,278.71,337.39,278.9,337.33Zm-1.7-.66c-.12.1-.1,0-.19.13.12,0-.05.2.09.23l-.1.06c.27,0,0,.29.2.27s-.32.2-.06.25l-.15.09c0,.05.22,0,.14.06s-.07.09-.17.07.26.24,0,.36c.2.06.06.11.21.17-.08,0-.06.13-.22,0s0,0,0,0l-.12,0c-.24,0,.09.15,0,.21s0,0,.11,0l-.05.06-.08-.07-.1.05.11.07c-.09,0-.26-.12-.16,0s.17.08.16.15a2.4,2.4,0,0,0-.38,0c.09.11.07.12.06.16l-.07-.1c0,.2-.17-.21-.18-.05l0-.08.1.24c0,.26-.15-.22-.11.13,0,0,.12.25,0,.22l0-.12s0,.09,0,.07-.05-.17-.08-.14l0-.15a1.77,1.77,0,0,1,0,.23c-.08-.11-.15.06-.19-.11,0,0-.11-.07-.14.11,0-.11,0-.16,0-.29,0,.13-.14.22-.14.08v0c-.05-.15-.26.12-.29-.09-.07.13-.08,0-.17.19-.24.06,0-.43-.39-.06-.08,0,0-.15,0-.2h0a.34.34,0,0,1-.19-.18c-.07,0-.31.11-.3,0s.07,0,.06-.08.06,0,.1-.07h0c-.05,0-.08,0-.08,0l-.06,0c.1-.11-.07-.16.1-.23-.08-.14-.29-.23-.36-.4a.25.25,0,0,1,.21.06l0-.1c.13,0,.07.06.1.09.21-.1-.21-.26,0-.38l-.09,0h0c-.06,0-.13-.07-.13-.09s.25.07.27,0,0-.16,0-.26-.09,0-.12-.05.13,0,.1-.06l.14.08c-.14-.06-.09-.17-.13-.22s0,.11.12.16a.78.78,0,0,1,.11-.2c-.05-.14-.13-.08-.22-.19s0-.23.14-.23l-.07,0a1.09,1.09,0,0,0,.05-.14c.1.27.17,0,.24.06v0c.09-.24.28.14.37-.07,0,0,0,.1,0,.11s.19-.11.2.06c.19-.05.42.06.6-.15l0,0c.13-.16.1,0,.21-.06a.1.1,0,0,0,0,0c.14-.13.23.07.31,0l-.05.1a.84.84,0,0,1,.14.06l0-.05c.19-.24,0,.21.18.13,0,.09.63-.28.61-.06C277.43,336.53,277.05,336.66,277.2,336.67Z"/><polygon points="285.44 340.4 285.43 340.4 285.41 340.4 285.44 340.4"/><path d="M290.21,336.16l-.13,0s0-.1.11-.08-.06-.07-.15-.1l.08-.14c-.08-.36-.46-.45-.67-.73-.1-.53-1.08-.79-1.56-.67a2.33,2.33,0,0,1-1-.07.93.93,0,0,0-1,.31s-.05.08,0,.1a2.44,2.44,0,0,0-.51.35,1.84,1.84,0,0,0-.46.68,1.23,1.23,0,0,0-.65.72,3.81,3.81,0,0,0-.13,1.22,4.14,4.14,0,0,0-.07,1,1.44,1.44,0,0,0,.45.95,2.49,2.49,0,0,0,1,.73c.25-.1.44.21.69.1l0,.14c.09,0,.17-.06.23,0l0,0c.12-.06.23,0,.29,0v0h.13l0,.05a.89.89,0,0,1,.53,0l0-.14c.35.13.42-.18.74-.07v0c.22-.46.67.05.84-.47,0,.06.06.05.08.08s.26-.25.09-.48c.1-.07.13,0,.21.09a.2.2,0,0,1,0-.27v.06l.16-.21-.21-.13c.14-.05.24.17.28,0l-.15-.12c.15-.11.45,0,.69-.13a2,2,0,0,0,.31-1.3,6.56,6.56,0,0,1-.06-1.24l.13-.08C290.6,336.27,290,336.26,290.21,336.16Zm-1.78,1.28s0,0,0,0h-.12c-.24,0,.12.11.07.17s0,0,.11,0l0,.05-.09,0-.08.06.12,0c-.08,0-.28-.05-.13.06s.17,0,.19.09-.27,0-.34.07c.12.08.1.1.11.13l-.1-.07c.08.18-.23-.16-.17,0l-.06-.06.17.19c.11.24-.2-.16,0,.15,0,0,.19.2.11.19l-.06-.1s0,.08,0,.07-.11-.14-.12-.1l-.07-.13a1.72,1.72,0,0,1,.07.21c-.12-.07-.11.11-.21,0s-.14,0-.09.15c0-.11-.1-.13-.13-.26,0,.13,0,.27-.1.14v0c-.13-.1-.16.23-.29.07,0,.15,0,.07,0,.25-.15.19-.16-.38-.3.17-.07,0,0-.14-.06-.18l0,0c-.11,0-.15,0-.21,0s-.19.27-.23.17,0-.07,0-.09,0,0,.05-.11l-.05,0v0c-.06,0-.07,0-.06.06l0,.06c0-.14-.13-.07,0-.22-.12,0-.33,0-.46-.06a.31.31,0,0,1,.2-.09l-.07,0c.12-.07.09,0,.12,0,.14-.17-.25-.06-.14-.2l0,0h-.09a.21.21,0,0,1-.16,0c.11,0,.26-.05.25-.09s-.06-.07-.12-.13-.09,0-.13,0,.12,0,.07-.05h.16c-.15,0-.15-.08-.21-.11.12,0,.09.06.18.08a.71.71,0,0,1,0-.14c-.09-.09-.14,0-.26-.12s-.07-.18.05-.19l-.14-.06c0-.17.06-.24.22-.2a2,2,0,0,1,.05-.52,1.85,1.85,0,0,1,.48,0l0,0c.17-.05.22-.07.14-.31.2.2.11-.06.2,0v0c0-.24.25.06.23-.15,0,0,0,.1,0,.11s.1-.15.16,0c.12-.09.28,0,.37-.3v0c.06-.17.07,0,.14-.11v0c.08-.17.17,0,.23-.05l0,.1.12,0,0,0c.14-.27,0,.21.16.07,0,.07.52-.41.53-.21.14-.07-.19.15-.05.12-.11.11-.1.05-.17.15.11,0,0,.2.1.18l-.09.09c.25-.06,0,.25.2.18s-.29.24,0,.22l-.14.11s.21-.05.15,0-.06.09-.16.1.28.15,0,.31c.2,0,.09.08.24.1C288.55,337.4,288.62,337.53,288.43,337.44Z"/><polygon points="182.67 283.39 182.67 283.39 182.54 283.06 182.67 283.39"/><path d="M192,291.39h0v0Z"/><path d="M165.54,318.19h0l0,.05Z"/><path d="M351.38,253.54l.16.19C351.51,253.63,351.46,253.55,351.38,253.54Z"/><path d="M346,230.68h0l-.06,0Z"/><path d="M337.92,221.15h0l-.05,0Z"/><path d="M333.65,216.21h0l0,0Z"/><path d="M157.52,338h0l0,0Z"/><path d="M156.84,346.64h0l.06,0Z"/><path d="M157.37,360.68h0l.06,0Z"/><polygon points="373.31 383.37 373.31 383.37 373.33 383.36 373.31 383.37"/><polygon points="368.6 384.01 368.6 384.01 368.55 384.08 368.6 384.01"/><polygon points="387.52 379.67 387.52 379.67 387.54 379.66 387.52 379.67"/><polygon points="382.48 379.74 382.48 379.74 382.42 379.81 382.48 379.74"/><polygon points="400.63 375.12 400.63 375.12 400.66 375.12 400.63 375.12"/><polygon points="393.86 373.74 393.86 373.74 393.79 373.8 393.86 373.74"/><path d="M418.58,370.31l-.08-.11S418.51,370.26,418.58,370.31Z"/><path d="M415.29,366.54Z"/><polygon points="405.24 363.8 405.24 363.8 405.16 363.85 405.24 363.8"/><path d="M428.41,363.56l-.06-.09S428.35,363.53,428.41,363.56Z"/><path d="M426.11,360.34h0Z"/><polygon points="418.3 358.8 418.3 358.8 418.23 358.85 418.3 358.8"/><path d="M438.06,353.82l-.06-.08S438,353.79,438.06,353.82Z"/><polygon points="435.66 350.8 435.66 350.8 435.69 350.79 435.66 350.8"/><polygon points="427.99 349.87 427.99 349.87 427.92 349.93 427.99 349.87"/><polygon points="438.43 339.52 438.43 339.52 438.45 339.52 438.43 339.52"/><polygon points="432.66 338.78 432.66 338.78 432.59 338.84 432.66 338.78"/><polygon points="442.5 327.14 442.51 327.14 442.53 327.13 442.5 327.14"/><polygon points="437.06 327.41 437.06 327.41 437 327.47 437.06 327.41"/><polygon points="444.73 312.19 444.73 312.19 444.75 312.19 444.73 312.19"/><polygon points="439.72 312.39 439.72 312.39 439.66 312.46 439.72 312.39"/><polygon points="439.76 301.76 439.76 301.76 439.7 301.83 439.76 301.76"/></svg>