<svg id="Capa_1" enable-background="new 0 0 512 512" height="512" viewBox="0 0 512 512" width="512" xmlns="http://www.w3.org/2000/svg" xmlns:xlink="http://www.w3.org/1999/xlink"><linearGradient id="SVGID_1_" gradientUnits="userSpaceOnUse" x1="175.918" x2="833.668" y1="253.5" y2="253.5"><stop offset=".0007011211" stop-color="#fff0d5"/><stop offset=".5112" stop-color="#ffdfff"/><stop offset="1" stop-color="#d9ceff"/></linearGradient><path d="m482.969 141.221c-34.945-35.948-89.48-40.907-129.831-14.878-11.48 7.405-25.381 9.888-38.717 6.927-31.565-7.009-64.584-2.222-92.707 13.042-18.907 10.261-41.936 8.477-59.579-3.83-11.712-8.169-25.312-14.023-40.257-16.777-55.438-10.217-109.337 26.553-119.994 81.907-10.899 56.609 26.628 111.012 83.196 121.089 13.821 2.462 27.488 2.047 40.388-.816 20.936-4.646 42.81 3.122 56.321 19.776 8.528 10.512 18.812 19.894 30.757 27.689 61.731 40.28 144.427 22.89 184.707-38.84.043-.065.085-.131.128-.196 7.377-11.349 18.851-19.44 32.12-22.119 19.353-3.907 37.801-13.404 52.756-28.495 39.373-39.732 39.701-104.371.712-144.479z" fill="url(#SVGID_1_)"/><path d="m454.501 345.222h-19.058c22.107-20.398 33.945-51.104 28.904-83.046-7.804-49.453-53.183-83.631-102.447-78.043-3.85-53.544-48.504-95.788-103.029-95.788-18.333 0-35.546 4.782-50.471 13.157v-42.257c0-4.155-3.368-7.523-7.523-7.523h-108.38c-4.155 0-7.523 3.368-7.523 7.523v70.549c0 4.155 3.368 7.523 7.523 7.523h78.509c-8.54 13.784-13.934 29.723-15.163 46.817-17.613-1.998-34.727 1.089-49.807 8.138-3.691-7.937-11.732-13.443-21.062-13.443-12.825 0-23.222 10.397-23.222 23.222 0 7.587 3.64 14.323 9.267 18.56-8.924 11.814-15.157 25.929-17.624 41.576-8.014 50.82 26.686 98.514 77.505 106.528 50.333 7.938 205.617 7.942 255.953-.002.522-.082 1.04-.176 1.559-.266v34.574c0 5.523 4.478 10.001 10.001 10.001h56.088c5.523 0 10.001-4.478 10.001-10.001v-47.798c0-5.523-4.478-10.001-10.001-10.001z" fill="#590bb2" opacity=".1"/><circle cx="411.281" cy="137.096" fill="#590bb2" opacity=".1" r="23.222"/><path d="m464.348 283.178c-7.804-49.453-53.183-83.631-102.447-78.043-3.85-53.544-48.504-95.788-103.029-95.788s-99.179 42.244-103.029 95.788c-49.268-5.589-94.649 28.596-102.448 78.052-8.014 50.82 26.686 98.514 77.505 106.528 50.333 7.938 205.617 7.942 255.953-.002 50.819-8.018 85.514-55.716 77.495-106.535z" fill="#fdd250"/><path d="m208.397 122.506v40.294c0 4.15-3.36 7.521-7.521 7.521h-36.254c9.102-20.252 24.533-37.023 43.775-47.815z" fill="#ffc136"/><path d="m371.974 255.51v136.044c-55.316 5.491-170.877 5.491-226.203 0v-136.044c0-1.657 1.343-3 3-3h220.202c1.658 0 3.001 1.343 3.001 3z" fill="#ffe783"/><path d="m320.138 345.314h-27.848v-164.356c0-5.523-4.478-10.001-10.001-10.001h-46.834c-5.523 0-10.001 4.478-10.001 10.001v164.355h-27.848c-11.473 0-18.034 13.085-11.172 22.279l61.266 82.083c5.575 7.469 16.768 7.469 22.344 0l61.266-82.083c6.862-9.193.301-22.278-11.172-22.278z" fill="#c182f9"/><path d="m200.878 158.319h-108.381c-4.155 0-7.523-3.368-7.523-7.523v-70.549c0-4.155 3.368-7.523 7.523-7.523h108.381c4.155 0 7.523 3.368 7.523 7.523v70.549c0 4.155-3.368 7.523-7.523 7.523z" fill="#f5f4f9"/><path d="m123.302 132.56c-1.28 0-2.56-.488-3.536-1.465l-12.037-12.037c-1.954-1.953-1.954-5.12 0-7.073l12.037-12.037c1.952-1.953 5.12-1.953 7.072 0 1.953 1.953 1.953 5.12 0 7.073l-8.501 8.501 8.501 8.501c1.953 1.953 1.953 5.12 0 7.073-.976.975-2.256 1.464-3.536 1.464z" fill="#ffa052"/><path d="m170.073 98.483c1.28 0 2.56.488 3.536 1.465l12.037 12.037c1.953 1.953 1.953 5.12 0 7.073l-12.037 12.037c-1.952 1.953-5.12 1.953-7.072 0-1.953-1.953-1.953-5.12 0-7.073l8.501-8.501-8.501-8.501c-1.953-1.953-1.953-5.12 0-7.073.976-.975 2.256-1.464 3.536-1.464z" fill="#ffa052"/><path d="m139.885 132.561c-.833 0-1.677-.209-2.454-.647-2.406-1.358-3.255-4.409-1.896-6.814l13.594-24.075c1.358-2.405 4.409-3.254 6.813-1.896 2.406 1.358 3.255 4.409 1.896 6.814l-13.594 24.075c-.918 1.628-2.613 2.543-4.359 2.543z" fill="#ffa052"/><path d="m454.501 434.024h-56.088c-5.523 0-10.001-4.478-10.001-10.001v-47.798c0-5.523 4.478-10.001 10.001-10.001h56.088c5.523 0 10.001 4.478 10.001 10.001v47.798c0 5.523-4.478 10.001-10.001 10.001z" fill="#fff4c5"/><path d="m419.656 417.162c-.833 0-1.677-.209-2.453-.647-2.406-1.358-3.254-4.408-1.896-6.813l13.593-24.073c1.358-2.405 4.409-3.253 6.812-1.896 2.406 1.358 3.254 4.408 1.896 6.813l-13.593 24.073c-.92 1.628-2.614 2.543-4.359 2.543z" fill="#fdd250"/><circle cx="211.632" cy="406.306" fill="#fff4c5" r="23.222"/><circle cx="84.974" cy="223.052" fill="#fff4c5" r="23.222"/><circle cx="411.281" cy="158.099" fill="#fff4c5" r="23.222"/><path d="m454.501 361.224h-7.339c18.412-21.67 26.621-50.335 22.126-78.825-7.952-50.359-52.62-85.788-102.881-82.674-2.393-20.175-10.36-39.105-23.206-55.025-1.733-2.149-4.882-2.486-7.031-.752s-2.485 4.883-.752 7.031c12.627 15.647 20.06 34.5 21.495 54.518.098 1.358.745 2.619 1.793 3.489 1.047.87 2.409 1.276 3.758 1.121 46.985-5.323 89.565 27.108 96.947 73.852 4.503 28.538-5.194 57.27-25.964 77.266h-35.034c-8.271 0-15.001 6.729-15.001 15.001v8.944c-13.928 1.985-35.286 3.516-62.317 4.468l14.221-19.053c4.313-5.779 4.985-13.374 1.753-19.819-3.231-6.446-9.72-10.451-16.931-10.451h-22.848v-159.357c0-8.271-6.729-15.001-15.001-15.001h-46.834c-8.271 0-15.001 6.729-15.001 15.001v73.582c0 2.762 2.239 5 5 5s5-2.238 5-5v-73.582c0-2.758 2.244-5.001 5.001-5.001h46.834c2.758 0 5.001 2.243 5.001 5.001v164.355c0 2.762 2.238 5 5 5h27.849c3.455 0 6.443 1.844 7.992 4.933s1.239 6.587-.828 9.355l-61.266 82.084c-1.704 2.283-4.316 3.593-7.165 3.593s-5.46-1.31-7.165-3.594l-17.507-23.455c3.547-4.718 5.652-10.579 5.652-16.923 0-15.562-12.66-28.222-28.222-28.222-3.449 0-6.754.625-9.812 1.762l-11.378-15.245c-2.067-2.77-2.376-6.268-.827-9.356s4.537-4.933 7.992-4.933h27.848c2.761 0 5-2.238 5-5v-63.23c0-2.762-2.239-5-5-5s-5 2.238-5 5v58.23h-22.848c-7.211 0-13.699 4.004-16.931 10.45s-2.561 14.041 1.752 19.819l10.748 14.4c-1.509 1.308-2.882 2.768-4.086 4.365-25.149-1.034-44.988-2.609-57.411-4.567-23.26-3.671-43.699-16.178-57.551-35.218s-19.459-42.335-15.789-65.595c2.039-12.946 6.768-24.935 14.046-35.669 3.793 1.899 8.067 2.974 12.589 2.974 15.562 0 28.222-12.66 28.222-28.222 0-2.434-.31-4.797-.892-7.052 13.567-5.507 28.373-7.548 42.973-5.893 1.35.155 2.71-.251 3.758-1.121s1.695-2.13 1.793-3.488c1.065-14.815 5.562-29.355 13.012-42.179h27.039c6.905 0 12.523-5.618 12.523-12.523v-25.308c13.94-7.284 29.632-11.138 45.469-11.138 20.824 0 40.715 6.426 57.52 18.581.886.642 1.911.949 2.927.949 1.55 0 3.077-.718 4.055-2.069 1.619-2.237 1.117-5.363-1.12-6.981-18.521-13.397-40.439-20.479-63.381-20.479-15.711 0-31.301 3.441-45.469 9.989v-34.09c0-6.905-5.618-12.523-12.523-12.523h-108.381c-6.905 0-12.523 5.618-12.523 12.523v70.549c0 6.905 5.618 12.523 12.523 12.523h69.953c-5.804 11.351-9.593 23.738-11.113 36.41-14.758-.898-29.566 1.559-43.231 7.184-5.107-7.297-13.568-12.083-23.132-12.083-15.562 0-28.222 12.66-28.222 28.221 0 7.438 2.897 14.209 7.616 19.255-8.258 12.057-13.614 25.54-15.908 40.104-4.087 25.897 2.157 51.835 17.581 73.035 15.423 21.199 38.18 35.125 64.08 39.213 12.06 1.9 30.729 3.444 54.209 4.494-.599 2.286-.921 4.682-.921 7.153 0 15.562 12.66 28.222 28.221 28.222 5.592 0 10.806-1.642 15.196-4.459l16.866 22.597c3.61 4.838 9.143 7.612 15.179 7.612s11.568-2.774 15.179-7.612l39.426-52.822c.116.008.227.034.344.034.051 0 .103-.001.154-.002 21.294-.643 49.918-1.961 69.437-4.612v28.759c0 8.271 6.729 15.001 15.001 15.001h56.088c8.271 0 15.001-6.729 15.001-15.001v-47.798c.001-8.27-6.729-15-15-15zm-364.527-210.428v-70.549c0-1.392 1.132-2.523 2.523-2.523h108.381c1.391 0 2.523 1.132 2.523 2.523v70.549c0 1.392-1.132 2.523-2.523 2.523h-108.381c-1.391 0-2.523-1.132-2.523-2.523zm-5 54.035c10.047 0 18.222 8.174 18.222 18.221 0 10.048-8.174 18.222-18.222 18.222s-18.222-8.174-18.222-18.222c0-10.047 8.175-18.221 18.222-18.221zm108.436 201.476c0-10.048 8.174-18.222 18.221-18.222s18.222 8.174 18.222 18.222-8.174 18.222-18.222 18.222-18.221-8.175-18.221-18.222zm266.092 17.716c0 2.758-2.243 5.001-5.001 5.001h-56.088c-2.758 0-5.001-2.243-5.001-5.001v-47.798c0-2.758 2.243-5.001 5.001-5.001h56.088c2.758 0 5.001 2.243 5.001 5.001z" fill="#590bb2"/><path d="m411.28 186.32c15.562 0 28.222-12.66 28.222-28.222s-12.66-28.222-28.222-28.222c-15.561 0-28.221 12.66-28.221 28.222s12.661 28.222 28.221 28.222zm0-46.443c10.048 0 18.222 8.174 18.222 18.222s-8.174 18.222-18.222 18.222c-10.047 0-18.221-8.174-18.221-18.222s8.174-18.222 18.221-18.222z" fill="#590bb2"/><g fill="#c182f9"><circle cx="322.956" cy="316.136" r="5.59"/><circle cx="322.956" cy="299.225" r="5.59"/><circle cx="322.956" cy="282.313" r="5.59"/><path d="m353.277 111.13c-1.279 0-2.56-.488-3.535-1.465l-10.995-10.995c-1.953-1.952-1.953-5.118 0-7.07l10.995-10.995c1.951-1.953 5.119-1.953 7.07 0l10.995 10.995c1.953 1.952 1.953 5.118 0 7.07l-10.995 10.995c-.975.976-2.255 1.465-3.535 1.465zm-3.923-15.995 3.924 3.924 3.924-3.924-3.924-3.924z"/></g><path d="m57.495 194.539c-1.28 0-2.559-.488-3.536-1.465l-10.995-10.995c-1.953-1.952-1.953-5.118 0-7.07l10.995-10.995c1.953-1.953 5.118-1.953 7.071 0l10.996 10.995c.938.938 1.464 2.209 1.464 3.535s-.527 2.598-1.464 3.535l-10.996 10.995c-.976.977-2.256 1.465-3.535 1.465zm-3.924-15.995 3.924 3.924 3.924-3.924-3.924-3.924z" fill="#ffa052"/><path d="m294.76 86.708c-2.762 0-5-2.238-5-5 0-3.319-2.7-6.02-6.02-6.02-2.762 0-5-2.238-5-5s2.238-5 5-5c3.319 0 6.02-2.7 6.02-6.019 0-2.762 2.238-5 5-5s5 2.238 5 5c0 3.318 2.7 6.019 6.019 6.019 2.762 0 5 2.238 5 5s-2.238 5-5 5c-3.318 0-6.019 2.7-6.019 6.02 0 2.762-2.239 5-5 5z" fill="#ffe783"/><path d="m334.94 445.547c-2.762 0-5-2.238-5-5 0-3.318-2.7-6.019-6.02-6.019-2.762 0-5-2.238-5-5s2.238-5 5-5c3.319 0 6.02-2.7 6.02-6.02 0-2.762 2.238-5 5-5s5 2.238 5 5c0 3.319 2.7 6.02 6.019 6.02 2.762 0 5 2.238 5 5s-2.238 5-5 5c-3.318 0-6.019 2.7-6.019 6.019 0 2.761-2.238 5-5 5z" fill="#ffe783"/></svg>