<?xml version="1.0" encoding="UTF-8" standalone="no"?><!-- Generator: Gravit.io --><svg xmlns="http://www.w3.org/2000/svg" xmlns:xlink="http://www.w3.org/1999/xlink" style="isolation:isolate" viewBox="1150.095 878.297 118 118" width="118pt" height="118pt"><g><path d=" M 1222.923 958.039 C 1221.651 958.039 1220.619 959.072 1220.619 960.344 C 1220.619 961.616 1221.651 962.649 1222.923 962.649 C 1224.195 962.649 1225.228 961.616 1225.228 960.344 C 1225.228 959.072 1224.195 958.039 1222.923 958.039 Z " fill="rgb(255,255,255)"/><path d=" M 1256.572 878.297 L 1161.619 878.297 C 1155.264 878.297 1150.095 883.466 1150.095 889.82 L 1150.095 960.344 C 1150.095 966.698 1155.264 971.867 1161.619 971.867 L 1197.572 971.867 L 1197.572 982.469 L 1195.267 982.469 C 1192.19 982.469 1189.297 983.668 1187.12 985.845 C 1184.943 988.023 1183.744 990.915 1183.744 993.992 C 1183.744 995.265 1184.775 996.297 1186.048 996.297 L 1232.142 996.297 C 1233.415 996.297 1234.447 995.265 1234.447 993.992 C 1234.447 987.638 1229.277 982.469 1222.923 982.469 L 1220.619 982.469 L 1220.619 971.867 L 1256.572 971.867 C 1262.926 971.867 1268.095 966.698 1268.095 960.344 L 1268.095 889.82 C 1268.095 883.466 1262.926 878.297 1256.572 878.297 Z  M 1161.619 882.906 L 1256.572 882.906 C 1260.384 882.906 1263.486 886.008 1263.486 889.82 L 1263.486 948.82 L 1252.884 948.82 L 1252.884 895.813 C 1252.884 894.54 1251.852 893.508 1250.579 893.508 L 1232.142 893.508 C 1230.869 893.508 1229.837 894.54 1229.837 895.813 L 1229.837 948.82 L 1218.301 948.82 C 1218.277 946.437 1218.215 944.087 1218.116 941.807 C 1217.712 932.421 1216.793 926.134 1216.315 923.368 C 1221.07 919.867 1222.369 913.378 1219.462 908.336 L 1211.474 894.501 C 1211.061 893.788 1210.301 893.349 1209.478 893.349 C 1208.654 893.349 1207.893 893.788 1207.482 894.501 L 1199.49 908.337 C 1196.75 913.091 1197.721 919.248 1202.026 922.881 C 1201.527 925.639 1200.521 932.151 1200.083 941.803 C 1199.98 944.107 1199.914 946.458 1199.889 948.82 L 1188.353 948.82 L 1188.353 914.25 C 1188.353 913.885 1188.267 913.552 1188.125 913.255 C 1188.119 913.244 1188.115 913.231 1188.11 913.219 L 1178.891 894.782 C 1178.5 894.001 1177.703 893.508 1176.829 893.508 C 1175.956 893.508 1175.159 894.001 1174.768 894.782 L 1165.549 913.219 C 1165.544 913.231 1165.54 913.244 1165.535 913.255 C 1165.391 913.554 1165.306 913.893 1165.306 914.25 L 1165.306 948.82 L 1154.704 948.82 L 1154.704 889.82 C 1154.704 886.008 1157.806 882.906 1161.619 882.906 L 1161.619 882.906 Z  M 1234.447 948.82 L 1234.447 898.117 L 1248.275 898.117 L 1248.275 902.727 L 1245.97 902.727 C 1244.697 902.727 1243.665 903.758 1243.665 905.031 C 1243.665 906.304 1244.697 907.336 1245.97 907.336 L 1248.275 907.336 L 1248.275 914.25 L 1245.97 914.25 C 1244.697 914.25 1243.665 915.282 1243.665 916.555 C 1243.665 917.828 1244.697 918.86 1245.97 918.86 L 1248.275 918.86 L 1248.275 925.774 L 1245.97 925.774 C 1244.697 925.774 1243.665 926.805 1243.665 928.078 C 1243.665 929.351 1244.697 930.383 1245.97 930.383 L 1248.275 930.383 L 1248.275 939.602 L 1245.97 939.602 C 1244.697 939.602 1243.665 940.633 1243.665 941.906 C 1243.665 943.179 1244.697 944.211 1245.97 944.211 L 1248.275 944.211 L 1248.275 948.82 L 1234.447 948.82 Z  M 1209.478 925.614 C 1210.315 925.614 1211.149 925.518 1211.964 925.338 C 1212.392 928.079 1213.02 932.93 1213.392 939.602 L 1204.813 939.602 C 1205.203 932.934 1205.861 928.008 1206.316 925.174 C 1207.337 925.465 1208.4 925.614 1209.478 925.614 Z  M 1209.478 921.005 C 1204.21 921.005 1200.814 915.272 1203.483 910.641 L 1209.478 900.263 L 1215.469 910.64 C 1218.128 915.252 1214.779 921.005 1209.478 921.005 Z  M 1204.602 944.211 L 1213.595 944.211 C 1213.643 945.725 1213.677 947.266 1213.693 948.82 L 1204.498 948.82 C 1204.515 947.276 1204.551 945.735 1204.602 944.211 Z  M 1179.134 948.82 L 1179.134 916.555 L 1183.744 916.555 L 1183.744 948.82 L 1179.134 948.82 Z  M 1169.915 948.82 L 1169.915 916.555 L 1174.525 916.555 L 1174.525 948.82 L 1169.915 948.82 Z  M 1171.34 911.945 L 1176.829 900.966 L 1182.319 911.945 L 1171.34 911.945 Z  M 1229.442 991.688 L 1188.745 991.688 C 1189.084 990.727 1189.637 989.847 1190.379 989.104 C 1191.686 987.798 1193.421 987.078 1195.267 987.078 L 1222.923 987.078 C 1225.928 987.078 1228.491 989.005 1229.442 991.688 Z  M 1216.009 982.469 L 1202.181 982.469 L 1202.181 971.867 L 1216.009 971.867 L 1216.009 982.469 Z  M 1256.572 967.258 L 1161.619 967.258 C 1157.806 967.258 1154.704 964.157 1154.704 960.344 L 1154.704 953.43 L 1263.486 953.43 L 1263.486 960.344 C 1263.486 964.157 1260.384 967.258 1256.572 967.258 Z " fill="rgb(255,255,255)"/><path d=" M 1213.704 958.039 L 1199.876 958.039 C 1198.603 958.039 1197.572 959.071 1197.572 960.344 C 1197.572 961.617 1198.603 962.649 1199.876 962.649 L 1213.704 962.649 C 1214.977 962.649 1216.009 961.617 1216.009 960.344 C 1216.009 959.071 1214.977 958.039 1213.704 958.039 Z " fill="rgb(255,255,255)"/></g></svg>