<svg id="Eye" xmlns="http://www.w3.org/2000/svg" viewBox="0 0 600 600"><defs><style>.cls-1{fill:#fff;}</style></defs><title>Artboard 1</title><path d="M274.37,231.1c-85.66,69.76,14,169.59,94.21,103.88C418,260.45,344.39,198.68,274.37,231.1Z"/><path class="cls-1" d="M263.77,283c-1.83-.05-3.15,1.71-3.88,3.39a16.11,16.11,0,0,0,.87,14.72,13.3,13.3,0,0,0,13.11,6.11,16.57,16.57,0,0,0,8-4.22c3.31-3,6-7.21,5.34-11.61a11.28,11.28,0,0,0-4.35-7,21.11,21.11,0,0,0-7.63-3.56c-3.1-.83-6.56-1.22-9.38.3-3,1.63-4.55,5-5.9,8.14"/><path class="cls-1" d="M284.55,282.42c3.14.46,5,.56,6.75-1,.94-.82,3.72-3.33,6.34-5.56s5-4.22,5-4.22,2.44-2,5.18-4.06l6.76-5.11c1.84-1.42,2.12-3.28,2.26-6.45-3-.88-4.92-1.19-6.87.15-1.05.74-4.15,3-6.94,5.19s-5.29,4.21-5.29,4.21-2.52,2-5.23,4.31S287,274.81,286,275.7C284.32,277.35,284.25,279.27,284.55,282.42Z"/><path class="cls-1" d="M324.7,241.2l-.08,23a1.49,1.49,0,0,0,.41,1.27,1.46,1.46,0,0,0,.85.18c5.33,0,10.55-1.7,15.87-1.67,2.86,0,5.76.52,8.56,0a1.48,1.48,0,0,0,.89-.41,1.58,1.58,0,0,0,.2-1.12l-1.51-21.47a1.85,1.85,0,0,0-.22-.9c-.35-.53-1.1-.56-1.73-.52l-22.77,1.11"/><path class="cls-1" d="M288,302.64c.53,3,1,4.74,2.93,5.7,2,1,12.46,5.88,12.46,5.88l5.44,2.59,4.17,2,2.66,1.3c1.75.87,3.22.18,6.13-.77.07-3.06-.52-5-2.5-6.14-.54-.3-1.63-.86-2.92-1.48l-4.19-2-5.46-2.55s-10.36-5-12.46-5.88C292.36,300.44,290.7,301.14,288,302.64Z"/><path class="cls-1" d="M336.57,306.46a66.74,66.74,0,0,0-9.78,24.37A241.22,241.22,0,0,1,354.58,329a2.25,2.25,0,0,0,1.23-.24c1.12-.71.33-2.43-.53-3.44a145.53,145.53,0,0,1-15.86-22.63,7.69,7.69,0,0,0-2.65,3"/><path d="M335.17,423.84a98.94,98.94,0,0,0,13.88,1.9A77.44,77.44,0,0,0,364.4,425c2-.31,5.37-.76,12.23-2.13,2.46-.51,6.6-1.41,10.08-2.36,1.75-.45,3.33-.93,4.48-1.25l1.86-.56s2.4-.7,5.43-1.71,6.68-2.37,9.24-3.47a135.92,135.92,0,0,0,16.43-8,58.82,58.82,0,0,0,12.43-9.39,61.75,61.75,0,0,0,8.69-11.13c-4.47,2.58-8.26,4.46-12.12,6.55s-7.82,4.33-12.87,7.2a136,136,0,0,1-15.55,7.54c-2.43,1-5.9,2.31-8.77,3.31s-5.17,1.66-5.17,1.66l-1.78.53c-1.1.29-2.61.75-4.29,1.16-3.34.9-7.31,1.75-9.67,2.27-6.6,1.33-9.83,1.78-11.8,2.09-5.82.89-10.38,1.73-14.71,2.79S340.11,422.34,335.17,423.84Z"/><path d="M483.63,273c1.18,2.5,1.28,3.9,2.11,4.18a8,8,0,0,1,2.71,1.61,6.15,6.15,0,0,1,1.05,1.27,5.85,5.85,0,0,1,.35.64l.07.19a3.51,3.51,0,0,1,.18.51,7.1,7.1,0,0,1,.31,1.69,7,7,0,0,1-.14,1.87,9.77,9.77,0,0,1-.38,1.25,3.05,3.05,0,0,0,.22,2.28,4.57,4.57,0,0,0,2.55,2.37,6.67,6.67,0,0,1,2.93-.69,1.56,1.56,0,0,0,1.49-.93,13.94,13.94,0,0,0,.86-2.58,14.4,14.4,0,0,0-.4-7.68c-.15-.46-.3-.84-.41-1.1l-.18-.4-.19-.4c-.12-.26-.31-.62-.56-1.05a14,14,0,0,0-2.34-2.94,14.76,14.76,0,0,0-3.31-2.36,13.77,13.77,0,0,0-2.54-1C486.2,269.29,484.74,270.53,483.63,273Z"/><path d="M502.66,241.47c-.35,2.52-.51,3.89-.17,4.09a6.41,6.41,0,0,1,.8.46c.06,0,0,.07.1,0a3.29,3.29,0,0,1,.38-.22,2.16,2.16,0,0,1,.39-.16,1.45,1.45,0,0,1,.33-.06h.12s-.05,0,0,0a2.1,2.1,0,0,1-.81-.36c-.49-.35-.32-.23-.35-.22a22.42,22.42,0,0,1,1.58,3.63c1.63,1.94,3,2.67,3.85,2A6.57,6.57,0,0,0,510,249.3a6.76,6.76,0,0,0,1.07-2.79,6.63,6.63,0,0,0-.24-2.83,6.46,6.46,0,0,0-.41-1,7.49,7.49,0,0,0-.52-.92,8.17,8.17,0,0,0-1.48-1.68,9.49,9.49,0,0,0-2.91-1.69C504.73,238.12,503.93,239.28,502.66,241.47Z"/><path d="M153.37,309.54c.42,1.23.81,2.4,1.2,3.54a35,35,0,0,0,1.26,3.31,52.5,52.5,0,0,0,3,6.16c.58,1,1.19,2,1.84,3s1.42,2,2.19,3,1.59,2.09,2.55,3.1,1.95,2.09,3,3.2,3,2.88,5.35,5l3.9,3.28.4.34.6.46,1.21.92,2.47,1.89c1.69,1.25,3.49,2.45,5.3,3.72a151.56,151.56,0,0,0,24.92,13.37c4.53,2,9.25,3.66,14,5.23s9.6,2.88,14.42,4c19.29,4.57,38.16,5.71,52,5.93,6.91.13,12.59-.05,16.54-.14l6.17-.24,6.15-.32c3.94-.25,9.6-.61,16.47-1.29s15-1.69,23.71-3.26c4.38-.75,8.91-1.73,13.55-2.79s9.35-2.36,14.06-3.87,9.45-3.12,14.09-5,9.2-4,13.61-6.2c2.18-1.15,4.36-2.29,6.45-3.53s4.15-2.48,6.16-3.74,3.93-2.61,5.81-3.92l2.76-2,1.35-1,1.17-.94c1.59-1.28,3.13-2.47,4.49-3.69s2.69-2.3,3.8-3.4l3-2.9,2.15-2.25a55.17,55.17,0,0,0,9.2-12.61c.53-1,1.06-2,1.53-3.07s.86-2.12,1.28-3.2l.62-1.63.53-1.72c.34-1.16.69-2.34,1.05-3.58l-2.57,2.69-1.2,1.27-1.22,1.2c-.8.8-1.57,1.58-2.32,2.37l-2.33,2.3c-3,3.12-6.17,6.41-10.21,10.59l-2,2.09c-.83.8-1.79,1.7-2.85,2.71s-2.29,2-3.58,3.18-2.73,2.27-4.23,3.48l-1.1.89-1.28.94-2.6,1.92c-1.78,1.23-3.6,2.5-5.49,3.71s-3.83,2.42-5.84,3.54-4,2.25-6.13,3.35c-4.19,2.13-8.5,4.15-12.95,5.91s-9,3.39-13.49,4.81-9.08,2.62-13.54,3.73-8.86,2-13.11,2.71c-8.49,1.53-16.38,2.52-23.1,3.19s-12.29,1-16.16,1.28l-6.05.32-6.05.23c-3.87.09-9.44.25-16.18.12-13.47-.22-31.79-1.35-50.3-5.75-4.63-1-9.24-2.39-13.81-3.8s-9-3.1-13.34-5a144.31,144.31,0,0,1-23.63-12.68c-1.71-1.2-3.41-2.33-5-3.51l-2.33-1.77-1.14-.87-.57-.43-.38-.32L179,333.92c-2.17-2-3.92-3.54-5-4.64l-5.63-5.53c-.85-.85-1.74-1.61-2.53-2.41s-1.6-1.57-2.4-2.31c-1.66-1.46-3.12-3-4.82-4.51-.86-.74-1.64-1.56-2.5-2.39Z"/><path d="M155.41,289.14c1.85-1.83,3.51-3.49,5.06-5.11s3.18-3.09,4.68-4.69,3.13-3.18,4.72-5,3.4-3.7,5.33-5.89c1.09-1.14,2.67-2.91,4.71-5l3.44-3.37.9-.88,1.12-1,2.29-2.06c1.53-1.42,3.2-2.77,4.9-4.16a164.23,164.23,0,0,1,23.3-15.85,174.14,174.14,0,0,1,27.24-12.37A203.82,203.82,0,0,1,294.84,213c1.75-.16,3.43-.26,5-.33l4.51-.23c2.84-.06,5.29-.14,7.31-.16l6.3,0,6.31.21c2,.08,4.47.26,7.3.42l4.51.39c1.59.13,3.27.28,5,.49,14,1.51,33,4.61,51.83,11.11a159.61,159.61,0,0,1,27.22,12.27,135.8,135.8,0,0,1,12.1,7.83c1.87,1.42,3.74,2.79,5.48,4.25.87.73,1.76,1.42,2.58,2.17l2.35,2.07A115.13,115.13,0,0,1,454.41,266c7.2,9.05,11.53,14,17.88,22.11-1.76-10.13-4.17-17.25-11.81-27A117.64,117.64,0,0,0,448,247.77l-2.5-2.21c-.88-.8-1.82-1.54-2.75-2.31-1.84-1.56-3.82-3-5.81-4.51a143.31,143.31,0,0,0-12.83-8.31,168,168,0,0,0-28.56-12.87,223,223,0,0,0-28.75-7.69c-9.14-1.81-17.59-3-24.81-3.77-1.8-.22-3.53-.37-5.17-.51l-4.64-.39c-2.92-.16-5.44-.35-7.52-.43l-6.5-.21-6.5,0c-2.08,0-4.62.09-7.54.15l-4.66.23c-1.65.08-3.39.18-5.2.35a211.33,211.33,0,0,0-53.74,11.05A181.83,181.83,0,0,0,212,229.23a173,173,0,0,0-24.42,16.61c-1.78,1.47-3.54,2.88-5.14,4.38L180,252.39l-1.18,1.06-.94.93-3.61,3.56c-2.15,2.23-3.81,4.11-4.94,5.32-2,2.33-3.69,4.51-5.16,6.58S161.57,274,160.5,276s-1.93,4.11-2.8,6.24S156.18,286.69,155.41,289.14Z"/><path d="M158.05,268.74c-4.29-1-7.48-1-11.52,1.5a40.71,40.71,0,0,0-5.6,4.35,37.53,37.53,0,0,0-6.75,8.23,33.66,33.66,0,0,0-3.77,9.05c-.17.63-.28,1.22-.38,1.73s-.19,1-.24,1.34l-.16,1.16s0,.42-.11,1.17a27.06,27.06,0,0,0-.11,3.15,28.19,28.19,0,0,0,1.94,9.85,25.34,25.34,0,0,0,6.38,9.24,24.49,24.49,0,0,0,6.27,4.26c4.73,2.15,8.53,1.15,11.93-1.62a44.09,44.09,0,0,1-4.49-3,26.34,26.34,0,0,0-4-2.41,17.92,17.92,0,0,1-4.34-3,17.64,17.64,0,0,1-4.43-6.38,20.27,20.27,0,0,1-1.41-7.1,19.85,19.85,0,0,1,.07-2.36c0-.56.07-.88.07-.88l.13-.88c0-.28.1-.62.19-1s.16-.84.3-1.32a26,26,0,0,1,2.91-6.93,30.94,30.94,0,0,1,5.37-6.52,36.21,36.21,0,0,1,4.57-3.6C154.15,274.54,155.54,272.41,158.05,268.74Z"/><path d="M98,281.35c2.63-.44,4-.53,4.33-1.35a26,26,0,0,1,1.24-2.94,19.32,19.32,0,0,1,1.28-2.15,18.65,18.65,0,0,1,1.6-1.91,25.55,25.55,0,0,1,2.37-2.14c.67-.56.3-1.91-.15-4.53-2-1.72-3.4-2.45-4.46-1.76a22.67,22.67,0,0,0-3.47,3.05,23.53,23.53,0,0,0-1.61,1.9l-.64.87-.62.9a24.48,24.48,0,0,0-3,6.42C94.58,278.94,95.73,280,98,281.35Z"/><path d="M91.24,314.28c2.27,1.13,3.54,1.69,3.93,1.27s2.26-3,2.26-3,1.94-2.43,2.27-3-.58-1.57-2.27-3.46c-2.27-1.13-3.54-1.69-3.94-1.27s-2.26,3-2.26,3-1.94,2.43-2.26,3S89.54,312.39,91.24,314.28Z"/><path d="M164.4,239.92c4.81-1.94,8.69-3.66,12.75-5.5,2-.95,4-2,6.19-3.14s4.43-2.49,7-3.94l3.67-2.08,2.91-1.64,3.94-2.07c3.4-1.85,7.51-3.76,12-5.91l7.11-3.1c2.45-1,5-2,7.64-3.06a253.53,253.53,0,0,1,61-15c3.65-.43,6.63-.63,8.69-.85,1-.1,1.82-.16,2.37-.18l.83-.05,2.7-.14c1.74-.08,4.26-.29,7.41-.3l5.15-.08c1.85,0,3.84,0,5.93.07s4.31.07,6.6.23,4.67.22,7.11.42a249.47,249.47,0,0,1,30.89,4.31,257,257,0,0,1,28.29,7.42c2.15.66,4.06,1.4,5.8,2s3.29,1.12,4.63,1.65l6,2.35c2.76,1.06,5.18,2.09,7.5,2.88s4.45,1.56,6.58,2.21c4.28,1.24,8.37,2.38,13.41,3.6a92.6,92.6,0,0,0-10.95-8.77,57,57,0,0,0-6.11-3.65c-2.24-1.14-4.67-2.38-7.5-3.5l-6.21-2.45c-1.38-.56-3-1.08-4.77-1.72s-3.76-1.37-6-2.06a263.2,263.2,0,0,0-29.17-7.65A257.66,257.66,0,0,0,336,185.77c-2.52-.2-5-.28-7.34-.43s-4.64-.18-6.8-.22-4.22-.11-6.13-.07l-5.31.09c-3.25,0-5.85.23-7.65.32l-2.78.15-.86,0c-.56,0-1.39.08-2.45.18-2.12.22-5.19.42-9,.87a259.57,259.57,0,0,0-62.92,15.43c-2.69,1.08-5.35,2.07-7.88,3.16l-7.33,3.2c-4.62,2.21-8.85,4.19-12.35,6.11l-4.06,2.13-3,1.71-3.78,2.17c-2.63,1.51-4.85,3.09-6.91,4.54a57.18,57.18,0,0,0-5.52,4.5A92.73,92.73,0,0,0,164.4,239.92Z"/><path d="M185.15,253c2.49-2,3.82-3.52,3.7-6a87,87,0,0,0-1-9c-.59-3.64-1.34-6.91-1.34-6.91s-.7-3.27-1.71-6.82a83.2,83.2,0,0,0-2.87-8.64c-.94-2.32-2.8-3.15-5.89-3.89-1.41,2.89-2.15,4.52-1.39,6.68.43,1.15,1.67,4.67,2.6,8s1.64,6.38,1.64,6.38.67,3.07,1.21,6.47.91,7.12,1,8.34C181.29,249.83,182.65,251,185.15,253Z"/><path d="M222.88,226.42c2.56-1.26,4-2.28,4-4.09a54.9,54.9,0,0,0-.33-6.59c-.28-2.68-.76-5.08-.76-5.08s-.41-2.42-1.12-5a53.93,53.93,0,0,0-2.05-6.27c-.71-1.67-2.38-2.12-5.22-2.37-1.69,2.33-2.58,3.65-2.07,5.15.28.81,1.15,3.24,1.76,5.53s1,4.4,1,4.4.39,2.12.62,4.48.31,4.93.34,5.79C219.16,223.94,220.47,224.84,222.88,226.42Z"/><path d="M267.38,210.16c2.53-1.38,3.9-2.48,3.9-4.34a57.69,57.69,0,0,0-.55-6.79c-.38-2.76-1-5.22-1-5.22s-.51-2.47-1.32-5.13a58.49,58.49,0,0,0-2.33-6.4c-.79-1.69-2.49-2.11-5.36-2.31-1.58,2.43-2.42,3.8-1.83,5.34.31.83,1.3,3.31,2,5.65s1.21,4.52,1.21,4.52.47,2.18.79,4.61.48,5.1.53,6C263.59,207.71,264.93,208.61,267.38,210.16Z"/><path d="M303.25,208.41c2.92-.31,4.72-1,5.46-3a42,42,0,0,0,1.88-7.41c.14-.76.24-1.51.32-2.2s.17-1.32.21-1.86l.14-1.78s0-.7.08-1.78c0-.54,0-1.18,0-1.87s0-1.45,0-2.22a41.27,41.27,0,0,0-.93-7.6c-.48-2.06-2.19-3-5-3.65-1.83,2.36-2.88,3.53-2.59,5.23a45.2,45.2,0,0,1,.73,6.35c0,.65.05,1.3.05,1.9s0,1.14,0,1.61l-.06,1.54-.14,1.53c0,.47-.11,1-.19,1.6s-.16,1.24-.29,1.88a45.29,45.29,0,0,1-1.52,6.2C300.83,204.54,301.72,205.83,303.25,208.41Z"/><path d="M343.73,208.41c2.53-1.55,3.91-2.6,4-4.52.12-2.09.3-12.51.3-12.51s.32-10.43.3-12.51c0-1.92-1.34-3.05-3.79-4.71-2.53,1.55-3.9,2.6-4,4.52-.11,2.08-.3,12.51-.3,12.51s-.31,10.43-.3,12.51C340,205.62,341.28,206.74,343.73,208.41Z"/><path d="M380.81,214.43c2.78.14,4.45-.08,5.22-1.53a45.07,45.07,0,0,0,2.32-5.55c.81-2.32,1.33-4.48,1.33-4.48s.57-2.16,1-4.58a45,45,0,0,0,.59-6c0-1.65-1.35-2.63-3.87-3.83-2.46,1.34-3.8,2.08-3.92,3.48-.06.75-.21,3-.55,5.09s-.77,3.91-.77,3.91-.48,1.84-1.18,3.8-1.63,4.05-1.93,4.74C378.45,210.79,379.28,212.07,380.81,214.43Z"/><path d="M416.38,228.34c2.71.64,4.41.67,5.41-.67a36,36,0,0,0,3.07-5.26c.54-1.12,1-2.22,1.29-3l.49-1.35.45-1.37c.25-.83.59-2,.84-3.19a34.94,34.94,0,0,0,.82-6c0-1.67-1.33-2.69-3.85-3.84-2.46,1.35-3.8,2-3.93,3.37a43.23,43.23,0,0,1-.71,4.84c-.19,1-.45,1.91-.65,2.58l-.34,1.11-.42,1.09c-.26.65-.62,1.54-1.07,2.44a43.43,43.43,0,0,1-2.42,4.25C414.64,224.39,415.28,225.76,416.38,228.34Z"/><path d="M445.9,249.71a11,11,0,0,0,3.31.51,2.63,2.63,0,0,0,2.05-1,32.18,32.18,0,0,0,3.06-5.15,30.17,30.17,0,0,0,1.28-3l.48-1.33.43-1.35c.25-.82.57-1.94.81-3.13a33.37,33.37,0,0,0,.72-5.95,2.65,2.65,0,0,0-1-2.05,10.83,10.83,0,0,0-2.93-1.62,23.45,23.45,0,0,0-2.79,1.71,2.27,2.27,0,0,0-1.07,1.64,35.3,35.3,0,0,1-.61,4.67c-.18.95-.42,1.84-.61,2.49l-.32,1.07-.4,1c-.25.63-.6,1.48-1,2.34a37.92,37.92,0,0,1-2.37,4.08,2.31,2.31,0,0,0-.16,1.94A25.3,25.3,0,0,0,445.9,249.71Z"/><path d="M455.88,324c-.87,2.52-1.48,3.79-.89,4.48a32.4,32.4,0,0,1,2.14,2.63c.82,1.14,1.45,2.25,1.45,2.25a26.15,26.15,0,0,1,1.12,2.38,20.56,20.56,0,0,1,1,3c.21.81,1.57,1,4.1,1.87,2.46-.93,3.76-2,3.56-3.33a21,21,0,0,0-1.36-4.56,28.7,28.7,0,0,0-1.57-3.2,31.51,31.51,0,0,0-1.86-3,25.93,25.93,0,0,0-2.92-3.5C459.69,322.16,458.15,322.61,455.88,324Z"/><path d="M430.93,345.24c-.14,2.67-.44,4,.27,4.54a23.37,23.37,0,0,1,2.57,2,22.14,22.14,0,0,1,1.83,1.92,23.37,23.37,0,0,1,1.52,2.16,22.72,22.72,0,0,1,1.5,2.93c.37.79,1.75.76,4.4,1.15,2.23-1.41,3.31-2.67,2.89-3.94a21.87,21.87,0,0,0-2.13-4.29,24,24,0,0,0-1.46-2.09l-.69-.87-.71-.84a23.91,23.91,0,0,0-1.77-1.84,21.49,21.49,0,0,0-3.79-2.93C434.19,342.51,432.75,343.32,430.93,345.24Z"/><path d="M405.63,359.52c-1.54,2.18-2.42,3.3-2,4.15.23.47.94,1.83,1.45,3.16s.86,2.57.86,2.57a26.92,26.92,0,0,1,.51,2.66c.21,1.41.26,2.95.29,3.46.06,1,1.38,1.49,3.79,2.63,2.56-.7,4-1.41,4-2.66a27.35,27.35,0,0,0-.32-4.58,32.7,32.7,0,0,0-.74-3.49,31.49,31.49,0,0,0-1.07-3.4,26.8,26.8,0,0,0-2-4.15C409.76,358.81,408.2,358.88,405.63,359.52Z"/><path d="M363.53,371.67c-1.91,1.91-2.94,2.95-2.63,4,.17.59.73,2.34,1.12,4s.64,3.16.64,3.16.22,1.52.34,3.2.11,3.53.13,4.14c0,1.13,1.33,1.81,3.73,3.06,2.56-.81,4-1.53,4.07-2.87a40.59,40.59,0,0,0-.11-4.92c-.15-2-.45-3.8-.45-3.8s-.25-1.8-.71-3.76a40.2,40.2,0,0,0-1.38-4.72C367.78,371.93,366.23,371.67,363.53,371.67Z"/><path d="M317.77,376.05c-2.33,1.46-3.6,2.22-3.59,3.47,0,.67.09,2.71,0,4.59s-.2,3.61-.2,3.61-.17,1.71-.48,3.57-.75,3.85-.89,4.51c-.25,1.22.85,2.21,2.87,4.08,2.71-.28,4.27-.76,4.69-2.16a44.74,44.74,0,0,0,1.09-5.2c.33-2.12.49-4.07.49-4.07s.21-1.94.28-4.09a44.65,44.65,0,0,0-.09-5.31C321.82,377.6,320.38,376.84,317.77,376.05Z"/><path d="M271.18,377c-2,1.86-3.11,2.89-2.84,4.1.14.66.63,2.63.94,4.46s.5,3.51.5,3.51.16,1.68.19,3.54-.05,3.88-.06,4.56c0,1.24,1.24,2,3.58,3.47,2.6-.8,4-1.52,4.2-3a46,46,0,0,0,.13-5.27c-.06-2.15-.27-4.1-.27-4.1s-.17-1.95-.53-4.07a43.51,43.51,0,0,0-1.15-5.15C275.44,377.72,273.89,377.3,271.18,377Z"/><path d="M225.12,366.21c-.56,1.24-1,2.14-1.3,2.84a1.72,1.72,0,0,0-.1,1.59,19,19,0,0,1,1.57,3,14.68,14.68,0,0,1,.59,1.78l.2.79.12.82a15.46,15.46,0,0,1,.13,1.86,18.65,18.65,0,0,1-.3,3.4c-.07.46.16.88.7,1.44S228,385,229,385.88a9.55,9.55,0,0,0,3.18-.42,2.18,2.18,0,0,0,1.46-1.46,20.83,20.83,0,0,0,.53-5.23,22.55,22.55,0,0,0-.24-2.82l-.21-1.22-.27-1.2a21.72,21.72,0,0,0-.85-2.7,21,21,0,0,0-2.48-4.64,2.21,2.21,0,0,0-1.9-.8A10.2,10.2,0,0,0,225.12,366.21Z"/><path d="M182.58,346.8c-2.4,1.35-3.7,2.08-3.74,3.33,0,.67,0,2.69-.21,4.54s-.46,3.52-.46,3.52-.3,1.67-.8,3.46-1.18,3.69-1.4,4.33c-.4,1.18.56,2.32,2.34,4.42,2.73,0,4.33-.23,4.93-1.58a43.65,43.65,0,0,0,1.71-5.13c.57-2.13.9-4.11.9-4.11s.38-2,.59-4.16a41.24,41.24,0,0,0,.2-5.41C186.55,348.54,185.15,347.72,182.58,346.8Z"/></svg>