<?xml version="1.0" encoding="UTF-8" standalone="no"?><!-- Generator: Gravit.io --><svg xmlns="http://www.w3.org/2000/svg" xmlns:xlink="http://www.w3.org/1999/xlink" style="isolation:isolate" viewBox="817.905 246 391.19 378.598" width="391.19pt" height="378.598pt"><g><g><circle vector-effect="non-scaling-stroke" cx="1010.9973289517732" cy="278.3791648892743" r="27.999999999999943" fill="rgb(194,24,91)"/><circle vector-effect="non-scaling-stroke" cx="1007.9999999999995" cy="273.99999999999983" r="27.999999999999943" fill="rgb(236,64,122)"/></g><g><circle vector-effect="non-scaling-stroke" cx="1181.0951140955044" cy="442" r="28" fill="rgb(194,24,91)"/><circle vector-effect="non-scaling-stroke" cx="1178.0977851437306" cy="437.62083511072547" r="28" fill="rgb(236,64,122)"/></g><g><circle vector-effect="non-scaling-stroke" cx="1010.9973289517737" cy="596.5981542321812" r="27.999999999999886" fill="rgb(194,24,91)"/><circle vector-effect="non-scaling-stroke" cx="1007.9999999999995" cy="592.218989342907" r="27.999999999999943" fill="rgb(236,64,122)"/></g><g><circle vector-effect="non-scaling-stroke" cx="848.9022148562694" cy="442" r="27.999999999999886" fill="rgb(194,24,91)"/><circle vector-effect="non-scaling-stroke" cx="845.9048859044951" cy="437.6208351107258" r="27.999999999999886" fill="rgb(236,64,122)"/></g><g><rect x="910.05" y="320.928" width="7.202" height="96.701" transform="matrix(-0.707,-0.707,0.707,-0.707,1298.187,1276.614)" fill="rgb(236,64,122)"/><path d=" M 949.421 350.901 L 931.865 333.329 L 967 315.781 L 949.421 350.901 Z " fill="rgb(236,64,122)"/></g><g><rect x="1089.148" y="301.152" width="7.202" height="96.701" transform="matrix(0.707,-0.707,0.707,0.707,73.152,875.5)" fill="rgb(236,64,122)"/><path d=" M 1128.519 367.88 L 1110.963 385.452 L 1146.098 403 L 1128.519 367.88 Z " fill="rgb(236,64,122)"/></g><g><rect x="1103.65" y="470.152" width="7.202" height="96.701" transform="matrix(0.707,0.707,-0.707,0.707,691.442,-631.259)" fill="rgb(236,64,122)"/><path d=" M 1071.481 536.88 L 1089.037 554.452 L 1053.902 572 L 1071.481 536.88 Z " fill="rgb(236,64,122)"/></g></g></svg>