<svg id="Layer_10" data-name="Layer 10" xmlns="http://www.w3.org/2000/svg" viewBox="0 0 600 600"><defs><style>.cls-1{fill:#d6e7fc;}.cls-2{fill:#b5d3fa;}.cls-3{fill:#3386f2;}.cls-4{fill:#ec63c8;}</style></defs><title>Artboard 1</title><path class="cls-1" d="M379.77,302.25h-2v56.22a1,1,0,0,0,2,0V302.25m0-33.84h-2v31.84h2V268.41m0-33.84h-2v31.84h2V234.57m0-33.84h-2v31.84h2V200.73m0-33.85h-2v31.85h2V166.88m-1-59.21a1,1,0,0,0-1,1v56.21h2V108.67a1,1,0,0,0-1-1"/><path class="cls-1" d="M345.93,302.25h-2v56.22a1,1,0,0,0,2,0V302.25m0-33.84h-2v31.84h2V268.41m0-33.84h-2v31.84h2V234.57m0-33.84h-2v31.84h2V200.73m0-33.85h-2v31.85h2V166.88m-1-59.21a1,1,0,0,0-1,1v56.21h2V108.67a1,1,0,0,0-1-1"/><path class="cls-1" d="M312.09,302.25h-2v56.22a1,1,0,0,0,2,0V302.25m0-33.84h-2v31.84h2V268.41m0-33.84h-2v31.84h2V234.57m0-33.84h-2v31.84h2V200.73m0-33.85h-2v31.85h2V166.88m-1-59.21a1,1,0,0,0-1,1v56.21h2V108.67a1,1,0,0,0-1-1"/><path class="cls-1" d="M278.24,302.25h-2v56.22a1,1,0,0,0,2,0V302.25m0-33.84h-2v31.84h2V268.41m0-33.84h-2v31.84h2V234.57m0-33.84h-2v31.84h2V200.73m0-33.85h-2v31.85h2V166.88m-1-59.21a1,1,0,0,0-1,1v56.21h2V108.67a1,1,0,0,0-1-1"/><path class="cls-1" d="M244.4,302.25h-2v56.22a1,1,0,0,0,2,0V302.25m0-33.84h-2v31.84h2V268.41m0-33.84h-2v31.84h2V234.57m0-33.84h-2v31.84h2V200.73m0-33.85h-2v31.85h2V166.88m-1-59.21a1,1,0,0,0-1,1v56.21h2V108.67a1,1,0,0,0-1-1"/><path class="cls-1" d="M310.09,164.88H278.24v2h31.85v-2m33.84,0H312.09v2h31.84v-2m33.84,0H345.93v2h31.84v-2m58.21,0H379.77v2H436a1,1,0,0,0,0-2"/><polyline class="cls-2" points="379.77 164.88 377.77 164.88 377.77 166.88 379.77 166.88 379.77 164.88"/><polyline class="cls-2" points="345.93 164.88 343.93 164.88 343.93 166.88 345.93 166.88 345.93 164.88"/><polyline class="cls-2" points="312.09 164.88 310.09 164.88 310.09 166.88 312.09 166.88 312.09 164.88"/><path class="cls-1" d="M242.4,164.88H186.19a1,1,0,0,0,0,2H242.4v-2m33.84,0H244.4v2h31.84v-2"/><polyline class="cls-2" points="278.24 164.88 276.24 164.88 276.24 166.88 278.24 166.88 278.24 164.88"/><polyline class="cls-2" points="244.4 164.88 242.4 164.88 242.4 166.88 244.4 166.88 244.4 164.88"/><path class="cls-1" d="M310.09,198.73H278.24v2h31.85v-2m33.84,0H312.09v2h31.84v-2m33.84,0H345.93v2h31.84v-2m58.21,0H379.77v2H436a1,1,0,0,0,0-2"/><polyline class="cls-2" points="379.77 198.72 377.77 198.72 377.77 200.72 379.77 200.72 379.77 198.72"/><polyline class="cls-2" points="345.93 198.72 343.93 198.72 343.93 200.72 345.93 200.72 345.93 198.72"/><polyline class="cls-2" points="312.09 198.72 310.09 198.72 310.09 200.72 312.09 200.72 312.09 198.72"/><path class="cls-1" d="M242.4,198.73H186.19a1,1,0,0,0,0,2H242.4v-2m33.84,0H244.4v2h31.84v-2"/><polyline class="cls-2" points="278.24 198.72 276.24 198.72 276.24 200.72 278.24 200.72 278.24 198.72"/><polyline class="cls-2" points="244.4 198.72 242.4 198.72 242.4 200.72 244.4 200.72 244.4 198.72"/><path class="cls-1" d="M242.4,232.57H186.19a1,1,0,0,0,0,2H242.4v-2m33.84,0H244.4v2h31.84v-2m33.85,0H278.24v2h31.85v-2m33.84,0H312.09v2h31.84v-2m33.84,0H345.93v2h31.84v-2m58.21,0H379.77v2H436a1,1,0,0,0,0-2"/><polyline class="cls-2" points="379.77 232.57 377.77 232.57 377.77 234.57 379.77 234.57 379.77 232.57"/><polyline class="cls-2" points="345.93 232.57 343.93 232.57 343.93 234.57 345.93 234.57 345.93 232.57"/><polyline class="cls-2" points="312.09 232.57 310.09 232.57 310.09 234.57 312.09 234.57 312.09 232.57"/><polyline class="cls-2" points="278.24 232.57 276.24 232.57 276.24 234.57 278.24 234.57 278.24 232.57"/><polyline class="cls-2" points="244.4 232.57 242.4 232.57 242.4 234.57 244.4 234.57 244.4 232.57"/><path class="cls-1" d="M242.4,266.41H186.19a1,1,0,0,0,0,2H242.4v-2m33.84,0H244.4v2h31.84v-2m33.85,0H278.24v2h31.85v-2m33.84,0H312.09v2h31.84v-2m33.84,0H345.93v2h31.84v-2m58.21,0H379.77v2H436a1,1,0,0,0,0-2"/><polyline class="cls-2" points="379.77 266.41 377.77 266.41 377.77 268.41 379.77 268.41 379.77 266.41"/><polyline class="cls-2" points="345.93 266.41 343.93 266.41 343.93 268.41 345.93 268.41 345.93 266.41"/><polyline class="cls-2" points="312.09 266.41 310.09 266.41 310.09 268.41 312.09 268.41 312.09 266.41"/><polyline class="cls-2" points="278.24 266.41 276.24 266.41 276.24 268.41 278.24 268.41 278.24 266.41"/><polyline class="cls-2" points="244.4 266.41 242.4 266.41 242.4 268.41 244.4 268.41 244.4 266.41"/><path class="cls-1" d="M242.4,300.25H186.19a1,1,0,0,0,0,2H242.4v-2m33.84,0H244.4v2h31.84v-2m33.85,0H278.24v2h31.85v-2m33.84,0H312.09v2h31.84v-2m33.84,0H345.93v2h31.84v-2m58.21,0H379.77v2H436a1,1,0,0,0,0-2"/><polyline class="cls-2" points="379.77 300.25 377.77 300.25 377.77 302.25 379.77 302.25 379.77 300.25"/><polyline class="cls-2" points="345.93 300.25 343.93 300.25 343.93 302.25 345.93 302.25 345.93 300.25"/><polyline class="cls-2" points="312.09 300.25 310.09 300.25 310.09 302.25 312.09 302.25 312.09 300.25"/><polyline class="cls-2" points="278.24 300.25 276.24 300.25 276.24 302.25 278.24 302.25 278.24 300.25"/><polyline class="cls-2" points="244.4 300.25 242.4 300.25 242.4 302.25 244.4 302.25 244.4 300.25"/><circle class="cls-3" cx="357.35" cy="456.98" r="35.35"/><path d="M354.25,480.94a36.36,36.36,0,1,1,36.36-36.35A36.38,36.38,0,0,1,354.25,480.94Zm0-70.71a34.36,34.36,0,1,0,34.36,34.36A34.4,34.4,0,0,0,354.25,410.23Z"/><polygon class="cls-4" points="217.92 196.12 260.32 122.67 175.51 122.67 217.92 196.12 260.32 122.67 175.51 122.67 217.92 196.12"/><path d="M163,132.65h88.27L207.15,209.1Zm84.8,2H166.48l40.67,70.45Z"/></svg>