<svg id="Layer_9" data-name="Layer 9" xmlns="http://www.w3.org/2000/svg" viewBox="0 0 600 600"><defs><style>.cls-1{fill:#d6e7fc;}.cls-2{fill:#b5d3fa;}.cls-3{fill:#ec63c8;}.cls-4{fill:#3386f2;}</style></defs><title>Artboard 1</title><path class="cls-1" d="M348.54,374.33h-2v56.21a1,1,0,0,0,2,0V374.33m0-33.84h-2v31.84h2V340.49m0-33.85h-2v31.85h2V306.64m0-33.84h-2v31.84h2V272.8m0-33.84h-2V270.8h2V239m-1-59.22a1,1,0,0,0-1,1V237h2V180.74a1,1,0,0,0-1-1"/><path class="cls-1" d="M314.69,374.33h-2v56.21a1,1,0,0,0,2,0V374.33m0-33.84h-2v31.84h2V340.49m0-33.85h-2v31.85h2V306.64m0-33.84h-2v31.84h2V272.8m0-33.84h-2V270.8h2V239m-1-59.22a1,1,0,0,0-1,1V237h2V180.74a1,1,0,0,0-1-1"/><path class="cls-1" d="M280.85,374.33h-2v56.21a1,1,0,1,0,2,0V374.33m0-33.84h-2v31.84h2V340.49m0-33.85h-2v31.85h2V306.64m0-33.84h-2v31.84h2V272.8m0-33.84h-2V270.8h2V239m-1-59.22a1,1,0,0,0-1,1V237h2V180.74a1,1,0,0,0-1-1"/><path class="cls-1" d="M247,374.33h-2v56.21a1,1,0,0,0,2,0V374.33m0-33.84h-2v31.84h2V340.49m0-33.85h-2v31.85h2V306.64m0-33.84h-2v31.84h2V272.8M247,239h-2V270.8h2V239m-1-59.22a1,1,0,0,0-1,1V237h2V180.74a1,1,0,0,0-1-1"/><path class="cls-1" d="M213.17,374.33h-2v56.21a1,1,0,0,0,2,0V374.33m0-33.84h-2v31.84h2V340.49m0-33.85h-2v31.85h2V306.64m0-33.84h-2v31.84h2V272.8m0-33.84h-2V270.8h2V239m-1-59.22a1,1,0,0,0-1,1V237h2V180.74a1,1,0,0,0-1-1"/><path class="cls-1" d="M278.85,237H247v2h31.84v-2m33.84,0H280.85v2h31.84v-2m33.85,0H314.69v2h31.85v-2m58.21,0H348.54v2h56.21a1,1,0,0,0,0-2"/><polyline class="cls-2" points="348.54 236.96 346.54 236.96 346.54 238.96 348.54 238.96 348.54 236.96"/><polyline class="cls-2" points="314.69 236.96 312.69 236.96 312.69 238.96 314.69 238.96 314.69 236.96"/><polyline class="cls-2" points="280.85 236.96 278.85 236.96 278.85 238.96 280.85 238.96 280.85 236.96"/><path class="cls-1" d="M211.17,237H155a1,1,0,0,0,0,2h56.22v-2M245,237H213.17v2H245v-2"/><polyline class="cls-2" points="247.01 236.96 245.01 236.96 245.01 238.96 247.01 238.96 247.01 236.96"/><polyline class="cls-2" points="213.16 236.96 211.17 236.96 211.17 238.96 213.16 238.96 213.16 236.96"/><path class="cls-1" d="M278.85,270.8H247v2h31.84v-2m33.84,0H280.85v2h31.84v-2m33.85,0H314.69v2h31.85v-2m58.21,0H348.54v2h56.21a1,1,0,0,0,0-2"/><polyline class="cls-2" points="348.54 270.8 346.54 270.8 346.54 272.8 348.54 272.8 348.54 270.8"/><polyline class="cls-2" points="314.69 270.8 312.69 270.8 312.69 272.8 314.69 272.8 314.69 270.8"/><polyline class="cls-2" points="280.85 270.8 278.85 270.8 278.85 272.8 280.85 272.8 280.85 270.8"/><path class="cls-1" d="M211.17,270.8H155a1,1,0,0,0,0,2h56.22v-2m33.84,0H213.17v2H245v-2"/><polyline class="cls-2" points="247.01 270.8 245.01 270.8 245.01 272.8 247.01 272.8 247.01 270.8"/><polyline class="cls-2" points="213.16 270.8 211.17 270.8 211.17 272.8 213.16 272.8 213.16 270.8"/><path class="cls-1" d="M211.17,304.64H155a1,1,0,0,0,0,2h56.22v-2m33.84,0H213.17v2H245v-2m33.84,0H247v2h31.84v-2m33.84,0H280.85v2h31.84v-2m33.85,0H314.69v2h31.85v-2m58.21,0H348.54v2h56.21a1,1,0,0,0,0-2"/><polyline class="cls-2" points="348.54 304.64 346.54 304.64 346.54 306.64 348.54 306.64 348.54 304.64"/><polyline class="cls-2" points="314.69 304.64 312.69 304.64 312.69 306.64 314.69 306.64 314.69 304.64"/><polyline class="cls-2" points="280.85 304.64 278.85 304.64 278.85 306.64 280.85 306.64 280.85 304.64"/><polyline class="cls-2" points="247.01 304.64 245.01 304.64 245.01 306.64 247.01 306.64 247.01 304.64"/><polyline class="cls-2" points="213.16 304.64 211.17 304.64 211.17 306.64 213.16 306.64 213.16 304.64"/><path class="cls-1" d="M211.17,338.49H155a1,1,0,0,0,0,2h56.22v-2m33.84,0H213.17v2H245v-2m33.84,0H247v2h31.84v-2m33.84,0H280.85v2h31.84v-2m33.85,0H314.69v2h31.85v-2m58.21,0H348.54v2h56.21a1,1,0,0,0,0-2"/><polyline class="cls-2" points="348.54 338.49 346.54 338.49 346.54 340.49 348.54 340.49 348.54 338.49"/><polyline class="cls-2" points="314.69 338.49 312.69 338.49 312.69 340.49 314.69 340.49 314.69 338.49"/><polyline class="cls-2" points="280.85 338.49 278.85 338.49 278.85 340.49 280.85 340.49 280.85 338.49"/><polyline class="cls-2" points="247.01 338.49 245.01 338.49 245.01 340.49 247.01 340.49 247.01 338.49"/><polyline class="cls-2" points="213.16 338.49 211.17 338.49 211.17 340.49 213.16 340.49 213.16 338.49"/><path class="cls-1" d="M211.17,372.33H155a1,1,0,0,0,0,2h56.22v-2m33.84,0H213.17v2H245v-2m33.84,0H247v2h31.84v-2m33.84,0H280.85v2h31.84v-2m33.85,0H314.69v2h31.85v-2m58.21,0H348.54v2h56.21a1,1,0,0,0,0-2"/><polyline class="cls-2" points="348.54 372.33 346.54 372.33 346.54 374.33 348.54 374.33 348.54 372.33"/><polyline class="cls-2" points="314.69 372.33 312.69 372.33 312.69 374.33 314.69 374.33 314.69 372.33"/><polyline class="cls-2" points="280.85 372.33 278.85 372.33 278.85 374.33 280.85 374.33 280.85 372.33"/><polyline class="cls-2" points="247.01 372.33 245.01 372.33 245.01 374.33 247.01 374.33 247.01 372.33"/><polyline class="cls-2" points="213.16 372.33 211.17 372.33 211.17 374.33 213.16 374.33 213.16 372.33"/><path class="cls-3" d="M95.9,395.66a14.33,14.33,0,0,1-7.29,1.8c-6.62,0-11.12-3.44-11.12-8s4.5-8,11.12-8a14.33,14.33,0,0,1,7.29,1.8l-2,3.52a12,12,0,0,0-5.27-1.22c-3.32,0-6.12,1.46-6.12,3.9s2.8,3.9,6.12,3.9a12,12,0,0,0,5.27-1.22Z"/><path class="cls-3" d="M98.79,381.76c2.26-.16,5-.3,7.8-.3,8.26,0,10.85,2.64,10.85,5.5,0,1.9-1.19,3.6-3.67,4.68l3.35,3.4-3.63,2.72-4.62-5c-.6,0-1.24.06-1.9.06-1.18,0-2.34,0-3.38-.1V397h-4.8Zm4.8,7.06c.88,0,1.92.08,3.08.08,4.42,0,5.76-.82,5.76-1.68s-1.34-1.66-5.76-1.66c-1.16,0-2.2,0-3.08.08Z"/><polygon class="cls-3" points="125.23 385.96 125.23 387.66 134.51 387.66 134.51 391.26 125.23 391.26 125.23 392.96 136.85 392.96 136.85 396.96 120.43 396.96 120.43 381.96 136.88 381.96 136.88 385.96 125.23 385.96"/><path class="cls-3" d="M155.15,394.84H144.43l-2.2,2.92-3.56-2.62,11.12-14.28,11.13,14.28-3.57,2.62Zm-2.86-3.8-2.5-3.3-2.5,3.3Z"/><polygon class="cls-3" points="178.19 385.96 171.23 385.96 171.23 396.96 166.27 396.96 166.27 385.96 159.31 385.96 159.31 381.96 178.19 381.96 178.19 385.96"/><polygon class="cls-3" points="185.89 385.96 185.89 387.66 195.17 387.66 195.17 391.26 185.89 391.26 185.89 392.96 197.51 392.96 197.51 396.96 181.09 396.96 181.09 381.96 197.53 381.96 197.53 385.96 185.89 385.96"/><path class="cls-4" d="M79.23,435.11a18.73,18.73,0,0,0,8.1,1.7c1.86,0,4-.23,4-1,0-.62-1.34-.73-3.2-.85-6.88-.43-10.06-1.6-10.06-4.88,0-3.84,4.16-5.26,8.94-5.26a20.75,20.75,0,0,1,8,1.54L93.42,430a18.72,18.72,0,0,0-6.73-1.2c-2,0-3.84.24-3.84,1,0,.56.94.7,2.62.8,6,.34,10.65,1.16,10.65,4.94,0,3.53-3.77,5.25-9,5.25a21.51,21.51,0,0,1-9.6-2Z"/><path class="cls-4" d="M98.11,432.81c0-4.56,4.3-8,10.74-8s10.73,3.44,10.73,8-4.3,8-10.73,8S98.11,437.38,98.11,432.81Zm16.47,0c0-2.44-2.61-3.9-5.73-3.9s-5.74,1.46-5.74,3.9,2.6,3.91,5.74,3.91S114.58,435.23,114.58,432.81Z"/><polygon class="cls-4" points="122.57 425.31 127.37 425.31 127.37 436.31 138.59 436.31 138.59 440.32 122.57 440.32 122.57 425.31"/><polygon class="cls-4" points="136.79 427.13 140.43 424.51 147.91 434.44 155.4 424.51 159.03 427.13 147.91 441.42 136.79 427.13"/><polygon class="cls-4" points="177.65 440.32 161.23 440.32 161.23 425.31 177.68 425.31 177.68 429.31 166.03 429.31 166.03 431.01 175.31 431.01 175.31 434.62 166.03 434.62 166.03 436.31 177.65 436.31 177.65 440.32"/><path d="M97.68,475.91V481a13.2,13.2,0,0,1-9.07,3.16c-6.62,0-11.12-3.44-11.12-8s4.5-8,11.12-8a14.85,14.85,0,0,1,6.67,1.46l-1.85,3.66a11.85,11.85,0,0,0-4.82-1c-3.32,0-6.12,1.46-6.12,3.9s2.8,3.9,6.12,3.9A9.19,9.19,0,0,0,93.17,479v-3Z"/><path d="M111.05,479.45c-.6,0-1.24.06-1.9.06-1.18,0-2.34,0-3.38-.1v4.26H101v-15.2c2.26-.16,5-.3,7.8-.3,8.26,0,10.85,2.64,10.85,5.5,0,1.9-1.19,3.6-3.67,4.68l3.34,3.4-3.62,2.72Zm3.56-5.52c0-.86-1.34-1.66-5.76-1.66-1.16,0-2.2,0-3.08.08v3.18c.88,0,1.92.08,3.08.08C113.27,475.61,114.61,474.79,114.61,473.93Z"/><path d="M137.29,481.55H126.57l-2.2,2.92-3.56-2.62,11.12-14.28,11.12,14.28-3.56,2.62Zm-5.36-7.1-2.5,3.3h5Z"/><path d="M150.05,479.71v4h-4.8v-15.2c2.26-.18,5.2-.3,7.36-.3,8.58,0,11.29,2.74,11.29,5.9,0,3.36-3.11,5.74-10.47,5.74C152.25,479.81,151.09,479.77,150.05,479.71Zm8.84-5.68c0-.86-1.34-1.76-5.76-1.76-1.16,0-2.2,0-3.08.08v3.38c.88,0,1.92.08,3.08.08C157.55,475.81,158.89,474.89,158.89,474Z"/><polygon points="180.69 478.17 171.49 478.17 171.49 483.67 166.69 483.67 166.69 468.67 171.49 468.67 171.49 474.17 180.69 474.17 180.69 468.67 185.5 468.67 185.5 483.67 180.69 483.67 180.69 478.17"/><rect class="cls-3" x="224.3" y="374.46" width="7.2" height="22.5"/><polygon class="cls-3" points="235.85 374.46 264.17 374.46 264.17 380.46 253.73 380.46 253.73 396.96 246.29 396.96 246.29 380.46 235.85 380.46 235.85 374.46"/><rect class="cls-4" x="224.3" y="417.82" width="7.2" height="22.5"/><polygon class="cls-4" points="235.85 417.82 264.17 417.82 264.17 423.82 253.73 423.82 253.73 440.32 246.29 440.32 246.29 423.82 235.85 423.82 235.85 417.82"/><rect x="224.3" y="461.17" width="7.2" height="22.5"/><polygon points="235.85 461.17 264.17 461.17 264.17 467.17 253.73 467.17 253.73 483.67 246.29 483.67 246.29 467.17 235.85 467.17 235.85 461.17"/><circle class="cls-4" cx="163.08" cy="151.88" r="35.35"/><path d="M152.22,188.24a36.36,36.36,0,1,1,36.35-36.36A36.39,36.39,0,0,1,152.22,188.24Zm0-70.71a34.36,34.36,0,1,0,34.35,34.35A34.39,34.39,0,0,0,152.22,117.53Z"/><polygon class="cls-3" points="480.1 332.25 437.7 405.7 522.51 405.7 480.1 332.25 437.7 405.7 522.51 405.7 480.1 332.25"/><path d="M512.9,399H424.63l44.14-76.45Zm-84.81-2h81.35l-40.67-70.45Z"/></svg>