<?xml version="1.0" encoding="UTF-8" standalone="no"?><!-- Generator: Gravit.io --><svg xmlns="http://www.w3.org/2000/svg" xmlns:xlink="http://www.w3.org/1999/xlink" style="isolation:isolate" viewBox="670.719 872.021 119.656 119.656" width="119.656pt" height="119.656pt"><path d=" M 786.184 975.549 C 784.515 974.06 782.284 972.439 779.462 971.131 C 780.751 969.012 781.494 966.524 781.494 963.866 C 781.494 956.134 775.204 949.844 767.472 949.844 C 759.74 949.844 753.45 956.134 753.45 963.866 C 753.45 966.489 754.176 968.945 755.434 971.047 C 752.784 972.251 750.648 973.734 749.001 975.138 C 747.353 973.742 745.219 972.267 742.575 971.066 C 743.84 968.96 744.569 966.497 744.569 963.866 C 744.569 956.134 738.279 949.844 730.547 949.844 C 722.815 949.844 716.525 956.134 716.525 963.866 C 716.525 966.497 717.254 968.96 718.52 971.066 C 715.875 972.267 713.742 973.742 712.094 975.138 C 710.523 973.799 708.506 972.388 706.025 971.216 C 707.347 969.077 708.112 966.56 708.112 963.866 C 708.112 956.134 701.822 949.844 694.09 949.844 C 686.357 949.844 680.067 956.134 680.067 963.866 C 680.067 966.455 680.775 968.88 682.004 970.964 C 679.006 972.3 676.651 973.996 674.911 975.549 C 672.248 977.924 670.719 981.351 670.719 984.953 L 670.719 987.003 C 670.719 989.585 672.812 991.677 675.393 991.677 C 677.975 991.677 680.067 989.585 680.067 987.003 L 680.067 984.953 C 680.067 984.014 680.455 983.13 681.133 982.525 C 683.504 980.41 687.616 977.889 693.739 977.889 C 699.862 977.889 703.974 980.41 706.345 982.525 C 707.023 983.13 707.411 984.014 707.411 984.953 L 707.411 987.003 C 707.411 989.585 709.503 991.677 712.085 991.677 C 714.666 991.677 716.759 989.585 716.759 987.003 L 716.759 984.953 C 716.759 984.02 717.149 983.139 717.83 982.535 C 720.221 980.415 724.37 977.889 730.547 977.889 C 736.725 977.889 740.873 980.415 743.265 982.535 C 743.945 983.139 744.336 984.02 744.336 984.953 L 744.336 987.003 C 744.336 989.585 746.428 991.677 749.01 991.677 C 751.591 991.677 753.684 989.585 753.684 987.003 L 753.684 984.953 C 753.684 984.014 754.072 983.13 754.749 982.525 C 757.121 980.41 761.232 977.889 767.355 977.889 C 773.478 977.889 777.59 980.41 779.962 982.525 C 780.639 983.13 781.027 984.014 781.027 984.953 L 781.027 987.003 C 781.027 989.585 783.119 991.677 785.701 991.677 C 788.283 991.677 790.375 989.585 790.375 987.003 L 790.375 984.953 C 790.375 981.351 788.847 977.924 786.184 975.549 L 786.184 975.549 Z  M 694.09 959.192 C 696.667 959.192 698.764 961.289 698.764 963.866 C 698.764 966.444 696.667 968.54 694.09 968.54 C 691.512 968.54 689.416 966.444 689.416 963.866 C 689.416 961.289 691.512 959.192 694.09 959.192 Z  M 725.873 963.866 C 725.873 961.289 727.97 959.192 730.547 959.192 C 733.124 959.192 735.221 961.289 735.221 963.866 C 735.221 966.444 733.124 968.54 730.547 968.54 C 727.97 968.54 725.873 966.444 725.873 963.866 Z  M 767.472 959.192 C 770.049 959.192 772.146 961.289 772.146 963.866 C 772.146 966.444 770.049 968.54 767.472 968.54 C 764.895 968.54 762.798 966.444 762.798 963.866 C 762.798 961.289 764.895 959.192 767.472 959.192 Z  M 694.09 917.126 L 697.8 917.126 L 707.485 944.397 C 708.166 946.313 709.967 947.508 711.889 947.508 C 712.409 947.508 712.936 947.421 713.453 947.238 C 715.886 946.373 717.158 943.701 716.294 941.269 L 707.72 917.126 L 753.374 917.126 L 744.8 941.269 C 743.937 943.701 745.208 946.374 747.641 947.238 C 748.158 947.421 748.686 947.509 749.205 947.509 C 751.128 947.509 752.93 946.313 753.61 944.397 L 763.294 917.126 L 767.005 917.126 C 769.586 917.126 771.679 915.034 771.679 912.452 C 771.679 909.87 769.586 907.778 767.005 907.778 L 752.515 907.778 L 752.515 906.387 C 752.515 902.924 751.038 899.629 748.464 897.347 C 746.961 896.016 744.979 894.572 742.496 893.371 C 743.81 891.238 744.569 888.728 744.569 886.043 C 744.569 878.311 738.279 872.021 730.547 872.021 C 722.815 872.021 716.525 878.311 716.525 886.043 C 716.525 888.728 717.285 891.238 718.598 893.371 C 716.115 894.571 714.134 896.016 712.631 897.347 C 710.056 899.629 708.579 902.924 708.579 906.387 L 708.579 907.778 L 694.09 907.778 C 691.508 907.778 689.416 909.87 689.416 912.452 C 689.416 915.034 691.508 917.126 694.09 917.126 L 694.09 917.126 Z  M 725.873 886.043 C 725.873 883.466 727.97 881.369 730.547 881.369 C 733.124 881.369 735.221 883.466 735.221 886.043 C 735.221 888.621 733.124 890.718 730.547 890.718 C 727.97 890.718 725.873 888.621 725.873 886.043 Z  M 717.927 906.387 C 717.927 905.597 718.257 904.853 718.831 904.343 C 721.033 902.392 724.853 900.066 730.547 900.066 C 736.241 900.066 740.061 902.392 742.263 904.343 C 742.838 904.853 743.167 905.597 743.167 906.387 L 743.167 907.778 L 717.927 907.778 L 717.927 906.387 Z " fill="rgb(255,255,255)"/></svg>