<svg xmlns="http://www.w3.org/2000/svg" viewBox="0 0 1632.29 313.5"><defs><style>.cls-1{fill:#3386f2;}</style></defs><title>Asset 1</title><g id="Layer_2" data-name="Layer 2"><g id="Layer_1-2" data-name="Layer 1"><path d="M514.2,61.2c24.6,0,42.6,11.1,51.6,26.1V63.6h51.3V230.7c0,44.7-25.8,82.8-83.7,82.8-49.8,0-82.2-25.2-86.7-65.1h50.7c3.3,12.6,15.9,20.7,33.6,20.7,19.5,0,34.8-10.2,34.8-38.4V207c-9.3,14.7-27,26.4-51.6,26.4-41.1,0-73.8-33.6-73.8-86.4S473.1,61.2,514.2,61.2Zm15,44.7c-19.2,0-36.6,14.4-36.6,41.1s17.4,41.7,36.6,41.7c19.5,0,36.6-14.7,36.6-41.4S548.7,105.9,529.2,105.9Z"/><path d="M705.6,231H654.3V63.6h51.3V91.5c11.7-17.7,30-29.7,52.5-29.7v54.3H744c-24.3,0-38.4,8.4-38.4,37.2Z"/><path d="M846.29,61.2c24.91,0,42.6,11.4,51.61,26.1V63.6h51.3V231H897.9V207.3c-9.31,14.7-27,26.1-51.91,26.1-40.8,0-73.5-33.6-73.5-86.4S805.19,61.2,846.29,61.2Zm15,44.7c-19.2,0-36.6,14.4-36.6,41.1s17.4,41.7,36.6,41.7c19.5,0,36.61-14.7,36.61-41.4S880.79,105.9,861.29,105.9Z"/><path d="M1089.29,61.2c41.1,0,73.8,33,73.8,85.8s-32.7,86.4-73.8,86.4c-24.6,0-42.3-11.7-51.6-25.8V310.8h-51.3V63.6h51.3V87.3C1047,72.6,1064.69,61.2,1089.29,61.2ZM1074,105.9c-19.2,0-36.6,14.7-36.6,41.4s17.4,41.4,36.6,41.4c19.5,0,36.9-15,36.9-41.7S1093.49,105.9,1074,105.9Z"/><path d="M1190.09,9h51.3V86.1c10.2-14.4,28.5-24.3,51.6-24.3,38.1,0,63.6,26.4,63.6,71.4V231h-51V140.1c0-22.8-12.6-35.4-32.1-35.4s-32.1,12.6-32.1,35.4V231h-51.3Z"/><path d="M1392.28,20.4h51.3V231h-51.3Z"/><path d="M1469.38,20.4h162.91V61.5h-55.81V231h-51.3V61.5h-55.8Z"/><path class="cls-1" d="M72,144A144,144,0,0,1,180,4.54a144,144,0,1,0,0,278.92A144,144,0,0,1,72,144Z"/><path class="cls-1" d="M216,180V108h62.34a72,72,0,1,0,0,72Z"/></g></g></svg>