<?xml version="1.0" encoding="UTF-8" standalone="no"?><!-- Generator: Gravit.io --><svg xmlns="http://www.w3.org/2000/svg" xmlns:xlink="http://www.w3.org/1999/xlink" style="isolation:isolate" viewBox="185.154 843.149 133.191 138.606" width="133.191pt" height="138.606pt"><path d=" M 304.81 920.824 L 304.81 904.08 C 312.629 901.744 318.346 894.49 318.346 885.922 C 318.346 875.473 309.845 866.972 299.396 866.972 C 293.86 866.972 288.871 869.359 285.402 873.158 L 270.475 865.018 C 270.623 864.066 270.7 863.092 270.7 862.099 C 270.7 851.65 262.199 843.149 251.75 843.149 C 241.301 843.149 232.8 851.65 232.8 862.099 C 232.8 863.088 232.876 864.058 233.023 865.006 L 218.058 873.116 C 214.591 869.343 209.62 866.972 204.104 866.972 C 193.655 866.972 185.154 875.473 185.154 885.922 C 185.154 894.291 190.609 901.404 198.149 903.907 L 198.149 920.996 C 190.609 923.499 185.154 930.613 185.154 938.982 C 185.154 949.431 193.655 957.932 204.104 957.932 C 209.613 957.932 214.579 955.567 218.044 951.803 L 233.009 959.998 C 232.873 960.914 232.8 961.851 232.8 962.805 C 232.8 973.254 241.301 981.755 251.75 981.755 C 262.199 981.755 270.7 973.254 270.7 962.805 C 270.7 961.799 270.62 960.811 270.467 959.847 L 285.278 951.606 C 288.75 955.485 293.792 957.932 299.396 957.932 C 309.845 957.932 318.346 949.431 318.346 938.982 C 318.346 930.414 312.629 923.16 304.81 920.824 L 304.81 920.824 Z  M 286.927 924.73 L 263.294 912.181 L 286.547 899.834 C 288.643 901.772 291.177 903.241 293.981 904.08 L 293.981 920.824 C 291.344 921.612 288.948 922.96 286.927 924.73 Z  M 216.573 924.73 C 214.416 922.839 211.828 921.43 208.977 920.671 L 208.977 904.234 C 211.997 903.429 214.722 901.896 216.953 899.835 L 240.206 912.181 L 216.573 924.73 Z  M 299.396 877.8 C 303.874 877.8 307.517 881.443 307.517 885.922 C 307.517 890.4 303.874 894.043 299.396 894.043 C 294.917 894.043 291.274 890.4 291.274 885.922 C 291.274 881.443 294.917 877.8 299.396 877.8 Z  M 280.686 882.92 C 280.529 883.898 280.446 884.9 280.446 885.922 C 280.446 887.505 280.643 889.042 281.011 890.513 L 257.164 903.176 L 257.164 880.257 C 260.527 879.252 263.502 877.34 265.799 874.802 L 280.686 882.92 Z  M 251.75 853.978 C 256.228 853.978 259.871 857.621 259.871 862.099 C 259.871 866.577 256.228 870.22 251.75 870.22 C 247.272 870.22 243.629 866.577 243.629 862.099 C 243.629 857.621 247.272 853.978 251.75 853.978 L 251.75 853.978 Z  M 237.693 874.792 C 239.991 877.335 242.969 879.25 246.336 880.257 L 246.336 903.176 L 222.489 890.513 C 222.857 889.042 223.054 887.505 223.054 885.922 C 223.054 884.879 222.967 883.858 222.804 882.86 L 237.693 874.792 Z  M 204.104 877.8 C 208.583 877.8 212.226 881.443 212.226 885.922 C 212.226 890.4 208.583 894.043 204.104 894.043 C 199.626 894.043 195.983 890.4 195.983 885.922 C 195.983 881.443 199.626 877.8 204.104 877.8 Z  M 204.104 947.103 C 199.626 947.103 195.983 943.46 195.983 938.982 C 195.983 934.503 199.626 930.86 204.104 930.86 C 208.583 930.86 212.226 934.503 212.226 938.982 C 212.226 943.46 208.583 947.103 204.104 947.103 Z  M 222.8 942.061 C 222.965 941.059 223.054 940.031 223.054 938.982 C 223.054 937.227 222.81 935.53 222.362 933.917 L 246.336 921.187 L 246.336 944.647 C 242.938 945.662 239.938 947.605 237.632 950.183 L 222.8 942.061 Z  M 251.75 970.926 C 247.272 970.926 243.629 967.283 243.629 962.805 C 243.629 958.326 247.272 954.683 251.75 954.683 C 256.228 954.683 259.871 958.326 259.871 962.805 C 259.871 967.283 256.228 970.926 251.75 970.926 L 251.75 970.926 Z  M 265.77 950.068 C 263.477 947.546 260.512 945.647 257.164 944.647 L 257.164 921.187 L 281.138 933.917 C 280.69 935.53 280.446 937.227 280.446 938.982 C 280.446 939.935 280.519 940.87 280.654 941.785 L 265.77 950.068 Z  M 299.396 947.103 C 294.917 947.103 291.274 943.46 291.274 938.982 C 291.274 934.503 294.917 930.86 299.396 930.86 C 303.874 930.86 307.517 934.503 307.517 938.982 C 307.517 943.46 303.874 947.103 299.396 947.103 Z " fill="rgb(255,255,255)"/></svg>