<svg id="Capa_1" enable-background="new 0 0 512 512" height="512" viewBox="0 0 512 512" width="512" xmlns="http://www.w3.org/2000/svg" xmlns:xlink="http://www.w3.org/1999/xlink"><linearGradient id="SVGID_1_" gradientUnits="userSpaceOnUse" x1="163.757" x2="1007.375" y1="256" y2="256"><stop offset=".0007011211" stop-color="#fff0d5"/><stop offset=".5112" stop-color="#ffdfff"/><stop offset="1" stop-color="#d9ceff"/></linearGradient><path d="m310.075 89.353c-21.43-52.669-73.271-89.723-133.726-89.35-77.124.475-140.536 62.684-142.407 139.786-.923 38.04 12.978 72.821 36.334 98.983 18.619 20.856 27.963 48.325 27.021 76.268-.125 3.714-.144 7.455-.052 11.22 2.464 101.4 89.087 185.801 190.517 185.74 105.133-.063 190.34-85.31 190.34-190.457 0-77.074-45.784-143.448-111.637-173.423-25.667-11.683-45.762-32.647-56.39-58.767z" fill="url(#SVGID_1_)"/><g fill="#590bb2" opacity=".1"><path d="m411.331 63.636h-310.662c-5.529 0-10.011 4.482-10.011 10.011v40.085c0 5.529 4.482 10.011 10.011 10.011h310.661c5.529 0 10.011-4.482 10.011-10.011v-40.085c0-5.529-4.482-10.011-10.01-10.011z"/><path d="m411.331 160.415h-310.662c-5.529 0-10.011 4.482-10.011 10.011v40.085c0 5.529 4.482 10.011 10.011 10.011h310.661c5.529 0 10.011-4.482 10.011-10.011v-40.085c0-5.529-4.482-10.011-10.01-10.011z"/><path d="m411.331 257.193h-310.662c-5.529 0-10.011 4.482-10.011 10.011v40.085c0 5.529 4.482 10.011 10.011 10.011h310.661c5.529 0 10.011-4.482 10.011-10.011v-40.085c0-5.529-4.482-10.011-10.01-10.011z"/><path d="m330.58 387.368h-149.16c-5.529 0-10.011 4.482-10.011 10.011v19.974c0 5.529 4.482 10.011 10.011 10.011h149.16c5.529 0 10.011-4.482 10.011-10.011v-19.974c-.001-5.529-4.483-10.011-10.011-10.011z"/></g><path d="m270.846 329.029v27.029c0 5.526-4.475 10.011-10.011 10.011h-9.67c-5.536 0-10.011-4.485-10.011-10.011v-27.029z" fill="#c182f9"/><path d="m241.154 329.029h29.692v21.613h-29.692z" fill="#b557ff"/><path d="m108.513 131.052h294.975v162.834h-294.975z" fill="#c182f9"/><path d="m108.513 131.052h294.975v27.9h-294.975z" fill="#b557ff"/><path d="m108.513 195.621h294.975v60.104h-294.975z" fill="#b557ff"/><path d="m411.331 144.743h-310.662c-5.529 0-10.011-4.482-10.011-10.011v-40.085c0-5.529 4.482-10.011 10.011-10.011h310.661c5.529 0 10.011 4.482 10.011 10.011v40.085c0 5.529-4.482 10.011-10.01 10.011z" fill="#ffa052"/><g fill="#ffd5b8"><circle cx="135.62" cy="114.69" r="5.603"/><circle cx="152.57" cy="114.69" r="5.603"/><circle cx="169.519" cy="114.69" r="5.603"/></g><path d="m283.004 109.676h-76.818c-2.618 0-4.957 1.914-5.206 4.521-.285 2.99 2.058 5.507 4.99 5.507h77.033c2.769 0 5.014-2.245 5.014-5.014.001-2.769-2.244-5.014-5.013-5.014z" fill="#e2ccff"/><path d="m382.611 109.676h-76.818c-2.618 0-4.957 1.914-5.206 4.521-.285 2.99 2.058 5.507 4.99 5.507h77.033c2.769 0 5.014-2.245 5.014-5.014.001-2.769-2.244-5.014-5.013-5.014z" fill="#ffe783"/><path d="m411.331 241.521h-310.662c-5.529 0-10.011-4.482-10.011-10.011v-40.085c0-5.529 4.482-10.011 10.011-10.011h310.661c5.529 0 10.011 4.482 10.011 10.011v40.085c0 5.53-4.482 10.011-10.01 10.011z" fill="#ffa052"/><circle cx="135.62" cy="211.468" fill="#ffd5b8" r="5.603"/><circle cx="152.57" cy="211.468" fill="#ffd5b8" r="5.603"/><circle cx="169.519" cy="211.468" fill="#ffd5b8" r="5.603"/><path d="m283.004 206.454h-76.818c-2.618 0-4.957 1.914-5.206 4.521-.285 2.99 2.058 5.507 4.99 5.507h77.033c2.769 0 5.014-2.245 5.014-5.014.001-2.769-2.244-5.014-5.013-5.014z" fill="#e2ccff"/><path d="m382.611 206.454h-76.818c-2.618 0-4.957 1.914-5.206 4.521-.285 2.99 2.058 5.507 4.99 5.507h77.033c2.769 0 5.014-2.245 5.014-5.014.001-2.769-2.244-5.014-5.013-5.014z" fill="#ffe783"/><path d="m411.331 338.3h-310.662c-5.529 0-10.011-4.482-10.011-10.011v-40.085c0-5.529 4.482-10.011 10.011-10.011h310.661c5.529 0 10.011 4.482 10.011 10.011v40.085c0 5.529-4.482 10.011-10.01 10.011z" fill="#ffa052"/><circle cx="135.62" cy="308.247" fill="#ffd5b8" r="5.603"/><circle cx="152.57" cy="308.247" fill="#ffd5b8" r="5.603"/><circle cx="169.519" cy="308.247" fill="#ffd5b8" r="5.603"/><path d="m283.004 303.233h-76.818c-2.618 0-4.957 1.914-5.206 4.521-.285 2.99 2.058 5.507 4.99 5.507h77.033c2.769 0 5.014-2.245 5.014-5.014.001-2.769-2.244-5.014-5.013-5.014z" fill="#e2ccff"/><path d="m382.611 303.233h-76.818c-2.618 0-4.957 1.914-5.206 4.521-.285 2.99 2.058 5.507 4.99 5.507h77.033c2.769 0 5.014-2.245 5.014-5.014.001-2.769-2.244-5.014-5.013-5.014z" fill="#ffe783"/><path d="m330.58 448.363h-149.16c-5.529 0-10.011-4.482-10.011-10.011v-19.974c0-5.529 4.482-10.011 10.011-10.011h149.16c5.529 0 10.011 4.482 10.011 10.011v19.974c-.001 5.529-4.483 10.011-10.011 10.011z" fill="#c182f9"/><path d="m466.275 423.366h-120.685v-4.987c0-8.277-6.733-15.011-15.01-15.011h-47.011c-2.762 0-5 2.238-5 5s2.238 5 5 5h47.011c2.763 0 5.01 2.248 5.01 5.011v19.974c0 2.763-2.247 5.011-5.01 5.011h-149.16c-2.763 0-5.011-2.248-5.011-5.011v-19.974c0-2.763 2.248-5.011 5.011-5.011h74.58c2.762 0 5-2.238 5-5v-37.308c8.203-.088 14.85-6.78 14.85-15.003v-12.757h135.481c8.276 0 15.01-6.733 15.01-15.011v-40.085c0-8.277-6.733-15.011-15.01-15.011h-2.84v-26.672h2.84c8.276 0 15.01-6.733 15.01-15.011v-40.085c0-8.277-6.733-15.011-15.01-15.011h-2.84v-26.672h2.84c8.276 0 15.01-6.733 15.01-15.011v-40.084c0-8.277-6.733-15.011-15.01-15.011h-310.662c-8.277 0-15.011 6.733-15.011 15.011v40.085c0 8.277 6.734 15.011 15.011 15.011h2.84v26.672h-2.84c-8.277 0-15.011 6.733-15.011 15.011v40.085c0 8.277 6.734 15.011 15.011 15.011h2.84v26.672h-2.84c-8.277 0-15.011 6.733-15.011 15.011v40.085c0 8.277 6.734 15.011 15.011 15.011h135.481v12.758c0 8.223 6.647 14.915 14.849 15.003v32.308h-69.58c-8.277 0-15.011 6.733-15.011 15.011v4.987h-120.683c-2.761 0-5 2.238-5 5s2.239 5 5 5h120.685v4.986c0 8.277 6.734 15.011 15.011 15.011h149.16c8.276 0 15.01-6.733 15.01-15.011v-4.986h120.686c2.762 0 5-2.238 5-5s-2.24-5.002-5.002-5.002zm-370.616-288.634v-40.085c0-2.763 2.248-5.011 5.011-5.011h310.662c2.763 0 5.01 2.248 5.01 5.011v40.085c0 2.763-2.247 5.011-5.01 5.011h-310.663c-2.762 0-5.01-2.248-5.01-5.011zm0 96.779v-40.085c0-2.763 2.248-5.011 5.011-5.011h7.843c2.761 0 5-2.238 5-5 0-.012-.003-.022-.003-.034v-31.638h284.982v26.672h-262.409c-2.761 0-5 2.238-5 5s2.239 5 5 5h275.249c2.763 0 5.01 2.248 5.01 5.011v40.085c0 2.763-2.247 5.011-5.01 5.011h-310.663c-2.762-.001-5.01-2.249-5.01-5.011zm17.85 15.01h284.982v26.672h-284.982zm-17.85 81.768v-40.085c0-2.763 2.248-5.011 5.011-5.011h310.662c2.763 0 5.01 2.248 5.01 5.011v40.085c0 2.763-2.247 5.011-5.01 5.011h-310.663c-2.762 0-5.01-2.248-5.01-5.011zm150.492 27.769v-12.758h19.699v12.758c0 2.763-2.248 5.011-5.011 5.011h-9.677c-2.763-.001-5.011-2.249-5.011-5.011z" fill="#590bb2"/><path d="m406.386 399.112c-2.762 0-5-2.238-5-5 0-3.323-2.704-6.027-6.027-6.027-2.762 0-5-2.238-5-5s2.238-5 5-5c3.323 0 6.027-2.704 6.027-6.028 0-2.762 2.238-5 5-5s5 2.238 5 5c0 3.324 2.704 6.028 6.027 6.028 2.762 0 5 2.238 5 5s-2.238 5-5 5c-3.323 0-6.027 2.704-6.027 6.027 0 2.762-2.239 5-5 5z" fill="#c182f9"/><path d="m458.473 355.863c-2.762 0-5-2.238-5-5 0-3.323-2.704-6.027-6.027-6.027-2.762 0-5-2.238-5-5s2.238-5 5-5c3.323 0 6.027-2.704 6.027-6.027 0-2.762 2.238-5 5-5s5 2.238 5 5c0 3.323 2.704 6.027 6.027 6.027 2.762 0 5 2.238 5 5s-2.238 5-5 5c-3.323 0-6.027 2.704-6.027 6.027 0 2.762-2.239 5-5 5z" fill="#ffa052"/><path d="m53.506 183.815c-1.28 0-2.559-.488-3.536-1.465l-11.006-11.006c-1.953-1.952-1.953-5.118 0-7.07l11.006-11.006c1.953-1.953 5.118-1.953 7.071 0l11.006 11.006c1.953 1.952 1.953 5.118 0 7.07l-11.006 11.006c-.976.977-2.255 1.465-3.535 1.465zm-3.935-16.005 3.935 3.935 3.935-3.935-3.935-3.935z" fill="#ffa052"/><path d="m72.23 405.9c-1.28 0-2.559-.488-3.536-1.465l-11.006-11.005c-1.953-1.952-1.953-5.118 0-7.07l11.006-11.006c1.953-1.953 5.118-1.953 7.071 0l11.006 11.006c1.953 1.952 1.953 5.118 0 7.07l-11.006 11.006c-.976.976-2.255 1.464-3.535 1.464zm-3.935-16.005 3.935 3.935 3.935-3.935-3.935-3.935z" fill="#ffe783"/></svg>