<svg id="Pen" xmlns="http://www.w3.org/2000/svg" viewBox="0 0 600 600"><defs><style>.cls-1{fill:#ec63c8;}.cls-2{fill:#3386f2;}.cls-3{fill:#202020;}</style></defs><title>Artboard 1</title><path class="cls-1" d="M293.6,321.62s7.11-1.86,11.81.87,5.46,10.45,15.25,11.42L314.83,338l-16,13.95-2.47,3.47L291.64,339Z"/><path class="cls-2" d="M230.08,255.69l14.11-8.21v14.25s-5.25.67-9.05-.81A9.24,9.24,0,0,1,230.08,255.69Z"/><path class="cls-3" d="M321.73,292.75l1.48-2.36c.23-.38.45-.75.68-1.11s.5-.7.75-1c.49-.69.95-1.36,1.4-2s1-1.31,1.44-2l1.42-2c.51-.68,1-1.39,1.52-2.14,1-1.51,2.18-3.07,3.35-4.91.41-.61,1-1.4,1.82-2.56s1.94-2.65,3.48-4.64a205.71,205.71,0,0,1,20-21.75c3.72-3.58,7.28-6.67,9.87-8.91l3.12-2.59c.73-.62,1.15-.94,1.15-.94l3.69-2.87c2.33-1.72,5.59-4.1,9.42-6.52s8.15-5,12.48-7.18,8.65-4.11,12.26-5.62l4.28-1.62c1.28-.46,2.45-.83,3.46-1.18,2-.71,3.57-1.09,4.6-1.41,2.1-.67,4-1.12,5.72-1.7s3.35-1,4.91-1.58,3.1-1,4.69-1.63l5.1-1.75c-1.9-.28-3.68-.55-5.41-.71s-3.41-.18-5.13-.13a50.08,50.08,0,0,0-5.36.51,54.82,54.82,0,0,0-6.12,1.36c-1.08.33-2.7.72-4.83,1.46-1.06.36-2.28.74-3.63,1.23l-4.46,1.68c-3.78,1.57-8.3,3.49-12.78,5.85s-9,4.9-13,7.47-7.36,5-9.78,6.79l-3.83,3s-6.87,5.43-14.52,12.73a207.68,207.68,0,0,0-20.58,22.39c-1.61,2.08-2.79,3.63-3.63,4.86s-1.45,2-1.88,2.69a53.23,53.23,0,0,0-3.18,5.43c-.42.86-.82,1.7-1.18,2.52s-.64,1.67-.92,2.49-.56,1.62-.76,2.46-.38,1.69-.55,2.55l-.24,1.29c-.06.44-.09.9-.14,1.35C321.89,290.85,321.81,291.78,321.73,292.75Z"/><path class="cls-3" d="M344.85,302.24a62.72,62.72,0,0,0,10.37-1.91,50.63,50.63,0,0,0,10.69-4.5c1.35-.78,3.59-2,8-4.86,2.63-1.71,6.09-4.13,9.66-6.94s7.29-5.93,10.63-8.86,6.36-5.69,8.49-7.75,3.43-3.36,3.43-3.36,4.41-4.34,9.64-10.24c2.62-2.95,5.43-6.29,8.07-9.61s5.13-6.58,7.09-9.53a69.85,69.85,0,0,0,6.55-12.24,45.17,45.17,0,0,0,3.08-11.26,77.11,77.11,0,0,0,.6-10.49c-1.84,3.41-3.33,6.27-4.72,9.29s-2.68,6.21-4.35,10.19A66.11,66.11,0,0,1,426,231.42c-1.78,2.68-4.22,5.88-6.79,9.12s-5.31,6.5-7.86,9.38c-5.09,5.77-9.38,10-9.38,10s-1.27,1.28-3.35,3.27-5,4.66-8.31,7.56-6.91,5.94-10.37,8.64-6.76,5-9.28,6.67c-4.2,2.77-6.34,3.91-7.62,4.66-3.83,2.14-6.79,3.91-9.59,5.69S348,300,344.85,302.24Z"/><path class="cls-3" d="M379.73,277.31a5.4,5.4,0,0,0,2.48-3.09,6.07,6.07,0,0,0-.38-4.12,19,19,0,0,0-2.39-3.8,26.87,26.87,0,0,0-4.53-4.36,31.3,31.3,0,0,0-4.69-3c-1.31-.69-2.18-1.06-2.18-1.06l-.61-.26c-.39-.16-.94-.41-1.64-.65a31.54,31.54,0,0,0-5.39-1.46,30.47,30.47,0,0,0-6.22-.44,24.33,24.33,0,0,0-4.23.56c-2.82.69-4.14,2.34-5.16,5,2.78.67,4.2,1.22,6.37.76a22.06,22.06,0,0,1,3.27-.4,24.44,24.44,0,0,1,4.94.35,25.06,25.06,0,0,1,4.42,1.18c.58.19,1,.39,1.37.53l.5.2s.73.32,1.81.9a26.73,26.73,0,0,1,3.85,2.48,21.7,21.7,0,0,1,3.53,3.4,14.38,14.38,0,0,1,1.67,2.57,7.86,7.86,0,0,0,1.41,2.07A9,9,0,0,1,379.73,277.31Z"/><path class="cls-3" d="M376.63,245.13c1.54-2.08,2.57-3.36,4.26-5.72.3-.39.75-1,1.85-2.31a37.27,37.27,0,0,1,4.81-4.56,38.4,38.4,0,0,1,3.45-2.46s1.35-.87,3.16-1.85a61.19,61.19,0,0,1,5.75-2.72c2.09-.86,3.41-1.33,4.1-1.59a31.85,31.85,0,0,0,6.52-3.14,22.09,22.09,0,0,0-7.17,1.31c-.71.25-2.06.72-4.21,1.61a61.19,61.19,0,0,0-5.93,2.81c-1.87,1-3.28,1.93-3.28,1.93a39.93,39.93,0,0,0-3.61,2.57,38.64,38.64,0,0,0-5.07,4.8,29.74,29.74,0,0,0-1.95,2.46A14.23,14.23,0,0,0,376.63,245.13Z"/><path class="cls-3" d="M336.82,300.72a18.51,18.51,0,0,0-3.95-3.91,17.68,17.68,0,0,0-4.79-2.52,19.53,19.53,0,0,0-12.55-.1,25.48,25.48,0,0,0-8.83,5.07c-1.64,1.33-3.38,3-5.19,4.76-.91.88-1.89,1.84-2.89,2.92a36.87,36.87,0,0,0-7.26,12,48.4,48.4,0,0,0-2.11,9c-.11.72-.21,1.42-.31,2.12s-.17,1.47-.24,2.18a39.24,39.24,0,0,0-.12,4.15,44.91,44.91,0,0,0,.67,7,39.19,39.19,0,0,0,1.08,4.66c.15.55.3,1,.4,1.25l.15.44s.07.26.57,1.5c.07.17.11.3.22.55s.32.64.5,1l.59,1.19c.23.42.52.85.8,1.32l.95,1.53.54.84.28.45.14.22c0,.07.09.2.17.09,1.16-.94,2.4-1.83,3.8-3.05.33-.31.78-.7,1.29-1.23l.41-.42.33-.35.51-.56c.71-.79,1.53-1.78,2.42-2.83.46-.53.9-1,1.45-1.63l1.71-1.92c1.15-1.3,2.39-2.73,3.65-4a15.78,15.78,0,0,1,4.08-3.07,46.45,46.45,0,0,1,5.32-2.29,53.75,53.75,0,0,0,5.78-2.48c1.79-.93,3.42-1.86,4.94-2.82a34.26,34.26,0,0,0,7.12-5.79,25.84,25.84,0,0,0,3.28-4.49,20,20,0,0,0,2.34-6.52,16.25,16.25,0,0,0-.07-6,11.74,11.74,0,0,0-2.44-5.16,9.94,9.94,0,0,0-4.74-3.11,9.68,9.68,0,0,1,2.58,4.33,12,12,0,0,1,.32,4.29,23.54,23.54,0,0,1-3.06,9.23c-1,1.64-3,4.81-8.47,8.23-1.33.84-2.89,1.72-4.5,2.56a48.44,48.44,0,0,1-5.19,2.22,50.22,50.22,0,0,0-6,2.6,21.8,21.8,0,0,0-5.53,4.17c-1.44,1.52-2.66,2.94-3.82,4.25l-1.64,1.84c-.53.59-1.1,1.23-1.57,1.78-.95,1.12-1.72,2-2.34,2.74l-.44.49-.09.1h0l0-.06,0-.06-.16-.38c-.4-1-.46-1.22-.46-1.22l-.12-.36c-.08-.24-.21-.59-.34-1.06a36.39,36.39,0,0,1-.92-4,39.59,39.59,0,0,1-.57-6.08c0-1.14,0-2.33.11-3.56.06-.62.11-1.19.21-1.87s.19-1.34.29-2a42.67,42.67,0,0,1,1.85-7.94,28.71,28.71,0,0,1,3.69-7.05,26.61,26.61,0,0,1,2.37-3c.84-.92,1.75-1.81,2.65-2.69,1.81-1.76,3.41-3.28,4.82-4.45a20.11,20.11,0,0,1,6.91-4,27.36,27.36,0,0,1,9.86-1.25,25.77,25.77,0,0,1,4.63.56A22.38,22.38,0,0,1,336.82,300.72Z"/><path class="cls-3" d="M330.33,299.07a1.11,1.11,0,0,0-1.09-.46,4,4,0,0,0-1.64.64,9.44,9.44,0,0,0-1,.78l-2.21,1.81a.6.6,0,1,0,.5.6l2.21-1.81s.45-.38,1-.72a3.55,3.55,0,0,1,1.33-.53A5,5,0,0,0,330.33,299.07Z"/><path class="cls-3" d="M334.35,301.43a12.32,12.32,0,0,0-1.12,2.67l-.35,1.16a21.5,21.5,0,0,1-1.53,3.58,17.47,17.47,0,0,1-.93,1.48l-.43.58a21.29,21.29,0,0,1-1.4,1.62,31.36,31.36,0,0,1-2.73,2.53c-.7.58-1.15.92-1.38,1.11a11.07,11.07,0,0,0-2.06,2,10.05,10.05,0,0,0,2.54-1.43c.23-.18.69-.53,1.4-1.12a32.65,32.65,0,0,0,2.8-2.59,21.48,21.48,0,0,0,1.45-1.68l.45-.61c.27-.39.63-.93,1-1.55a21.61,21.61,0,0,0,1.58-3.72l.36-1.18A9.44,9.44,0,0,0,334.35,301.43Z"/><path class="cls-2" d="M272.65,253.87h0a3.21,3.21,0,0,1-.12.33Z"/><path class="cls-2" d="M294.94,253.12c-1.31-.47-1.79-1.4-3.23-1.77a7.83,7.83,0,0,1-2.68-2.9c-.51-.76-1.32-1.53-3.76-2.33-1.15-1-.22-1-.57-1.48l.44.26A48.62,48.62,0,0,1,281,241c-1-.66-2.24-.4-3.09-1.59.78.17.23-.26-.21-.69.33.23.59.27.22-.49a1.59,1.59,0,0,1-.57-.18s0-.06.07-.07a3.39,3.39,0,0,0-.63-.41c11.38,1,4.56-4.45,4.56-4.45-3.31-3.13-6.07-2.74-10.89-4.79a27.69,27.69,0,0,1-2.81-1.93l-24.49-18.95,19,26.46c.66.92,1.2,1.74,1.89,2.59-.47.07-1,.21-1.21,0l.05-.1c-1.34.89-2.77-.73-4.07.07.05-.1.08-.41.38-.43-.95.15-2.24.4-2.31-.27-.67.06-1.42.07-2.18.09l-18.61.41,17,7.19c1.66.7,3.39,1.4,4.62,1.12l-.16.13c1-.32,1,.34,2,.38,0,.1.05.17,0,.2,1.11-.29,2.44,1,3.23,1l-.14.42,1.67.64-.57-.36c.71-1,.92,1.25,2.43,1.05.52.32,1.34,0,2.14-.28l-.69,3.21.46.59-.17.8a2.86,2.86,0,0,1,.79-.08l.18.17,0,.34c.21,0,.39,0,.55-.05.37.13.75.26,1.14.37.34.36.51.83,2,.71a1.34,1.34,0,0,0,.07-.18c2.17.49,4.4.84,6.54,1.32.15.17.28.31,0,.42.79.82,2,.79,3.15,1.18l.23-.63c.14,0,.3.09.44.15l.69-1.85a4.51,4.51,0,0,1,1.17.45s.92.2,1.79.3,1.67.11,1.3-.31c.25.49,2.35.94,2.94,1.57-.11-.54,1.26-.8,3.58.07l0,.05a14.87,14.87,0,0,0,4.45.55C297.07,255.42,295.35,254.06,294.94,253.12Zm-19.2-16.28a2.23,2.23,0,0,1,.26.27Zm1.1,1.09c-.07,0-.1.11-.09.28a2.9,2.9,0,0,0-.37-.65l.29,0C276.62,237.62,276.7,237.76,276.84,237.93Z"/><path class="cls-3" d="M267.3,266.81l.47,0C267.73,266.76,267.61,266.73,267.3,266.81Z"/><path class="cls-3" d="M231.13,223a.26.26,0,0,0,0,.1A.27.27,0,0,0,231.13,223Z"/><path class="cls-3" d="M285.25,261.72l0,0-.06.13Z"/><path class="cls-3" d="M263.48,273.52c3.12-.65,5.1-1,7.19-1.6a16.08,16.08,0,0,0,3.46-1.37,31.41,31.41,0,0,0,3.52-2.27,34.65,34.65,0,0,0,7.58-6.54,11.71,11.71,0,0,1,1.69-2.53,8.41,8.41,0,0,0,1.57-2.87c.23-.15.44-.32.66-.49a4.83,4.83,0,0,1,.78-1.95l.08.08c.15-1,.6-2,.62-2.51l.09.07.26-1.14.09.23c.14-1.69.41-3.35.66-4.84l-.45.09a9.61,9.61,0,0,0,.19-3.69,15.34,15.34,0,0,1-.14-3.44l.11,0a12.47,12.47,0,0,1-1-4.5,8,8,0,0,0-1.58-4.4c.29.38.14-.26.25-.27-.74-1.52-1.62-3.1-2.39-2.72-.54-1.07-.22-1,0-1.29-.32.18-1-.67-1.51-1.46l.36.3a24,24,0,0,0-1.73-2.21c-.06.29-.14.58-.21.86-.76-1.25.45-.84-.63-1.81l-.42.41c-1.29-1.54-1.66-3-3-4.48a30.32,30.32,0,0,0-5.28-3,48.42,48.42,0,0,0-5.67-2.13c-1.91-.6-3.85-1.07-5.73-1.55l-5.57-1.33-.28-.48c-.1-.66-2.13.8-2.37.19l-.87.28c-.24-.12-.76-.26-.32-.39a2.29,2.29,0,0,0-1.4.27l-.88-.37a15.23,15.23,0,0,0-4.55.55c-.73.18-1.45.43-2.2.62s-1.53.46-2.35.65a18.12,18.12,0,0,0-7.37,2.95,27.7,27.7,0,0,0-6.09,5.48c-1.83,2.48-4.17,4.8-6,7.72s-3.2,6.39-2.93,9.63a.89.89,0,0,0,.12.76,41.84,41.84,0,0,0-.09,5.7,38.4,38.4,0,0,0,.43,3.88c.08.54.18,1.1.29,1.68l.18.88a9.87,9.87,0,0,0,.26,1,20.22,20.22,0,0,0,1.3,3.31,8.67,8.67,0,0,0,1.47,2.23,1.86,1.86,0,0,0,.7.48.42.42,0,0,0,.46-.2,6.88,6.88,0,0,0,.38-2.35c0-.63.06-1.39.09-2.3a24.94,24.94,0,0,1,.2-3l.16.1c-.1-2.87-.2-4.58-1-6.45.83-.35,0-2.27.31-2.91l.07.06a3.8,3.8,0,0,1,.1-2.49,5.56,5.56,0,0,0,.36-2.39.49.49,0,0,1,.23.5c.07-1.12.36-2.62.84-2.55a20.83,20.83,0,0,1,1.65-4c.31-.66.66-1.28.94-1.85a9.78,9.78,0,0,0,.61-1.57l0,.18c.17-1.14.75-1.05,1.29-2.07.09,0,.16,0,.18,0a4.48,4.48,0,0,1,1.33-1.68A13.32,13.32,0,0,0,234,220l.25.22c.57-.45,1.12-.93,1.73-1.33-.24.13-.49.25-.72.39-.16-.46.29-.57.88-.74a3.59,3.59,0,0,0,1.88-1,5.14,5.14,0,0,0,1.67-1.8,3.1,3.1,0,0,1,2-1.46c.59-.65-.4.88.58.2.18.44-.41.45,0,.72,1-.59,1.86-.08,3.07-.73l.14.35a3.94,3.94,0,0,1,2.4-.54,3.51,3.51,0,0,0,2-.3,1.51,1.51,0,0,1,1.54.25c.33.22.64.35,1.58,0l.72.52c.79.09.59-.62,1.47-.31-.07.31,1.1.33.56.59a6.31,6.31,0,0,0,1.49.27c.52,0,1.05,0,1.6.06a6.64,6.64,0,0,1,3.47.93c.72-.47,1.91.27,2.46,0,0,.25,2.54.93.93,1-.14,0-.35-.08-.3-.17l-.29.28c1.18,1.15,2.71.57,4.05,1.29-.35-.31-.91-.5-.45-.58l1.26.62-.39.16c.61.33,1.2.7,1.8,1.06l-.09-.47c.84.63.82,1.39,2.09,1.45.61,0-.6-.91.41-.49,1.09.91,2.56,2.3,3.66,3.38.16-.42.49-.14.87.09l-.22.31c.78.36.72.63.66.88s-.14.49.51.95l-.29.06.87-.16c.74.36.7.67.7.94s0,.53.89,1c-.41-.55.54-.71.84.14l-.42,0c.3.38.51.46.6.78-.32-.16-.53.11-.16.72l-.62-.22c.4.29.79.59,1.19.9.1,1.1,1.15,2.45.81,3a11.59,11.59,0,0,0,.32,1.12,2.61,2.61,0,0,0,.78,1.4c-.44-.35-.28.86-.76.63a3.22,3.22,0,0,1,.84,2.77l-.06-.12a15.43,15.43,0,0,0,.36,3.27,6.29,6.29,0,0,1-.11,3.07c.44-.06.09,1.07.67.85a5.7,5.7,0,0,1-.73,3c-.33.82-.55,1.39.13,2.08-.31,1-.82,1-1.14,1.43l0-.25a11.59,11.59,0,0,1-1.9,3.39c-.3.67.25,1.27-.79,2.17.06-.54-.26-.09-.61.27.18-.27.16-.41-.44-.09a.9.9,0,0,1-.11.41s-.05,0-.06,0c-.53.66-.36.63-.05.39,0,0,.09.07.24,0-.9.32-1.81,1.68-2.24,1.33-1.9,1.7-3.15,3.22-4.93,4.58-.36-.11-.05-.59.44-1l-1.28.91c-.19-.35.64-.67,1-1a6.15,6.15,0,0,0-2.44,1.48,4.48,4.48,0,0,1-2.59,1.2l-.3.45h-.14c.06.16-.32.53-.61.69-.4-.24-.23-.77-1.24-.43-.9-.07-2.25.84-3.29,1.28.59-.08.45.15.23.33-.53.14-.91-.12-1.28.11l-.15-.45c.3.4-1.27.77-1.43,1-.36-.29.76-.46.84-.75-1,.24-1.3.29-1.56.34s-.53.11-1.5.24c-.95.43.2.45-.23.89a7.55,7.55,0,0,1-3.18.16l.37.43a6.9,6.9,0,0,1-4.37-.41,23.16,23.16,0,0,1-7.14-.29c-1.24-.17-1.4.28-1.24.89a6.48,6.48,0,0,0,2.27,2.29,10,10,0,0,0,1.84,1,14.87,14.87,0,0,0,4.57,1.22,20.67,20.67,0,0,0,3.85,0c.62,0,1.24-.12,1.88-.2l1-.13.68-.09.6-.12C260.25,274.46,261.72,274,263.48,273.52Z"/><path class="cls-3" d="M210.68,268.65a74.72,74.72,0,0,0-13.89,16.84L192,293.34c-1.51,2.51-4,6.77-6.15,10.42l-3.84,6.66-3.3,5.75c-1.84,3.23-4.06,7.18-5.62,10-3.34,6-5.36,9.78-6.41,11.75-4.24,7.95-5.72,13-7.53,20.48a84.49,84.49,0,0,0,12.67-17.7L178.28,329l5.58-10,3.26-5.73,3.85-6.62c2.13-3.61,4.64-7.85,6.12-10.37l4.7-7.82A84.58,84.58,0,0,0,210.68,268.65Z"/><path class="cls-3" d="M193.86,380.8a79.48,79.48,0,0,0,13.48-17.13c.77-1.32,2-3.45,4.65-7.88l6.61-11.23,3-5.1,1.21-2.15s1.56-2.75,3.46-6.31,4.16-7.91,5.72-11c3.1-6.17,4.93-10,5.89-12,3.84-8.17,5-13.27,6.36-20.9a89.94,89.94,0,0,0-11.64,18.37c-1,2-2.79,5.82-5.87,11.93-1.56,3.09-3.78,7.4-5.65,10.91s-3.38,6.23-3.38,6.23l-1.19,2.1-2.93,5c-2.3,3.91-5,8.51-6.61,11.23l-4.62,7.9A79.3,79.3,0,0,0,193.86,380.8Z"/><path class="cls-3" d="M160.38,357.56a11.24,11.24,0,0,0,4.9,2.74,37.2,37.2,0,0,1,7.33,2.67,36.79,36.79,0,0,1,3.7,2.09c.95.61,1.54,1,1.54,1s.6.41,1.49,1.11,2.15,1.72,3.4,2.79a61.28,61.28,0,0,1,5.77,5.51c1.43,1.6,2.65,2.11,4.72,3a7.4,7.4,0,0,0-1.81-5.61,57.44,57.44,0,0,0-6.13-5.91c-1.32-1.12-2.58-2.13-3.54-2.87s-1.63-1.22-1.63-1.22-.65-.47-1.69-1.15a42.6,42.6,0,0,0-4.08-2.32,38.13,38.13,0,0,0-8.17-2.94A7.52,7.52,0,0,0,160.38,357.56Z"/><path class="cls-3" d="M208.36,267.86a6.59,6.59,0,0,0,2.51,5.64c1.09.92,4.16,3.07,7.06,5.08,1.46,1,2.88,1.92,3.95,2.57s1.77,1.07,1.77,1.07a57.14,57.14,0,0,0,6.11,3.14,48.27,48.27,0,0,0,5,1.86l2.08.57,1.41.31a8.07,8.07,0,0,0,5.95-1.08,11.56,11.56,0,0,0-5.13-2.73,41.56,41.56,0,0,1-7.73-2.53,53.32,53.32,0,0,1-5.71-2.91s-.67-.38-1.68-1-2.38-1.52-3.79-2.49c-2.82-1.95-6-4.17-6.81-4.87A11.44,11.44,0,0,0,211,269C210.23,268.65,209.4,268.37,208.36,267.86Z"/><path class="cls-3" d="M208.89,267.45a52.7,52.7,0,0,0,13.25-5.94l5.19-3.22a3,3,0,0,0,.38-.24l.2-.11,7.71-4.81a52.28,52.28,0,0,0,11.19-9.26,53,53,0,0,0-13.26,5.95l-7.71,4.78-.19.14a4.06,4.06,0,0,0-.39.22l-5.17,3.23A53.1,53.1,0,0,0,208.89,267.45Z"/><path class="cls-3" d="M243.5,287a9.66,9.66,0,0,0,1.81-5.53c0-1.23,0-4.93.16-8.33s.32-6.49.32-6.49.23-3.1.48-6.5.57-7.14.67-8.38a9.19,9.19,0,0,0-1.49-5.67,9.21,9.21,0,0,0-2.4,5.34c-.1,1.25-.41,5-.69,8.4s-.46,6.56-.46,6.56-.22,3.13-.35,6.59-.17,7.24-.14,8.5A8.86,8.86,0,0,0,243.5,287Z"/><path class="cls-3" d="M177.8,350.61a10.71,10.71,0,0,0,1.76-2.31c1.64-2.91,9.89-17.46,9.89-17.46l9.38-16.54a11,11,0,0,0,1.08-2.7,10.71,10.71,0,0,0-1.76,2.31l-9.38,16.55-9.89,17.45A10.29,10.29,0,0,0,177.8,350.61Z"/><path class="cls-3" d="M194.21,336.53a10.68,10.68,0,0,0,1.8-2.29l.62-1.05.67-1.13.61-1,.9-1.54a10.84,10.84,0,0,0,1.13-2.68,10.37,10.37,0,0,0-1.8,2.29l-.91,1.53-.61,1L196,332.8l-.61,1.05A10.47,10.47,0,0,0,194.21,336.53Z"/><path class="cls-3" d="M208.9,308.9a10.61,10.61,0,0,0,1.94-2.17l.68-1c1.37-2,4.52-6.93,4.52-6.93s2.63-4.11,4-6.41c.48-.78.78-1.26.93-1.52a10.06,10.06,0,0,0,1.17-2.66,10.86,10.86,0,0,0-1.83,2.26l-.94,1.51-4,6.4s-3.16,4.88-4.53,6.91l-.67,1A10.84,10.84,0,0,0,208.9,308.9Z"/><path class="cls-3" d="M191.87,363a1.69,1.69,0,0,0,.93-.64c.13-.2.54-.8.88-1.36l.65-1.08.62-1.1c.32-.58.64-1.23.74-1.45a1.66,1.66,0,0,0,.1-1.12,1.73,1.73,0,0,0-.8.78l-.73,1.42-.6,1.08-.64,1.06-.87,1.33A1.75,1.75,0,0,0,191.87,363Z"/><path class="cls-3" d="M197.54,354.14c0-.08,0-.05.07-.06l.13,0,.09,0c.06.05.06,0,.08,0l.42-.59.18-.28a2.57,2.57,0,0,0,.19-.41c0-.12-.07-.24-.29-.39-.26,0-.4,0-.44.11s-.08.18-.15.3l-.14.24-.4.56a.34.34,0,0,0,0,.24C197.27,354,197.4,354.21,197.54,354.14Z"/><path class="cls-1" d="M283.16,368.74c-2.67.87-4.87,2.76-7,4.6-2.49,2.18-5.18,4.75-5.26,8.06a4.15,4.15,0,0,0,.56,2.32,5.61,5.61,0,0,0,2.24,1.87,9.09,9.09,0,0,0,4.94,1.33c2.74-.23,5-2.44,6.14-4.92a5.35,5.35,0,0,0,.64-2.89,7.33,7.33,0,0,0-.68-2.06c-1.21-2.76-2.2-5.94-1-8.72"/><path class="cls-1" d="M303.41,376.26a2.71,2.71,0,0,0-1.24,2.89,1.34,1.34,0,0,0,.28.59,1.92,1.92,0,0,0,1.11.49,1.3,1.3,0,0,0,.78,0,1.32,1.32,0,0,0,.51-.56,3.61,3.61,0,0,0,.66-1.84,3,3,0,0,0-.56-1.41,2.78,2.78,0,0,0-2.08-1.43"/><path class="cls-1" d="M312.22,389a5,5,0,0,1,1.68,3.63c.13,1.36,0,2.75.27,4.1a4.16,4.16,0,0,0,2.27,3.22,3.24,3.24,0,0,0,3-.47,4.49,4.49,0,0,0,1.63-2.68,6.46,6.46,0,0,0-1.93-5.69,10.2,10.2,0,0,0-5.57-2.63"/><path class="cls-3" d="M158,358.53a5.25,5.25,0,0,0-1.73,3.37,8.34,8.34,0,0,0,.45,3.75,16,16,0,0,0,1.66,3.37,17.41,17.41,0,0,0,1.15,1.69,18.52,18.52,0,0,0,1.43,1.74c.37.39.81.94,1.56,1.64l1.29,1.23,1.82,1.54,1.81,1.35,1.2.79s.44.32,1,.67,1.33.79,1.86,1.08a41.84,41.84,0,0,0,8.68,3.43,22.78,22.78,0,0,0,7.9.69,12.56,12.56,0,0,0,3.52-.7,6,6,0,0,0,1.68-1,3.18,3.18,0,0,0,1.05-1.65,3.52,3.52,0,0,1-3,1,20.87,20.87,0,0,1-3.08-.52c-2.11-.45-4.29-.87-7-1.61a38.91,38.91,0,0,1-7.82-3.12l-1.68-1c-.54-.32-.95-.6-.95-.6l-1.07-.72L168,373.78l-1.63-1.37-1.17-1.11c-.67-.62-1.07-1.12-1.41-1.46-.5-.5-.91-1-1.34-1.51s-.81-.95-1.18-1.41c-.78-.9-1.47-1.73-2.05-2.53a9,9,0,0,1-1.36-2.58A4.83,4.83,0,0,1,158,358.53Z"/><path class="cls-3" d="M173.48,369.43c-.92-.92-2.24-.67-2.43.48a2.8,2.8,0,0,0,.28,1.69,2.93,2.93,0,0,0,1.95,1.54,2.87,2.87,0,0,0,2.29-.48,2.6,2.6,0,0,0,.6-.6,3.06,3.06,0,0,0,.19-.29s.06-.11.15-.33a2.58,2.58,0,0,0,.17-.91,2.81,2.81,0,0,0-1-2.15,3.09,3.09,0,0,0-1-.58,3.21,3.21,0,0,0-1.05-.19,3.32,3.32,0,0,0-1.12.17c-.63.22-.57,1-.31,2.22a11.39,11.39,0,0,0,1.38,1.53h0l0-.2a1.64,1.64,0,0,1,0-.2V371h0l.06-.47h0v0a.42.42,0,0,1,0,.12c0,.07,0,.08,0,0a.68.68,0,0,1,.42-.23h0a.43.43,0,0,1-.12-.11c-.08-.12,0-.15-.05,0,0-.15.13-.19.08-.16a.24.24,0,0,1-.1,0h0l.07,0,0,0h0l-.1-.11A1.72,1.72,0,0,1,173.48,369.43Z"/><path class="cls-3" d="M370.33,284.93a5.63,5.63,0,0,0,.29-2.93c0-.17-.08-.42-.14-.72s-.08-.32-.12-.5a11.75,11.75,0,0,0-.52-1.55,14.43,14.43,0,0,0-4.67-6.07,18.46,18.46,0,0,0-6.25-3,20.24,20.24,0,0,0-3-.61,22.59,22.59,0,0,0-3-.21,25.11,25.11,0,0,0-6.86.91,25.83,25.83,0,0,0-6.95,3.1c-.68.42-1.2.83-1.47,1a7.51,7.51,0,0,0-2,2.17A17.22,17.22,0,0,0,338.1,275c.27-.18.77-.57,1.43-1a24.72,24.72,0,0,1,6.74-3,24.3,24.3,0,0,1,6.65-.89,22.29,22.29,0,0,1,2.92.2,19.92,19.92,0,0,1,2.87.59,17.6,17.6,0,0,1,6,2.91,13.52,13.52,0,0,1,4.42,5.73,11.92,11.92,0,0,1,.49,1.46c0,.17.09.32.12.47s.11.51.13.67C370,283.27,370.16,283.91,370.33,284.93Z"/><path class="cls-3" d="M362,289.76a4.7,4.7,0,0,0,.52-2.92,5.11,5.11,0,0,0-.13-.72c0-.16-.07-.33-.12-.5a10.41,10.41,0,0,0-.45-1.28,12,12,0,0,0-4-4.86,21.13,21.13,0,0,0-5.06-2.59c-1.41-.51-2.35-.75-2.35-.75a20.18,20.18,0,0,0-2.42-.54,16.87,16.87,0,0,0-5.7,0,16.23,16.23,0,0,0-5.85,2.25c-.68.44-1.21.84-1.47,1.05a6.6,6.6,0,0,0-1.83,2.3c.85-.59,1.41-.95,2.32-1.69a14.43,14.43,0,0,1,1.4-1,15.67,15.67,0,0,1,5.56-2.15,16.39,16.39,0,0,1,5.44,0,19.45,19.45,0,0,1,2.34.52s.91.23,2.29.73a20.91,20.91,0,0,1,4.87,2.5,11.14,11.14,0,0,1,3.76,4.53,7.58,7.58,0,0,1,.41,1.18q.07.24.12.45c.06.29.09.52.12.67C361.84,288.08,361.91,288.72,362,289.76Z"/><path class="cls-3" d="M331.82,284.78c1-.26,1.65-.41,2.76-.77.19-.05.49-.15,1.14-.3a13.48,13.48,0,0,1,4.9-.14,12.42,12.42,0,0,1,3,.86,13.18,13.18,0,0,1,2.37,1.3,12.71,12.71,0,0,1,3.28,3.26,8,8,0,0,1,.78,1.5,11.34,11.34,0,0,1,.72,2.69,3.83,3.83,0,0,0,0-3,9.06,9.06,0,0,0-.86-1.66,13.42,13.42,0,0,0-3.49-3.48,14.05,14.05,0,0,0-5.68-2.29,14.32,14.32,0,0,0-5.18.15c-.69.16-1,.27-1.22.33A6.18,6.18,0,0,0,331.82,284.78Z"/><path class="cls-3" d="M332.37,289.21a12.77,12.77,0,0,0,1.21-2.63c.07-.19.16-.51.4-1.15a48.88,48.88,0,0,1,2.51-5.76c1-1.95,2-3.48,2-3.48s.79-1.29,1.92-2.86a50.19,50.19,0,0,1,3.78-4.61c.62-.68,1-1.08,1.22-1.28a12.54,12.54,0,0,0,1.81-2.26,8.87,8.87,0,0,0-2.36,1.71c-.22.21-.62.61-1.24,1.29a51.66,51.66,0,0,0-3.85,4.69c-1.14,1.6-1.94,2.91-1.94,2.91s-1,1.55-2,3.53a48.85,48.85,0,0,0-2.55,5.86c-.24.64-.33,1-.4,1.16A9.26,9.26,0,0,0,332.37,289.21Z"/><path class="cls-3" d="M341.32,287.25a11.06,11.06,0,0,0,2.21-1.88l.83-.89c1-1.05,2.66-2.8,4.14-4.24s2.72-2.6,2.72-2.6l2.41-2.17c1.37-1.21,3.06-2.64,4.29-3.63l1.39-1.11a11.28,11.28,0,0,0,2-2.07,9.81,9.81,0,0,0-2.52,1.46l-1.39,1.11c-1.24,1-2.94,2.43-4.32,3.65l-2.42,2.19s-1.26,1.16-2.74,2.61-3.18,3.2-4.16,4.27l-.83.9A9.77,9.77,0,0,0,341.32,287.25Z"/><path class="cls-3" d="M345.91,294.54a9.77,9.77,0,0,0,2.77-.89l.63-.32.45-.22,1-.55c1.49-.77,3.2-1.76,4.83-2.73,3.24-2,6-4,6-4s2.82-2,5.71-4.44c1.45-1.21,2.92-2.56,4.12-3.69l1.27-1.24a9.42,9.42,0,0,0,1.75-2.33,11.7,11.7,0,0,0-2.3,1.78l-1.26,1.22c-1.19,1.12-2.65,2.46-4.09,3.66-2.86,2.43-5.65,4.41-5.65,4.41s-2.76,2-6,4c-1.61,1-3.31,1.94-4.79,2.71l-1,.54-.44.22-.63.32A11.27,11.27,0,0,0,345.91,294.54Z"/></svg>