<?xml version="1.0" encoding="utf-8"?>
<!-- Generator: Adobe Illustrator 19.0.0, SVG Export Plug-In . SVG Version: 6.00 Build 0)  -->
<svg version="1.1" id="Layer_1" xmlns="http://www.w3.org/2000/svg" xmlns:xlink="http://www.w3.org/1999/xlink" x="0px" y="0px"
	 viewBox="654 -222.9 1920 1237.9" style="enable-background:new 654 -222.9 1920 1237.9;" xml:space="preserve">
<style type="text/css">
	.st0{fill:#A2AAC7;}
</style>
<path id="XMLID_2_" class="st0" d="M696.7-94.3c11.5,4,35.5,0.9,42.8,2.9c7.3,2.3,27.1,15.6,42.8,20.1c7.4,2.1,14,0.3,21.4-0.3
	c9.2-0.8,12.8,2.4,20.9,5c7.8,2.5,16.5,2.7,24.6,2c11.5-1.1,9.4-14.7,23-12.6c13.6,2,28.2,16,30.3,7.7c2.1-8.4,9.4-9.3,9.4-9.3
	s11.5,1.3,15.7-5.4c4.2-6.7,3.1-10.4,10.4-9.8c10,0.8,12.4-5.8,19.8-10.6c9.5-6.1,16.5,3.2,25.1-8.6c5.2-7.2,16.7-10.6,21.9-6.7
	s10.4,22.6,19.8,15.7c9.4-7,6.3-0.2,18.8,0.3c12.5,0.4,26.1,14.7,33.4,9c7.3-5.6,13.6-18.8,27.1-24.7c13.6-5.8,34.5-42.1,51.2-68.9
	c16.6-26.8,25-34.4,37.5-34.4s31.3,0,43.8,0c12.6,0.1,32.4,20,50.1,30.4c17.7,10.5,25.1,10.4,38.9,3.3c13.8-7.2,17.5-5.5,32.1-1.2
	s26.1,14.8,40.7,21.3c14.6,6.7,17.7,29.9,28.2,28.6c10.4-1.2,12.5-4.3,21.9-5.4s13.6,3.9,19.8,3.1c6.3-0.7,21.9-3,40.7-14.2
	c18.8-11.1,23-13.7,31.3-14.6c8.3-0.8,18.8-0.6,31.3,2.6c12.5,3.1,5.2-3.9,20.9-2.3c15.7,1.5,25.1,2.4,32.4,2.5
	c7.3,0.2,27.1,6.5,34.5,15.5c2.7,3.4,5.9,6.3,9.3,8.6c9.9-0.3,18.6,0.6,20.1-3c2.1-4.8,9.4-7,9.4-7s11.5-2.1,15.7-6.1
	s3.1-5.5,10.4-6.6c7.3-1.2,19.8-4.7,24-10.5c4.2-5.8,0,0,5.2,0.2c5.2,0.1,10.4-1.6,15.7-5.1c5.2-3.5,16.7-6.1,21.9-5.4
	c5.2,0.8,10.4,6.5,19.8,2.8c9.4-3.5,6.3-0.9,18.8-2.4c12.5-1.4,26.1,1.1,33.4-1.5c7.3-2.5,13.6-6.8,27.1-9.5
	c13.6-2.9,34.5-12.8,51.2-17.9c16.7-5.2,25.1-6,37.6-6.1c12.5,0,31.3,0,43.8,0c12.5,0.1,32.4,2.2,50.1,3.1c17.7,1,25.1,0.8,38.9,0
	c13.8-0.8,17.5-0.6,32.1-0.2c14.6,0.4,26.1,1.5,40.7,2.5c14.6,0.9,17.7,4.3,28.2,4.6c10.4,0.2,12.5-0.1,21.9,0.2s13.6,1.4,19.8,1.7
	c6.3,0.3,21.9,1.1,40.7,0.4c18.8-0.8,23-1.1,31.3-0.6c8.4,0.6,18.8,1.5,31.3,4.1c12.5,2.7,5.2-0.7,20.9,2c15.7,2.8,25.1,5,32.4,6.5
	c7.3,1.3,27.1,8.9,34.4,17.2c7.3,8,17.7,16.1,27.1,21.1c9.4,4.9,29.2,17.1,45.9,34.7c16.7,18.2,55.3,18.1,55.3,17.3
	c0,390.5,0,732.9,0,1123.4c-262.1,0-524.2,0-786.3,0c-109.4,0-218.8,0-328.1,0c-268.5,0-537,0-805.5,0c0-388,0-735.6,0-1123.6
	C654-108,685.2-97.1,696.7-94.3z"/>
</svg>
