<?xml version="1.0" encoding="utf-8"?>
<!-- Generator: Adobe Illustrator 19.0.0, SVG Export Plug-In . SVG Version: 6.00 Build 0)  -->
<svg version="1.1" id="Layer_1" xmlns="http://www.w3.org/2000/svg" xmlns:xlink="http://www.w3.org/1999/xlink" x="0px" y="0px"
	 viewBox="654 -282.9 1920 1357.9" style="enable-background:new 654 -282.9 1920 1357.9;" xml:space="preserve">
<style type="text/css">
	.st0{fill:#D0D5E9;}
</style>
<path id="XMLID_2_" class="st0" d="M2531.3-173.3c-11.5-1-35.5-10.4-42.8-10.4s-27.1,5.2-42.8,5.2c-21.2,0-47.2,3.8-67.2-4.6
	c-12.6-5.3-13.7-12.2-28.9-11.7c-4,0.1-21.7,7.3-24,1.6c-2.1-5.2-9.4-6.3-9.4-6.3s-11.5,0-15.7-4.2s-3.1-6.3-10.4-6.3
	c-4.2,0-8.6-0.6-12.6-1.8c-4.3-1.3-7-4.1-10.8-6.1c-3.9-2-6.3,0.2-10.4,0.1c-4-0.1-8-2.3-11.1-4.8c-5.2-4.2-16.7-6.3-21.9-4.2
	c-5.2,2.1-10.4,12.5-19.8,8.5c-9.4-4-6.3-0.2-18.8,0s-26.1,8.2-33.4,5c-7.3-3.1-13.6-10.4-27.1-13.6c-13.6-3.1-34.5-23-51.2-37.6
	c-16.7-14.2-25.1-18.4-37.6-18.4s-31.3,0-43.8,0s-32.4,11.5-50.1,18.1s-25.1,6.9-38.9,2.8c-13.8-4.2-17.5-3.1-32.1,0
	s-26.1,10.4-40.7,15.7c-14.6,5.2-17.7,21.9-28.2,21.9c-10.4,0-12.5-2.1-21.9-2.1s-13.6,4.2-19.8,4.2c-6.3,0-21.9,0-40.7-7.3
	c-18.8-7.3-23-9.4-31.3-9.4s-18.8,1-31.3,5.2c-12.5,4.2-5.2-3.1-20.9,0c-15.7,3.1-25.1,5.2-32.4,6.3c-7.3,1-27.1,10.4-34.5,21.9
	c-2.7,4.3-5.9,8.2-9.3,11.5c-9.9,1.8-18.6,4.9-20.1,1c-2.1-5.2-9.4-6.3-9.4-6.3s-11.5,0-15.7-4.2c-4.2-4.2-3.1-6.3-10.4-6.3
	c-7.3,0-19.8-2.1-24-9.4c-4.2-7.3,0,0-5.2,1.2c-5.2,1.2-10.4-0.2-15.7-4.4c-5.2-4.2-16.7-6.3-21.9-4.2c-5.2,2.1-10.4,12.5-19.8,8.5
	s-6.3-0.2-18.8,0s-26.1,8.2-33.4,5c-7.3-3.1-13.6-10.4-27.1-13.6c-13.6-3.1-34.5-23-51.2-37.6c-16.8-14.3-25.2-18.5-37.7-18.5
	s-31.3,0-43.8,0s-32.4,11.5-50.1,18.1s-25.1,6.9-38.9,2.8c-13.8-4.2-17.5-3.1-32.1,0c-14.7,3.1-26.2,10.4-40.8,15.6
	s-17.7,21.9-28.2,21.9c-10.4,0-12.5-2.1-21.9-2.1s-13.6,4.2-19.8,4.2c-6.3,0-21.9,0-40.7-7.3c-18.8-7.3-23-9.4-31.3-9.4
	c-8.4,0-18.8,1-31.3,5.2c-12.5,4.2-5.2-3.1-20.9,0c-15.7,3.1-25.1,5.2-32.4,6.3c-7.3,1-27.1,10.4-34.5,21.9
	c-7.3,11.5-17.7,19.8-27.1,23c-9.4,3.1-29.2,11.5-45.9,24c-16.8,12.6-55.4-9.7-55.4-9.7V1075h786.3h328.1H2574l0-1243.2
	C2574-168.2,2542.8-172.2,2531.3-173.3z"/>
</svg>
