<?xml version="1.0" encoding="utf-8"?>
<!-- Generator: Adobe Illustrator 19.0.0, SVG Export Plug-In . SVG Version: 6.00 Build 0)  -->
<svg version="1.1" id="Layer_1" xmlns="http://www.w3.org/2000/svg" xmlns:xlink="http://www.w3.org/1999/xlink" x="0px" y="0px"
	 viewBox="654 28.3 1920 736.7" style="enable-background:new 654 28.3 1920 736.7;" xml:space="preserve">
<style type="text/css">
	.st0{opacity:0.3;fill:#30324C;enable-background:new    ;}
</style>
<path id="XMLID_2_" class="st0" d="M654,207.5c0,0,102.5,43.1,135.5,35.6c33-7.4,75.5-19.1,113.7-22.3c38.3-3.2,50-18.1,88.2-35.1
	c38.3-17,36.1-14.9,87.2-34s80.8-23.4,113.7-39.3c33-15.9,50-3.2,71.2-26.6c21.3-23.4,94.7-59.5,117-57.4s35.1,23.4,64.8,40.4
	c29.8,17,35.1,33,69.1,40.4s80.8,12.8,109.5,19.1c28.7,6.4,43.6,0,85-2.1c41.5-2.1,73.3-5.2,105.2,10.7s24.5,18,71.2,8.4
	c46.8-9.6,95.7-35,136.1-8.4c40.4,26.5,37.2,30.8,82.9,36.1c45.7,5.3,55.3,2.1,106.3,20.2s67,21.3,114.8,8.5s28.7-48.9,86.1-31.9
	c57.4,17,74.4,22.3,101,30.8c26.6,8.5,59.7,6.6,59.7,6.6l1.6,557.7H654V207.5z"/>
</svg>
