<?xml version="1.0" encoding="utf-8"?>
<!-- Generator: Adobe Illustrator 19.0.0, SVG Export Plug-In . SVG Version: 6.00 Build 0)  -->
<svg version="1.1" id="Layer_1" xmlns="http://www.w3.org/2000/svg" xmlns:xlink="http://www.w3.org/1999/xlink" x="0px" y="0px"
	 viewBox="652 -60.8 1916.5 913.8" style="enable-background:new 652 -60.8 1916.5 913.8;" xml:space="preserve">
<style type="text/css">
	.st0{opacity:0.3;fill:#30324C;enable-background:new    ;}
</style>
<path id="XMLID_2_" class="st0" d="M2568.5,122.3c0,0-67.1,0.3-86.2,0.3s-17.6-11.2-63.9-22.4c-46.3-11.2-83.1-30.3-102.2-35.1
	c-19.2-4.8-8,1.6-47.9,0s-43.1-4.8-63.9-9.6c-20.8-4.8-20.8-9.6-33.5-11.2c-12.7-1.6-27.2,17.6-38.3,0s0-28.8-30.3-27.1
	c-30.3,1.6-95.8-1.9-116.6-0.2c-20.8,1.7-24,2-51.1-0.5c-27.2-2.5-81.5,2.5-102.2,0c-20.8-2.5-41.5-8.9-60.7-8.9
	s-22.4-3.2-43.1-12.8c-20.8-9.6-36.7-12.8-65.5-12.8c-28.7,0-33.5,9.6-44.7,0c-11.2-9.6-11.2-17.6-51.1-27.1
	c-39.9-9.5-51.3-14.3-76.8-14.3c-25.6,0-44.7-3.2-87.8,0c-43.1,3.2-67.1,4.8-89.4,11.2c-22.4,6.4-27.1,8-59.1,27.2
	c-31.9,19.2-76.7,55.9-105.4,71.9c-28.7,16-35.1,13.6-78.3,38.3c-43.1,24.8-46.3,52.7-67.1,73.5c-20.8,20.8-24,19.2-81.5,25.6
	s-71.9-87.8-100.6-75.1c-28.7,12.8-49.5,55.9-67.1,63.9c-17.6,8-31.9,16-46.3,17.6C693.5,196.2,652,122,652,122v731h1916.5V122.3z"
	/>
</svg>
