<?xml version="1.0" encoding="utf-8"?>
<!-- Generator: Adobe Illustrator 19.0.0, SVG Export Plug-In . SVG Version: 6.00 Build 0)  -->
<svg version="1.1" id="Layer_1" xmlns="http://www.w3.org/2000/svg" xmlns:xlink="http://www.w3.org/1999/xlink" x="0px" y="0px"
	 viewBox="654 -248.7 1920.8 1289.7" style="enable-background:new 654 -248.7 1920.8 1289.7;" xml:space="preserve">
<style type="text/css">
	.st0{fill:#30324C;}
</style>
<path id="XMLID_2_" class="st0" d="M654,224.3c0,0,10.8,6.2,48-3.1s65.1-9.3,77.5-10.8s24.8,0,46.5,0s60.4,10.2,91.4,20.6
	s34.1,13.5,63.5,12c29.4-1.5,32.5,8.6,66.6-12s49.6-64,63.5-74.8c13.9-10.8-1.5-10.8,37.2-24.8c38.7-13.9,38.7-20.1,57.3-35.6
	s31-34.1,49.6-54.2s38.7-41.8,62-60.4c23.2-18.6,43.4-58.9,66.6-69.7s31,0,55.8-13.9c24.8-13.9,7.7-24.8,27.9-38.7
	c20.1-13.9,46.5-23.2,77.5-29.4c31-6.2,31-1.5,58.9-17c27.9-15.5,91.4-44.9,102.2-51.1s20.1-18.6,27.9,0
	c7.7,18.6,29.4,35.6,37.2,38.7c7.7,3.1,32.5-31,63.5-21.7s10.8,13.9,23.2,15.5c12.4,1.5,23.2-7.7,41.8,18.6
	c18.6,26.3,48,75.9,72.8,102.2s91.4,89.8,106.9,102.2c15.5,12.4,63.5,48,69.7,58.9c6.2,10.8,3.1,7.7,24.8-1.5
	c21.7-9.3,23.2,7.7,37.2,9.3c13.9,1.5,4.6-17,29.4-23.2c24.8-6.2,23.2,1.6,38.7,15.5s46.5,24.8,71.3,44.9
	c24.8,20.1,21.7,23.2,65.1,35.6s60.4,44.9,82.1,54.2c21.7,9.3,77.5,14.4,77.5,14.4v816.3H654V224.3z"/>
</svg>
