<?xml version="1.0" encoding="utf-8"?>
<!-- Generator: Adobe Illustrator 19.0.0, SVG Export Plug-In . SVG Version: 6.00 Build 0)  -->
<svg version="1.1" id="Layer_1" xmlns="http://www.w3.org/2000/svg" xmlns:xlink="http://www.w3.org/1999/xlink" x="0px" y="0px"
	 viewBox="653 -170 1917.3 1133" style="enable-background:new 653 -170 1917.3 1133;" xml:space="preserve">
<style type="text/css">
	.st0{fill:#7A80A0;}
</style>
<path id="XMLID_2_" class="st0" d="M653-32.5c0,0,16.6,97.8,45.3,76.2s62.9-35.9,79-41.3C793.5-3,811.4-17.4,824-37.1
	c12.6-19.8,46.7-35.9,59.3-37.7c12.6-1.8,28.7-5.4,55.7-10.8c26.9-5.4,14.4,7.2,35.9,0c21.6-7.2,39.5-9,53.9-9
	c14.4,0,21.6,3.6,53.9,16.2c32.3,12.6,59.3,12.6,70,12.6c10.8,0,18-7.2,34.1-7.2c16.2,0,19.8,3.6,37.7,3.6c18,0,23.3-28.7,48.5-37.7
	s44.9-21.6,70-26.9c25.1-5.4,31.4-7.2,55.2,0c23.8,7.2,36.4,6.7,66.9-4.7c30.6-11.5,64.7-31.3,86.3-31.3s53.9,0,75.4,0
	c21.6,0,35.9,7.2,64.7,32.3c28.7,25.1,64.7,59.3,88,64.7s34.1,18,46.7,23.3c12.6,5.4,35.9-8.4,57.5-8.7c21.6-0.3,16.2-6.9,32.3,0
	c16.2,6.9,25.1-11.1,34.1-14.7s28.7,0,37.7,7.2s18,9.6,26.9,7.5c9-2.1,1.8-14.7,9-2.1s28.7,16.2,41.3,16.2s10.8,3.6,18,10.8
	s26.9,7.2,26.9,7.2s12.6,1.8,16.2,10.8c3.6,9,28.7-3.6,52.1-3.6c23.3,0,19.8,14.4,39.5,18c19.8,3.6,41.3,5.4,53.9,1.8
	c12.6-3.6-10.8-14.4,12.6-3.6c23.3,10.8,21.6,12.6,48.5,12.6s61.1-9,73.6-9c12.6,0,53.9,16.2,73.6,18c19.8,1.8,90.4-50.2,90.4-50.2
	V963H653V-32.5z"/>
</svg>
