<?xml version="1.0" encoding="utf-8"?>
<!-- Generator: Adobe Illustrator 19.0.0, SVG Export Plug-In . SVG Version: 6.00 Build 0)  -->
<svg version="1.1" id="Layer_1" xmlns="http://www.w3.org/2000/svg" xmlns:xlink="http://www.w3.org/1999/xlink" x="0px" y="0px"
	 viewBox="655 158.5 1921.1 477.5" style="enable-background:new 655 158.5 1921.1 477.5;" xml:space="preserve">
<style type="text/css">
	.st0{opacity:0.3;fill:#30324C;enable-background:new    ;}
</style>
<path id="XMLID_2_" class="st0" d="M655,189.7c0,0,12.3,30.8,30.9,40.5c18.5,9.7,30,22,39.7,20.3c9.7-1.8,16.8-12.7,22.9-11.6
	c6.2,1,28.2-5.5,35.3,0c7.1,5.5,3.5-7,6.2-11.8c2.6-4.8,27.3-10.1,33.5-11c6.2-0.9,9.7-6.2,22.9-7.1c13.2-0.9,60.8,16.9,82.9,20.8
	c22,3.9,54.7,5.6,67,10.9c12.3,5.3,23.8,23.8,32.6,25.6c8.8,1.8,16.8,7.9,26.4,5.3c9.7-2.6,22-14.1,30-5.3
	c7.9,8.8,15,13.2,30.9,14.1c15.9,0.9,29.1,13.2,34.4,15.9c5.3,2.6,14.1-0.9,24.7-12.3c10.6-11.5,16.8-17.6,25.6-23.8
	c8.8-6.2,16.8-13.2,24.7-23.8s0.9-15.9,18.5-17.6c17.6-1.8,29.1-1.8,46.7-9.7c17.6-7.9,11.5-11.4,37.9-14.1
	c26.5-2.6,52.9,4.4,65.2,12.3c12.3,7.9,25.6,15,36.1,15.9c10.6,0.9,8.8-2.6,27.3,1.8c18.5,4.4,21.2,5.3,37,11.5
	c15.9,6.2,12.3,10.8,31.7,9.4c19.4-1.5,50.3-13.8,61.7-13.8c11.5,0,16.8,9.1,30,13.8c13.2,4.7,24.7,3,36.1,11.8
	c11.5,8.8,14.1,16.8,22,22.9c7.9,6.2,4.4,7,18.5,16.7c14.1,9.7,28.2,15,31.7,15.9c3.5,0.9,4.4,6.2,15,10.6c10.6,4.4,15,1.8,25.6,7.9
	c10.6,6.2,9.7,7.1,22.9,13.2c13.2,6.2,14.1,9.7,24.7,15.9s8.8,2.6,19.4,11.5c10.6,8.8,6.2,11.5,22,16.8c15.9,5.3,6.2,2.6,22,8.8
	c15.9,6.2,16.8,3.5,20.3,7.1c3.5,3.5,22-19.3,35.3-24.2c13.2-4.9,14.1-11.1,27.3-21.6c13.2-10.6,14.1-19.4,27.3-27.3
	c13.2-7.9,8.8-4.4,21.2-12.3c12.3-7.9,15-22,30-30c15-7.9,14.1-7.1,22.9-15c8.8-7.9,6.2-15,11.5-16.8c5.3-1.8,22,0.9,22,0.9
	l5.3-12.3c0,0-14.1-8.8,10.6-11.5c24.7-2.6,18.5-1.8,24.7-2.6c6.2-0.8,17.6-14.1,21.2-15.9c3.5-1.8,7.1-4.4,12.3-9.7
	c5.3-5.3,7.9-8.2,15-12c7.1-3.8,4.4-4.7,23.8-4.7c19.4,0,38.8-5.3,45-6.2c6.2-0.9,15.9-7.1,23.8,0c7.9,7.1,13.2,7.9,32.6,13.2
	s12.3,9.8,31.7,5.4c19.4-4.5,13.2-4.5,23.8-5.4s31.7-3.5,42.3-2.6c10.6,0.9,8.8-0.8,14.1,8c5.3,8.8-0.9,7.9,10.6,14
	c11.5,6.2,21.2,6.2,30,6.2s15.9-6.2,39.7-14.1c23.8-7.9,24.7-49.1,53.1-32.3c4.8,2.8,21,13.8,21,13.8l-1.6,446.3H655V189.7z"/>
</svg>
