<svg id="Layer_1" data-name="Layer 1" xmlns="http://www.w3.org/2000/svg" viewBox="0 0 20 18"><defs><style>.cls-1{fill:none;stroke:#000;stroke-linecap:round;stroke-miterlimit:10;stroke-width:2px;}</style></defs><title>firstStep</title><line class="cls-1" x1="1" y1="17" x2="1" y2="1"/><path d="M17.55,5.9A2.46,2.46,0,0,1,20,8.35v7.3a2.46,2.46,0,0,1-2.45,2.45,2.4,2.4,0,0,1-1.22-.33l-3.16-1.83L10,14.12a2.45,2.45,0,0,1,0-4.24l3.16-1.82,3.16-1.83a2.4,2.4,0,0,1,1.22-.33m0-2a4.47,4.47,0,0,0-2.22.6L12.17,6.32,9,8.15a4.45,4.45,0,0,0,0,7.7l3.16,1.83,3.16,1.82A4.44,4.44,0,0,0,22,15.65V8.35A4.45,4.45,0,0,0,17.55,3.9Z" transform="translate(-2 -3)"/></svg>