<svg id="Layer_1" data-name="Layer 1" xmlns="http://www.w3.org/2000/svg" viewBox="0 0 20 18"><defs><style>.cls-1{fill:none;stroke:#000;stroke-linecap:round;stroke-miterlimit:10;stroke-width:2px;}</style></defs><title>lastStep</title><line class="cls-1" x1="19" y1="17" x2="19" y2="1"/><path d="M6.45,5.9h0a2.4,2.4,0,0,1,1.22.33l3.16,1.83L14,9.88a2.45,2.45,0,0,1,0,4.24l-3.16,1.82L7.67,17.77a2.4,2.4,0,0,1-1.22.33A2.46,2.46,0,0,1,4,15.65V8.35A2.46,2.46,0,0,1,6.45,5.9m0-2A4.45,4.45,0,0,0,2,8.35v7.3A4.44,4.44,0,0,0,8.67,19.5l3.16-1.82L15,15.85a4.45,4.45,0,0,0,0-7.7L11.83,6.32,8.67,4.5a4.47,4.47,0,0,0-2.22-.6Z" transform="translate(-2 -3)"/></svg>