<svg id="Layer_1" data-name="Layer 1" xmlns="http://www.w3.org/2000/svg" viewBox="0 0 15.73 20"><title>pointerInactive</title><path d="M6.16,4a.48.48,0,0,1,.34.15L17.23,14.88a.47.47,0,0,1,.11.55.47.47,0,0,1-.46.3H12.49a4.47,4.47,0,0,0-3.18,1.32l-2.8,2.8a.46.46,0,0,1-.33.15.5.5,0,0,1-.52-.5V4.5a.43.43,0,0,1,.14-.35A.58.58,0,0,1,6.16,4m0-2A2.49,2.49,0,0,0,3.65,4.5v15A2.49,2.49,0,0,0,6.18,22a2.42,2.42,0,0,0,1.74-.73l2.81-2.81a2.51,2.51,0,0,1,1.76-.73h4.39a2.49,2.49,0,0,0,1.76-4.26L7.91,2.74A2.44,2.44,0,0,0,6.16,2Z" transform="translate(-3.65 -2)"/></svg>